<svg width="453" height="40" viewBox="0 0 453 40" fill="none" xmlns="http://www.w3.org/2000/svg">
<path d="M36.6291 37.2903L21.2014 3.92688H18.8352L3.40763 37.2903H5.96313L10.175 28.0148H29.7198L33.9316 37.2903H36.6291ZM28.6786 25.7906H11.2161L19.971 6.62435L28.6786 25.7906ZM56.1284 15.332V12.7765C51.3487 12.5872 47.3261 15.7106 45.4332 20.017V13.1551H43.1143V37.2903H45.4332V27.3996C45.4332 19.5438 50.3075 15.332 55.8918 15.332H56.1284ZM64.9965 6.86097V3.69026H62.1097V6.86097H64.9965ZM64.7125 37.2903V13.1551H62.3936V37.2903H64.7125ZM72.1908 12.0666L72.7587 13.2497C75.5981 12.1613 76.6866 10.5996 76.6866 7.66548V4.1635H73.5632V8.18604H74.8409C74.9829 9.98435 74.2257 11.0255 72.1908 12.0666ZM99.4587 30.7123V30.6176C99.4587 26.3584 95.3888 24.9387 91.5082 23.8503C88.0536 22.8565 84.7882 21.8627 84.7882 19.1652V19.0706C84.7882 16.657 86.9651 14.8587 90.2778 14.8587C92.8333 14.8587 95.4834 15.8052 97.7077 17.2722L98.9381 15.332C96.5246 13.7229 93.2592 12.6818 90.3725 12.6818C85.6874 12.6818 82.422 15.4739 82.422 19.3545V19.4491C82.422 23.7556 86.7758 24.9387 90.7037 26.0745C94.0637 27.021 97.0925 28.0621 97.0925 30.9015V30.9962C97.0925 33.7883 94.537 35.5866 91.2716 35.5866C88.1956 35.5866 85.2615 34.4508 82.6113 32.4159L81.2389 34.2615C83.7944 36.3438 87.6277 37.7635 91.1296 37.7635C95.7674 37.7635 99.4587 35.0187 99.4587 30.7123ZM134.047 15.332V12.7765C129.267 12.5872 125.244 15.7106 123.351 20.017V13.1551H121.032V37.2903H123.351V27.3996C123.351 19.5438 128.226 15.332 133.81 15.332H134.047ZM139.583 26.1691H159.602C159.649 25.7906 159.649 25.6486 159.649 25.3173V25.2227C159.649 18.0768 155.342 12.5872 148.575 12.5872C142.044 12.5872 137.123 18.1714 137.123 25.1753V25.27C137.123 32.7945 142.612 37.8582 148.954 37.8582C153.591 37.8582 156.478 35.9652 158.939 33.3151L157.33 31.8954C155.342 34.0249 152.787 35.6813 149.048 35.6813C144.316 35.6813 140.009 32.1793 139.583 26.1691ZM139.583 24.0869C140.009 18.7393 143.701 14.7167 148.48 14.7167C154.017 14.7167 156.809 19.2125 157.141 24.0869H139.583ZM186.907 33.0784L185.298 31.6587C183.263 33.9303 180.613 35.6813 177.205 35.6813C171.668 35.6813 167.267 31.0435 167.267 25.2227V25.128C167.267 19.3545 171.526 14.7641 177.016 14.7641C180.613 14.7641 182.979 16.6097 185.061 18.7393L186.717 17.0356C184.446 14.6694 181.606 12.5872 177.063 12.5872C170.154 12.5872 164.759 18.4553 164.759 25.2227V25.3173C164.759 32.0846 170.107 37.8582 177.063 37.8582C181.512 37.8582 184.446 35.8706 186.907 33.0784ZM215.899 25.2227V25.128C215.899 18.3607 210.694 12.5872 203.548 12.5872C196.354 12.5872 191.102 18.4553 191.102 25.2227V25.3173C191.102 32.0846 196.307 37.8582 203.453 37.8582C210.646 37.8582 215.899 31.99 215.899 25.2227ZM213.391 25.3173C213.391 30.9962 209.274 35.6813 203.548 35.6813C197.964 35.6813 193.61 31.0435 193.61 25.2227V25.128C193.61 19.4491 197.727 14.7641 203.453 14.7641C209.037 14.7641 213.391 19.4018 213.391 25.2227V25.3173ZM259.515 37.2903V22.6672C259.515 16.6097 255.966 12.5872 250.24 12.5872C245.697 12.5872 243.094 15.0953 241.532 17.7928C240.207 15.0007 237.604 12.5872 233.393 12.5872C229.086 12.5872 226.909 14.9534 225.347 17.4615V13.1551H223.029V37.2903H225.347V23.377C225.347 18.5027 228.755 14.7167 233.061 14.7167C237.368 14.7167 240.113 17.7928 240.113 22.8091V37.2903H242.431V23.2351C242.431 17.8401 245.981 14.7167 250.051 14.7167C254.499 14.7167 257.196 17.7455 257.196 22.9511V37.2903H259.515ZM304.529 37.2903V22.6672C304.529 16.6097 300.979 12.5872 295.253 12.5872C290.71 12.5872 288.107 15.0953 286.545 17.7928C285.22 15.0007 282.618 12.5872 278.406 12.5872C274.099 12.5872 271.922 14.9534 270.361 17.4615V13.1551H268.042V37.2903H270.361V23.377C270.361 18.5027 273.768 14.7167 278.074 14.7167C282.381 14.7167 285.126 17.7928 285.126 22.8091V37.2903H287.445V23.2351C287.445 17.8401 290.994 14.7167 295.064 14.7167C299.512 14.7167 302.21 17.7455 302.21 22.9511V37.2903H304.529ZM313.86 26.1691H333.878C333.925 25.7906 333.925 25.6486 333.925 25.3173V25.2227C333.925 18.0768 329.618 12.5872 322.851 12.5872C316.32 12.5872 311.399 18.1714 311.399 25.1753V25.27C311.399 32.7945 316.888 37.8582 323.23 37.8582C327.867 37.8582 330.754 35.9652 333.215 33.3151L331.606 31.8954C329.618 34.0249 327.063 35.6813 323.324 35.6813C318.592 35.6813 314.285 32.1793 313.86 26.1691ZM313.86 24.0869C314.285 18.7393 317.977 14.7167 322.756 14.7167C328.293 14.7167 331.085 19.2125 331.417 24.0869H313.86ZM361.372 37.2903V22.5252C361.372 16.7517 357.823 12.5872 351.718 12.5872C347.317 12.5872 344.619 14.8114 343.01 17.6508V13.1551H340.691V37.2903H343.01V23.3297C343.01 18.3134 346.654 14.7167 351.387 14.7167C356.261 14.7167 359.053 17.9821 359.053 22.9511V37.2903H361.372ZM392.146 37.2903V2.74378H389.827V18.3607C387.839 15.332 384.716 12.5872 379.889 12.5872C374.068 12.5872 368.153 17.3669 368.153 25.2227V25.3173C368.153 33.1731 374.068 37.8582 379.889 37.8582C384.669 37.8582 387.745 35.0661 389.827 31.8954V37.2903H392.146ZM389.969 25.27C389.969 31.4221 385.142 35.6339 380.126 35.6339C375.062 35.6339 370.661 31.5641 370.661 25.2227V25.128C370.661 18.6446 374.873 14.8114 380.126 14.8114C385.142 14.8114 389.969 18.9759 389.969 25.1753V25.27ZM401.76 26.1691H421.778C421.825 25.7906 421.825 25.6486 421.825 25.3173V25.2227C421.825 18.0768 417.519 12.5872 410.752 12.5872C404.221 12.5872 399.299 18.1714 399.299 25.1753V25.27C399.299 32.7945 404.789 37.8582 411.13 37.8582C415.768 37.8582 418.655 35.9652 421.116 33.3151L419.507 31.8954C417.519 34.0249 414.963 35.6813 411.225 35.6813C406.493 35.6813 402.186 32.1793 401.76 26.1691ZM401.76 24.0869C402.186 18.7393 405.877 14.7167 410.657 14.7167C416.194 14.7167 418.986 19.2125 419.317 24.0869H401.76ZM451.024 37.2903V2.74378H448.705V18.3607C446.717 15.332 443.594 12.5872 438.767 12.5872C432.946 12.5872 427.03 17.3669 427.03 25.2227V25.3173C427.03 33.1731 432.946 37.8582 438.767 37.8582C443.546 37.8582 446.623 35.0661 448.705 31.8954V37.2903H451.024ZM448.847 25.27C448.847 31.4221 444.02 35.6339 439.003 35.6339C433.94 35.6339 429.539 31.5641 429.539 25.2227V25.128C429.539 18.6446 433.75 14.8114 439.003 14.8114C444.02 14.8114 448.847 18.9759 448.847 25.1753V25.27Z" fill="white"/>
<path d="M36.6291 37.2903V39.1832H39.5899L38.3472 36.4958L36.6291 37.2903ZM21.2014 3.92688L22.9196 3.13239L22.4117 2.03392H21.2014V3.92688ZM18.8352 3.92688V2.03392H17.625L17.1171 3.13239L18.8352 3.92688ZM3.40763 37.2903L1.68947 36.4958L0.446765 39.1832H3.40763V37.2903ZM5.96313 37.2903V39.1832H7.18254L7.68672 38.0729L5.96313 37.2903ZM10.175 28.0148V26.1218H8.95555L8.45137 27.2321L10.175 28.0148ZM29.7198 28.0148L31.4433 27.2321L30.9392 26.1218H29.7198V28.0148ZM33.9316 37.2903L32.208 38.0729L32.7122 39.1832H33.9316V37.2903ZM28.6786 25.7906V27.6835H31.6178L30.4021 25.0076L28.6786 25.7906ZM11.2161 25.7906L9.49426 25.004L8.2703 27.6835H11.2161V25.7906ZM19.971 6.62435L21.6945 5.84136L19.9757 2.05821L18.2492 5.83784L19.971 6.62435ZM38.3472 36.4958L22.9196 3.13239L19.4833 4.72138L34.9109 38.0848L38.3472 36.4958ZM21.2014 2.03392H18.8352V5.81984H21.2014V2.03392ZM17.1171 3.13239L1.68947 36.4958L5.12579 38.0848L20.5534 4.72138L17.1171 3.13239ZM3.40763 39.1832H5.96313V35.3973H3.40763V39.1832ZM7.68672 38.0729L11.8985 28.7974L8.45137 27.2321L4.23954 36.5076L7.68672 38.0729ZM10.175 29.9077H29.7198V26.1218H10.175V29.9077ZM27.9962 28.7974L32.208 38.0729L35.6552 36.5076L31.4433 27.2321L27.9962 28.7974ZM33.9316 39.1832H36.6291V35.3973H33.9316V39.1832ZM28.6786 23.8976H11.2161V27.6835H28.6786V23.8976ZM12.9379 26.5771L21.6929 7.41086L18.2492 5.83784L9.49426 25.004L12.9379 26.5771ZM18.2476 7.40734L26.9552 26.5735L30.4021 25.0076L21.6945 5.84136L18.2476 7.40734ZM56.1284 15.332V17.2249H58.0213V15.332H56.1284ZM56.1284 12.7765H58.0213V10.957L56.2033 10.885L56.1284 12.7765ZM45.4332 20.017H43.5402L47.1661 20.7788L45.4332 20.017ZM45.4332 13.1551H47.3261V11.2621H45.4332V13.1551ZM43.1143 13.1551V11.2621H41.2213V13.1551H43.1143ZM43.1143 37.2903H41.2213V39.1832H43.1143V37.2903ZM45.4332 37.2903V39.1832H47.3261V37.2903H45.4332ZM58.0213 15.332V12.7765H54.2354V15.332H58.0213ZM56.2033 10.885C50.4851 10.6585 45.836 14.3963 43.7002 19.2553L47.1661 20.7788C48.8162 17.0248 52.2123 14.5158 56.0535 14.6679L56.2033 10.885ZM47.3261 20.017V13.1551H43.5402V20.017H47.3261ZM45.4332 11.2621H43.1143V15.048H45.4332V11.2621ZM41.2213 13.1551V37.2903H45.0073V13.1551H41.2213ZM43.1143 39.1832H45.4332V35.3973H43.1143V39.1832ZM47.3261 37.2903V27.3996H43.5402V37.2903H47.3261ZM47.3261 27.3996C47.3261 23.8708 48.4136 21.3451 49.9464 19.7177C51.4814 18.0879 53.5854 17.2249 55.8918 17.2249V13.439C52.6139 13.439 49.4886 14.6819 47.1904 17.122C44.89 19.5644 43.5402 23.0726 43.5402 27.3996H47.3261ZM55.8918 17.2249H56.1284V13.439H55.8918V17.2249ZM64.9965 6.86097V8.75393H66.8894V6.86097H64.9965ZM64.9965 3.69026H66.8894V1.7973H64.9965V3.69026ZM62.1097 3.69026V1.7973H60.2167V3.69026H62.1097ZM62.1097 6.86097H60.2167V8.75393H62.1097V6.86097ZM64.7125 37.2903V39.1832H66.6055V37.2903H64.7125ZM64.7125 13.1551H66.6055V11.2621H64.7125V13.1551ZM62.3936 13.1551V11.2621H60.5007V13.1551H62.3936ZM62.3936 37.2903H60.5007V39.1832H62.3936V37.2903ZM66.8894 6.86097V3.69026H63.1035V6.86097H66.8894ZM64.9965 1.7973H62.1097V5.58322H64.9965V1.7973ZM60.2167 3.69026V6.86097H64.0027V3.69026H60.2167ZM62.1097 8.75393H64.9965V4.96801H62.1097V8.75393ZM66.6055 37.2903V13.1551H62.8196V37.2903H66.6055ZM64.7125 11.2621H62.3936V15.048H64.7125V11.2621ZM60.5007 13.1551V37.2903H64.2866V13.1551H60.5007ZM62.3936 39.1832H64.7125V35.3973H62.3936V39.1832ZM72.1908 12.0666L71.3286 10.3814L69.6857 11.222L70.4843 12.8857L72.1908 12.0666ZM72.7587 13.2497L71.0521 14.0688L71.8071 15.6417L73.4363 15.0172L72.7587 13.2497ZM76.6866 4.1635H78.5795V2.27054H76.6866V4.1635ZM73.5632 4.1635V2.27054H71.6702V4.1635H73.5632ZM73.5632 8.18604H71.6702V10.079H73.5632V8.18604ZM74.8409 8.18604L76.728 8.03706L76.5904 6.29308H74.8409V8.18604ZM70.4843 12.8857L71.0521 14.0688L74.4652 12.4306L73.8974 11.2475L70.4843 12.8857ZM73.4363 15.0172C75.0477 14.3995 76.4122 13.5544 77.3368 12.2373C78.2664 10.913 78.5795 9.35696 78.5795 7.66548H74.7936C74.7936 8.90807 74.5625 9.59995 74.2381 10.0621C73.9086 10.5315 73.3091 11.0114 72.0811 11.4822L73.4363 15.0172ZM78.5795 7.66548V4.1635H74.7936V7.66548H78.5795ZM76.6866 2.27054H73.5632V6.05646H76.6866V2.27054ZM71.6702 4.1635V8.18604H75.4562V4.1635H71.6702ZM73.5632 10.079H74.8409V6.29308H73.5632V10.079ZM72.9539 8.33502C72.9997 8.91613 72.8942 9.16177 72.7758 9.33278C72.6114 9.57027 72.238 9.91611 71.3286 10.3814L73.053 13.7518C74.1785 13.176 75.2012 12.4807 75.8886 11.4878C76.622 10.4283 76.8241 9.25426 76.728 8.03706L72.9539 8.33502ZM91.5082 23.8503L90.9849 25.6695L90.997 25.6729L91.5082 23.8503ZM97.7077 17.2722L96.6654 18.8524L98.2742 19.9135L99.3063 18.286L97.7077 17.2722ZM98.9381 15.332L100.537 16.3457L101.528 14.7832L99.9881 13.7569L98.9381 15.332ZM90.7037 26.0745L90.1779 27.893L90.1905 27.8966L90.7037 26.0745ZM82.6113 32.4159L83.7642 30.9145L82.2394 29.7437L81.0923 31.2864L82.6113 32.4159ZM81.2389 34.2615L79.7199 33.132L78.6394 34.5852L80.0432 35.729L81.2389 34.2615ZM101.352 30.7123V30.6176H97.5657V30.7123H101.352ZM101.352 30.6176C101.352 27.734 99.909 25.7777 98.0043 24.4804C96.2133 23.2606 93.9404 22.5665 92.0195 22.0277L90.997 25.6729C92.9566 26.2225 94.6589 26.7825 95.873 27.6095C96.9734 28.3589 97.5657 29.2421 97.5657 30.6176H101.352ZM92.0316 22.0311C90.2487 21.5182 88.8029 21.0781 87.7885 20.5011C86.8305 19.9563 86.6812 19.5458 86.6812 19.1652H82.8953C82.8953 21.4821 84.3786 22.9172 85.9169 23.7921C87.3989 24.6349 89.3131 25.1885 90.9849 25.6695L92.0316 22.0311ZM86.6812 19.1652V19.0706H82.8953V19.1652H86.6812ZM86.6812 19.0706C86.6812 18.1057 87.5555 16.7517 90.2778 16.7517V12.9658C86.3747 12.9658 82.8953 15.2083 82.8953 19.0706H86.6812ZM90.2778 16.7517C92.3872 16.7517 94.6807 17.5434 96.6654 18.8524L98.7499 15.6921C96.2862 14.067 93.2794 12.9658 90.2778 12.9658V16.7517ZM99.3063 18.286L100.537 16.3457L97.3395 14.3182L96.109 16.2585L99.3063 18.286ZM99.9881 13.7569C97.2824 11.9531 93.6548 10.7889 90.3725 10.7889V14.5748C92.8636 14.5748 95.7667 15.4928 97.8881 16.907L99.9881 13.7569ZM90.3725 10.7889C84.9558 10.7889 80.5291 14.1401 80.5291 19.3545H84.315C84.315 16.8078 86.419 14.5748 90.3725 14.5748V10.7889ZM80.5291 19.3545V19.4491H84.315V19.3545H80.5291ZM80.5291 19.4491C80.5291 22.4232 82.1134 24.3367 84.0948 25.5611C85.9423 26.7029 88.2985 27.3495 90.1779 27.893L91.2295 24.256C89.181 23.6637 87.3964 23.1509 86.085 22.3406C84.9075 21.6129 84.315 20.7815 84.315 19.4491H80.5291ZM90.1905 27.8966C91.902 28.3787 93.2423 28.8148 94.157 29.3847C94.9751 29.8945 95.1995 30.3368 95.1995 30.9015H98.9854C98.9854 28.6269 97.6955 27.1289 96.1592 26.1716C94.7195 25.2745 92.8655 24.7168 91.217 24.2525L90.1905 27.8966ZM95.1995 30.9015V30.9962H98.9854V30.9015H95.1995ZM95.1995 30.9962C95.1995 31.7516 94.8776 32.3612 94.2586 32.8333C93.6039 33.3326 92.5757 33.6937 91.2716 33.6937V37.4796C93.2329 37.4796 95.1151 36.9414 96.5545 35.8436C98.0296 34.7185 98.9854 33.0329 98.9854 30.9962H95.1995ZM91.2716 33.6937C88.6846 33.6937 86.1458 32.7432 83.7642 30.9145L81.4585 33.9173C84.3772 36.1585 87.7065 37.4796 91.2716 37.4796V33.6937ZM81.0923 31.2864L79.7199 33.132L82.758 35.3911L84.1303 33.5454L81.0923 31.2864ZM80.0432 35.729C82.9313 38.0823 87.1854 39.6565 91.1296 39.6565V35.8706C88.0699 35.8706 84.6576 34.6053 82.4347 32.7941L80.0432 35.729ZM91.1296 39.6565C96.4324 39.6565 101.352 36.4078 101.352 30.7123H97.5657C97.5657 33.6297 95.1024 35.8706 91.1296 35.8706V39.6565ZM134.047 15.332V17.2249H135.94V15.332H134.047ZM134.047 12.7765H135.94V10.957L134.121 10.885L134.047 12.7765ZM123.351 20.017H121.458L125.084 20.7788L123.351 20.017ZM123.351 13.1551H125.244V11.2621H123.351V13.1551ZM121.032 13.1551V11.2621H119.14V13.1551H121.032ZM121.032 37.2903H119.14V39.1832H121.032V37.2903ZM123.351 37.2903V39.1832H125.244V37.2903H123.351ZM135.94 15.332V12.7765H132.154V15.332H135.94ZM134.121 10.885C128.403 10.6585 123.754 14.3963 121.618 19.2553L125.084 20.7788C126.734 17.0248 130.13 14.5158 133.972 14.6679L134.121 10.885ZM125.244 20.017V13.1551H121.458V20.017H125.244ZM123.351 11.2621H121.032V15.048H123.351V11.2621ZM119.14 13.1551V37.2903H122.925V13.1551H119.14ZM121.032 39.1832H123.351V35.3973H121.032V39.1832ZM125.244 37.2903V27.3996H121.458V37.2903H125.244ZM125.244 27.3996C125.244 23.8708 126.332 21.3451 127.865 19.7177C129.4 18.0879 131.504 17.2249 133.81 17.2249V13.439C130.532 13.439 127.407 14.6819 125.109 17.122C122.808 19.5644 121.458 23.0726 121.458 27.3996H125.244ZM133.81 17.2249H134.047V13.439H133.81V17.2249ZM139.583 26.1691V24.2762H137.552L137.695 26.303L139.583 26.1691ZM159.602 26.1691V28.0621H161.273L161.48 26.4039L159.602 26.1691ZM158.939 33.3151L160.326 34.6031L161.647 33.1803L160.191 31.8957L158.939 33.3151ZM157.33 31.8954L158.582 30.4759L157.202 29.258L155.946 30.6037L157.33 31.8954ZM139.583 24.0869L137.696 23.9366L137.534 25.9799H139.583V24.0869ZM157.141 24.0869V25.9799H159.167L159.029 23.9585L157.141 24.0869ZM139.583 28.0621H159.602V24.2762H139.583V28.0621ZM161.48 26.4039C161.541 25.9151 161.542 25.6858 161.542 25.3173H157.756C157.756 25.6113 157.757 25.666 157.723 25.9344L161.48 26.4039ZM161.542 25.3173V25.2227H157.756V25.3173H161.542ZM161.542 25.2227C161.542 21.2802 160.353 17.664 158.093 15.0004C155.81 12.3094 152.513 10.6942 148.575 10.6942V14.4801C151.405 14.4801 153.645 15.6097 155.206 17.45C156.791 19.3177 157.756 22.0193 157.756 25.2227H161.542ZM148.575 10.6942C140.818 10.6942 135.23 17.3163 135.23 25.1753H139.016C139.016 19.0265 143.271 14.4801 148.575 14.4801V10.6942ZM135.23 25.1753V25.27H139.016V25.1753H135.23ZM135.23 25.27C135.23 33.806 141.533 39.7511 148.954 39.7511V35.9652C143.691 35.9652 139.016 31.783 139.016 25.27H135.23ZM148.954 39.7511C154.253 39.7511 157.611 37.5269 160.326 34.6031L157.552 32.027C155.345 34.4035 152.929 35.9652 148.954 35.9652V39.7511ZM160.191 31.8957L158.582 30.4759L156.078 33.3148L157.687 34.7345L160.191 31.8957ZM155.946 30.6037C154.206 32.4684 152.119 33.7883 149.048 33.7883V37.5742C153.454 37.5742 156.479 35.5815 158.714 33.187L155.946 30.6037ZM149.048 33.7883C145.334 33.7883 141.829 31.079 141.472 26.0353L137.695 26.303C138.19 33.2796 143.298 37.5742 149.048 37.5742V33.7883ZM141.47 24.2372C141.838 19.6225 144.921 16.6097 148.48 16.6097V12.8238C142.48 12.8238 138.181 17.8561 137.696 23.9366L141.47 24.2372ZM148.48 16.6097C150.673 16.6097 152.224 17.4729 153.303 18.7794C154.424 20.137 155.106 22.0712 155.252 24.2152L159.029 23.9585C158.844 21.2282 157.964 18.4773 156.222 16.3685C154.438 14.2085 151.825 12.8238 148.48 12.8238V16.6097ZM157.141 22.1939H139.583V25.9799H157.141V22.1939ZM186.907 33.0784L188.327 34.3301L189.578 32.9108L188.159 31.659L186.907 33.0784ZM185.298 31.6587L186.55 30.2393L185.141 28.9963L183.888 30.3957L185.298 31.6587ZM185.061 18.7393L183.708 20.0627L185.065 21.4509L186.418 20.0588L185.061 18.7393ZM186.717 17.0356L188.075 18.3552L189.349 17.0439L188.083 15.7247L186.717 17.0356ZM188.159 31.659L186.55 30.2393L184.045 33.0781L185.654 34.4979L188.159 31.659ZM183.888 30.3957C182.066 32.4288 179.889 33.7883 177.205 33.7883V37.5742C181.336 37.5742 184.459 35.4317 186.708 32.9218L183.888 30.3957ZM177.205 33.7883C172.804 33.7883 169.16 30.091 169.16 25.2227H165.374C165.374 31.996 170.532 37.5742 177.205 37.5742V33.7883ZM169.16 25.2227V25.128H165.374V25.2227H169.16ZM169.16 25.128C169.16 20.2815 172.687 16.657 177.016 16.657V12.8711C170.366 12.8711 165.374 18.4275 165.374 25.128H169.16ZM177.016 16.657C179.839 16.657 181.74 18.0507 183.708 20.0627L186.415 17.4159C184.217 15.1688 181.386 12.8711 177.016 12.8711V16.657ZM186.418 20.0588L188.075 18.3552L185.36 15.7161L183.704 17.4197L186.418 20.0588ZM188.083 15.7247C185.618 13.1568 182.318 10.6942 177.063 10.6942V14.4801C180.895 14.4801 183.274 16.1821 185.352 18.3466L188.083 15.7247ZM177.063 10.6942C169.03 10.6942 162.866 17.4901 162.866 25.2227H166.652C166.652 19.4206 171.278 14.4801 177.063 14.4801V10.6942ZM162.866 25.2227V25.3173H166.652V25.2227H162.866ZM162.866 25.3173C162.866 33.0638 168.996 39.7511 177.063 39.7511V35.9652C171.217 35.9652 166.652 31.1055 166.652 25.3173H162.866ZM177.063 39.7511C182.217 39.7511 185.63 37.3903 188.327 34.3301L185.487 31.8268C183.262 34.3509 180.806 35.9652 177.063 35.9652V39.7511ZM217.792 25.2227V25.128H214.006V25.2227H217.792ZM217.792 25.128C217.792 17.3914 211.814 10.6942 203.548 10.6942V14.4801C209.574 14.4801 214.006 19.33 214.006 25.128H217.792ZM203.548 10.6942C195.231 10.6942 189.209 17.4901 189.209 25.2227H192.994C192.994 19.4206 197.478 14.4801 203.548 14.4801V10.6942ZM189.209 25.2227V25.3173H192.994V25.2227H189.209ZM189.209 25.3173C189.209 33.054 195.187 39.7511 203.453 39.7511V35.9652C197.427 35.9652 192.994 31.1153 192.994 25.3173H189.209ZM203.453 39.7511C211.77 39.7511 217.792 32.9553 217.792 25.2227H214.006C214.006 31.0247 209.522 35.9652 203.453 35.9652V39.7511ZM211.498 25.3173C211.498 30.0871 208.097 33.7883 203.548 33.7883V37.5742C210.451 37.5742 215.284 31.9053 215.284 25.3173H211.498ZM203.548 33.7883C199.105 33.7883 195.503 30.0971 195.503 25.2227H191.717C191.717 31.99 196.822 37.5742 203.548 37.5742V33.7883ZM195.503 25.2227V25.128H191.717V25.2227H195.503ZM195.503 25.128C195.503 20.3583 198.904 16.657 203.453 16.657V12.8711C196.55 12.8711 191.717 18.54 191.717 25.128H195.503ZM203.453 16.657C207.896 16.657 211.498 20.3483 211.498 25.2227H215.284C215.284 18.4554 210.179 12.8711 203.453 12.8711V16.657ZM211.498 25.2227V25.3173H215.284V25.2227H211.498ZM259.515 37.2903V39.1832H261.408V37.2903H259.515ZM241.532 17.7928L239.822 18.6044L241.366 21.8579L243.17 18.7412L241.532 17.7928ZM225.347 17.4615H223.454V24.0831L226.954 18.4621L225.347 17.4615ZM225.347 13.1551H227.24V11.2621H225.347V13.1551ZM223.029 13.1551V11.2621H221.136V13.1551H223.029ZM223.029 37.2903H221.136V39.1832H223.029V37.2903ZM225.347 37.2903V39.1832H227.24V37.2903H225.347ZM240.113 37.2903H238.22V39.1832H240.113V37.2903ZM242.431 37.2903V39.1832H244.324V37.2903H242.431ZM257.196 37.2903H255.304V39.1832H257.196V37.2903ZM261.408 37.2903V22.6672H257.622V37.2903H261.408ZM261.408 22.6672C261.408 19.2755 260.411 16.2658 258.425 14.082C256.421 11.8782 253.57 10.6942 250.24 10.6942V14.4801C252.636 14.4801 254.422 15.3074 255.624 16.6292C256.845 17.9711 257.622 20.0014 257.622 22.6672H261.408ZM250.24 10.6942C244.816 10.6942 241.677 13.7651 239.894 16.8444L243.17 18.7412C244.511 16.4256 246.578 14.4801 250.24 14.4801V10.6942ZM243.242 16.9812C241.675 13.6778 238.487 10.6942 233.393 10.6942V14.4801C236.722 14.4801 238.74 16.3236 239.822 18.6044L243.242 16.9812ZM233.393 10.6942C230.86 10.6942 228.855 11.4001 227.247 12.5391C225.674 13.6532 224.58 15.1121 223.741 16.461L226.954 18.4621C227.676 17.3028 228.452 16.3245 229.435 15.6285C230.382 14.9574 231.618 14.4801 233.393 14.4801V10.6942ZM227.24 17.4615V13.1551H223.454V17.4615H227.24ZM225.347 11.2621H223.029V15.048H225.347V11.2621ZM221.136 13.1551V37.2903H224.922V13.1551H221.136ZM223.029 39.1832H225.347V35.3973H223.029V39.1832ZM227.24 37.2903V23.377H223.454V37.2903H227.24ZM227.24 23.377C227.24 19.3421 229.995 16.6097 233.061 16.6097V12.8238C227.515 12.8238 223.454 17.6632 223.454 23.377H227.24ZM233.061 16.6097C234.736 16.6097 235.955 17.1914 236.779 18.13C237.626 19.0963 238.22 20.6338 238.22 22.8091H242.005C242.005 19.9681 241.226 17.4595 239.625 15.6336C237.999 13.7801 235.693 12.8238 233.061 12.8238V16.6097ZM238.22 22.8091V37.2903H242.005V22.8091H238.22ZM240.113 39.1832H242.431V35.3973H240.113V39.1832ZM244.324 37.2903V23.2351H240.538V37.2903H244.324ZM244.324 23.2351C244.324 18.8108 247.099 16.6097 250.051 16.6097V12.8238C244.862 12.8238 240.538 16.8695 240.538 23.2351H244.324ZM250.051 16.6097C251.821 16.6097 253.052 17.1957 253.866 18.1275C254.71 19.0925 255.304 20.6571 255.304 22.9511H259.089C259.089 20.0395 258.335 17.4869 256.717 15.6361C255.07 13.7521 252.729 12.8238 250.051 12.8238V16.6097ZM255.304 22.9511V37.2903H259.089V22.9511H255.304ZM257.196 39.1832H259.515V35.3973H257.196V39.1832ZM304.529 37.2903V39.1832H306.422V37.2903H304.529ZM286.545 17.7928L284.835 18.6044L286.379 21.8579L288.184 18.7412L286.545 17.7928ZM270.361 17.4615H268.468V24.0831L271.968 18.4621L270.361 17.4615ZM270.361 13.1551H272.254V11.2621H270.361V13.1551ZM268.042 13.1551V11.2621H266.149V13.1551H268.042ZM268.042 37.2903H266.149V39.1832H268.042V37.2903ZM270.361 37.2903V39.1832H272.254V37.2903H270.361ZM285.126 37.2903H283.233V39.1832H285.126V37.2903ZM287.445 37.2903V39.1832H289.338V37.2903H287.445ZM302.21 37.2903H300.317V39.1832H302.21V37.2903ZM306.422 37.2903V22.6672H302.636V37.2903H306.422ZM306.422 22.6672C306.422 19.2755 305.424 16.2658 303.439 14.082C301.434 11.8782 298.583 10.6942 295.253 10.6942V14.4801C297.649 14.4801 299.436 15.3074 300.638 16.6292C301.858 17.9711 302.636 20.0014 302.636 22.6672H306.422ZM295.253 10.6942C289.829 10.6942 286.69 13.7651 284.907 16.8444L288.184 18.7412C289.524 16.4256 291.591 14.4801 295.253 14.4801V10.6942ZM288.256 16.9812C286.688 13.6778 283.5 10.6942 278.406 10.6942V14.4801C281.735 14.4801 283.753 16.3236 284.835 18.6044L288.256 16.9812ZM278.406 10.6942C275.873 10.6942 273.868 11.4001 272.26 12.5391C270.687 13.6532 269.594 15.1121 268.754 16.461L271.968 18.4621C272.689 17.3028 273.465 16.3245 274.448 15.6285C275.396 14.9574 276.632 14.4801 278.406 14.4801V10.6942ZM272.254 17.4615V13.1551H268.468V17.4615H272.254ZM270.361 11.2621H268.042V15.048H270.361V11.2621ZM266.149 13.1551V37.2903H269.935V13.1551H266.149ZM268.042 39.1832H270.361V35.3973H268.042V39.1832ZM272.254 37.2903V23.377H268.468V37.2903H272.254ZM272.254 23.377C272.254 19.3421 275.008 16.6097 278.074 16.6097V12.8238C272.528 12.8238 268.468 17.6632 268.468 23.377H272.254ZM278.074 16.6097C279.749 16.6097 280.969 17.1914 281.792 18.13C282.639 19.0963 283.233 20.6338 283.233 22.8091H287.019C287.019 19.9681 286.24 17.4595 284.638 15.6336C283.012 13.7801 280.706 12.8238 278.074 12.8238V16.6097ZM283.233 22.8091V37.2903H287.019V22.8091H283.233ZM285.126 39.1832H287.445V35.3973H285.126V39.1832ZM289.338 37.2903V23.2351H285.552V37.2903H289.338ZM289.338 23.2351C289.338 18.8108 292.113 16.6097 295.064 16.6097V12.8238C289.875 12.8238 285.552 16.8695 285.552 23.2351H289.338ZM295.064 16.6097C296.834 16.6097 298.065 17.1957 298.88 18.1275C299.723 19.0925 300.317 20.6571 300.317 22.9511H304.103C304.103 20.0395 303.348 17.4869 301.73 15.6361C300.084 13.7521 297.742 12.8238 295.064 12.8238V16.6097ZM300.317 22.9511V37.2903H304.103V22.9511H300.317ZM302.21 39.1832H304.529V35.3973H302.21V39.1832ZM313.86 26.1691V24.2762H311.828L311.971 26.303L313.86 26.1691ZM333.878 26.1691V28.0621H335.549L335.756 26.4039L333.878 26.1691ZM333.215 33.3151L334.602 34.6031L335.923 33.1803L334.467 31.8957L333.215 33.3151ZM331.606 31.8954L332.858 30.4759L331.478 29.258L330.222 30.6037L331.606 31.8954ZM313.86 24.0869L311.973 23.9366L311.81 25.9799H313.86V24.0869ZM331.417 24.0869V25.9799H333.443L333.305 23.9585L331.417 24.0869ZM313.86 28.0621H333.878V24.2762H313.86V28.0621ZM335.756 26.4039C335.817 25.9151 335.818 25.6858 335.818 25.3173H332.032C332.032 25.6113 332.033 25.666 331.999 25.9344L335.756 26.4039ZM335.818 25.3173V25.2227H332.032V25.3173H335.818ZM335.818 25.2227C335.818 21.2802 334.629 17.664 332.369 15.0004C330.086 12.3094 326.789 10.6942 322.851 10.6942V14.4801C325.681 14.4801 327.921 15.6097 329.482 17.45C331.067 19.3177 332.032 22.0193 332.032 25.2227H335.818ZM322.851 10.6942C315.094 10.6942 309.506 17.3163 309.506 25.1753H313.292C313.292 19.0265 317.547 14.4801 322.851 14.4801V10.6942ZM309.506 25.1753V25.27H313.292V25.1753H309.506ZM309.506 25.27C309.506 33.806 315.809 39.7511 323.23 39.7511V35.9652C317.967 35.9652 313.292 31.783 313.292 25.27H309.506ZM323.23 39.7511C328.529 39.7511 331.887 37.5269 334.602 34.6031L331.828 32.027C329.621 34.4035 327.205 35.9652 323.23 35.9652V39.7511ZM334.467 31.8957L332.858 30.4759L330.354 33.3148L331.963 34.7345L334.467 31.8957ZM330.222 30.6037C328.482 32.4684 326.395 33.7883 323.324 33.7883V37.5742C327.73 37.5742 330.755 35.5815 332.99 33.187L330.222 30.6037ZM323.324 33.7883C319.61 33.7883 316.105 31.079 315.748 26.0353L311.971 26.303C312.466 33.2796 317.574 37.5742 323.324 37.5742V33.7883ZM315.747 24.2372C316.114 19.6225 319.197 16.6097 322.756 16.6097V12.8238C316.756 12.8238 312.457 17.8561 311.973 23.9366L315.747 24.2372ZM322.756 16.6097C324.949 16.6097 326.5 17.4729 327.579 18.7794C328.701 20.137 329.382 22.0712 329.528 24.2152L333.305 23.9585C333.12 21.2282 332.24 18.4773 330.498 16.3685C328.714 14.2085 326.101 12.8238 322.756 12.8238V16.6097ZM331.417 22.1939H313.86V25.9799H331.417V22.1939ZM361.372 37.2903V39.1832H363.265V37.2903H361.372ZM343.01 17.6508H341.117V24.8309L344.657 18.5841L343.01 17.6508ZM343.01 13.1551H344.903V11.2621H343.01V13.1551ZM340.691 13.1551V11.2621H338.799V13.1551H340.691ZM340.691 37.2903H338.799V39.1832H340.691V37.2903ZM343.01 37.2903V39.1832H344.903V37.2903H343.01ZM359.053 37.2903H357.16V39.1832H359.053V37.2903ZM363.265 37.2903V22.5252H359.479V37.2903H363.265ZM363.265 22.5252C363.265 19.2546 362.256 16.2757 360.216 14.0974C358.161 11.9023 355.221 10.6942 351.718 10.6942V14.4801C354.319 14.4801 356.207 15.3543 357.452 16.6849C358.714 18.0322 359.479 20.0223 359.479 22.5252H363.265ZM351.718 10.6942C346.52 10.6942 343.247 13.3928 341.363 16.7176L344.657 18.5841C345.991 16.23 348.114 14.4801 351.718 14.4801V10.6942ZM344.903 17.6508V13.1551H341.117V17.6508H344.903ZM343.01 11.2621H340.691V15.048H343.01V11.2621ZM338.799 13.1551V37.2903H342.584V13.1551H338.799ZM340.691 39.1832H343.01V35.3973H340.691V39.1832ZM344.903 37.2903V23.3297H341.117V37.2903H344.903ZM344.903 23.3297C344.903 19.3308 347.728 16.6097 351.387 16.6097V12.8238C345.581 12.8238 341.117 17.2959 341.117 23.3297H344.903ZM351.387 16.6097C353.381 16.6097 354.755 17.2631 355.647 18.2442C356.561 19.249 357.16 20.81 357.16 22.9511H360.946C360.946 20.1232 360.149 17.567 358.448 15.6969C356.726 13.8031 354.267 12.8238 351.387 12.8238V16.6097ZM357.16 22.9511V37.2903H360.946V22.9511H357.16ZM359.053 39.1832H361.372V35.3973H359.053V39.1832ZM392.146 37.2903V39.1832H394.039V37.2903H392.146ZM392.146 2.74378H394.039V0.850825H392.146V2.74378ZM389.827 2.74378V0.850825H387.934V2.74378H389.827ZM389.827 18.3607L388.244 19.3993L391.72 24.6954V18.3607H389.827ZM389.827 31.8954H391.72V25.5644L388.245 30.8563L389.827 31.8954ZM389.827 37.2903H387.934V39.1832H389.827V37.2903ZM394.039 37.2903V2.74378H390.253V37.2903H394.039ZM392.146 0.850825H389.827V4.63674H392.146V0.850825ZM387.934 2.74378V18.3607H391.72V2.74378H387.934ZM391.41 17.3221C389.212 13.9739 385.573 10.6942 379.889 10.6942V14.4801C383.859 14.4801 386.467 16.69 388.244 19.3993L391.41 17.3221ZM379.889 10.6942C373.047 10.6942 366.26 16.2974 366.26 25.2227H370.046C370.046 18.4363 375.089 14.4801 379.889 14.4801V10.6942ZM366.26 25.2227V25.3173H370.046V25.2227H366.26ZM366.26 25.3173C366.26 34.2619 373.067 39.7511 379.889 39.7511V35.9652C375.07 35.9652 370.046 32.0843 370.046 25.3173H366.26ZM379.889 39.7511C385.56 39.7511 389.144 36.3841 391.409 32.9344L388.245 30.8563C386.346 33.748 383.778 35.9652 379.889 35.9652V39.7511ZM387.934 31.8954V37.2903H391.72V31.8954H387.934ZM389.827 39.1832H392.146V35.3973H389.827V39.1832ZM388.076 25.27C388.076 30.3651 384.108 33.741 380.126 33.741V37.5269C386.176 37.5269 391.862 32.4791 391.862 25.27H388.076ZM380.126 33.741C376.184 33.741 372.554 30.5969 372.554 25.2227H368.768C368.768 32.5312 373.94 37.5269 380.126 37.5269V33.741ZM372.554 25.2227V25.128H368.768V25.2227H372.554ZM372.554 25.128C372.554 22.3064 373.462 20.2219 374.785 18.854C376.109 17.4837 377.97 16.7044 380.126 16.7044V12.9184C377.028 12.9184 374.157 14.0557 372.062 16.2229C369.965 18.3924 368.768 21.4663 368.768 25.128H372.554ZM380.126 16.7044C384.114 16.7044 388.076 20.0387 388.076 25.1753H391.862C391.862 17.9131 386.17 12.9184 380.126 12.9184V16.7044ZM388.076 25.1753V25.27H391.862V25.1753H388.076ZM401.76 26.1691V24.2762H399.728L399.872 26.303L401.76 26.1691ZM421.778 26.1691V28.0621H423.449L423.656 26.4039L421.778 26.1691ZM421.116 33.3151L422.503 34.6031L423.824 33.1803L422.368 31.8957L421.116 33.3151ZM419.507 31.8954L420.759 30.4759L419.379 29.258L418.123 30.6037L419.507 31.8954ZM401.76 24.0869L399.873 23.9366L399.71 25.9799H401.76V24.0869ZM419.317 24.0869V25.9799H421.343L421.206 23.9585L419.317 24.0869ZM401.76 28.0621H421.778V24.2762H401.76V28.0621ZM423.656 26.4039C423.718 25.9151 423.718 25.6858 423.718 25.3173H419.933C419.933 25.6113 419.933 25.666 419.9 25.9344L423.656 26.4039ZM423.718 25.3173V25.2227H419.933V25.3173H423.718ZM423.718 25.2227C423.718 21.2802 422.53 17.664 420.27 15.0004C417.986 12.3094 414.689 10.6942 410.752 10.6942V14.4801C413.581 14.4801 415.821 15.6097 417.383 17.45C418.968 19.3177 419.933 22.0193 419.933 25.2227H423.718ZM410.752 10.6942C402.995 10.6942 397.406 17.3163 397.406 25.1753H401.192C401.192 19.0265 405.447 14.4801 410.752 14.4801V10.6942ZM397.406 25.1753V25.27H401.192V25.1753H397.406ZM397.406 25.27C397.406 33.806 403.71 39.7511 411.13 39.7511V35.9652C405.868 35.9652 401.192 31.783 401.192 25.27H397.406ZM411.13 39.7511C416.43 39.7511 419.788 37.5269 422.503 34.6031L419.728 32.027C417.522 34.4035 415.106 35.9652 411.13 35.9652V39.7511ZM422.368 31.8957L420.759 30.4759L418.254 33.3148L419.863 34.7345L422.368 31.8957ZM418.123 30.6037C416.382 32.4684 414.296 33.7883 411.225 33.7883V37.5742C415.631 37.5742 418.656 35.5815 420.89 33.187L418.123 30.6037ZM411.225 33.7883C407.51 33.7883 404.006 31.079 403.648 26.0353L399.872 26.303C400.366 33.2796 405.475 37.5742 411.225 37.5742V33.7883ZM403.647 24.2372C404.015 19.6225 407.098 16.6097 410.657 16.6097V12.8238C404.657 12.8238 400.357 17.8561 399.873 23.9366L403.647 24.2372ZM410.657 16.6097C412.85 16.6097 414.401 17.4729 415.48 18.7794C416.601 20.137 417.283 22.0712 417.429 24.2152L421.206 23.9585C421.02 21.2282 420.141 18.4773 418.399 16.3685C416.615 14.2085 414.001 12.8238 410.657 12.8238V16.6097ZM419.317 22.1939H401.76V25.9799H419.317V22.1939ZM451.024 37.2903V39.1832H452.917V37.2903H451.024ZM451.024 2.74378H452.917V0.850825H451.024V2.74378ZM448.705 2.74378V0.850825H446.812V2.74378H448.705ZM448.705 18.3607L447.122 19.3993L450.598 24.6954V18.3607H448.705ZM448.705 31.8954H450.598V25.5644L447.122 30.8563L448.705 31.8954ZM448.705 37.2903H446.812V39.1832H448.705V37.2903ZM452.917 37.2903V2.74378H449.131V37.2903H452.917ZM451.024 0.850825H448.705V4.63674H451.024V0.850825ZM446.812 2.74378V18.3607H450.598V2.74378H446.812ZM450.287 17.3221C448.09 13.9739 444.451 10.6942 438.767 10.6942V14.4801C442.737 14.4801 445.344 16.69 447.122 19.3993L450.287 17.3221ZM438.767 10.6942C431.925 10.6942 425.137 16.2974 425.137 25.2227H428.923C428.923 18.4363 433.967 14.4801 438.767 14.4801V10.6942ZM425.137 25.2227V25.3173H428.923V25.2227H425.137ZM425.137 25.3173C425.137 34.2619 431.944 39.7511 438.767 39.7511V35.9652C433.947 35.9652 428.923 32.0843 428.923 25.3173H425.137ZM438.767 39.7511C444.438 39.7511 448.022 36.3841 450.287 32.9344L447.122 30.8563C445.223 33.748 442.655 35.9652 438.767 35.9652V39.7511ZM446.812 31.8954V37.2903H450.598V31.8954H446.812ZM448.705 39.1832H451.024V35.3973H448.705V39.1832ZM446.954 25.27C446.954 30.3651 442.986 33.741 439.003 33.741V37.5269C445.054 37.5269 450.74 32.4791 450.74 25.27H446.954ZM439.003 33.741C435.062 33.741 431.432 30.5969 431.432 25.2227H427.646C427.646 32.5312 432.818 37.5269 439.003 37.5269V33.741ZM431.432 25.2227V25.128H427.646V25.2227H431.432ZM431.432 25.128C431.432 22.3064 432.34 20.2219 433.662 18.854C434.987 17.4837 436.848 16.7044 439.003 16.7044V12.9184C435.906 12.9184 433.035 14.0557 430.94 16.2229C428.843 18.3924 427.646 21.4663 427.646 25.128H431.432ZM439.003 16.7044C442.992 16.7044 446.954 20.0387 446.954 25.1753H450.74C450.74 17.9131 445.048 12.9184 439.003 12.9184V16.7044ZM446.954 25.1753V25.27H450.74V25.1753H446.954Z" fill="white"/>
</svg>
