<svg width="473" height="24" viewBox="0 0 473 24" fill="none" xmlns="http://www.w3.org/2000/svg">
<path d="M18.0457 22.5549V2.67886H16.626V19.971L2.91149 2.67886H1.52017V22.5549H2.93989V4.89362L16.9383 22.5549H18.0457ZM35.7649 22.5549V8.0738H34.3736V16.4501C34.3736 19.4599 32.1872 21.6179 29.3478 21.6179C26.4232 21.6179 24.7479 19.6587 24.7479 16.6773V8.0738H23.3566V16.9328C23.3566 20.397 25.4861 22.8957 29.149 22.8957C31.7897 22.8957 33.4082 21.5611 34.3736 19.8575V22.5549H35.7649ZM62.9463 22.5549V13.7811C62.9463 10.1466 60.8167 7.73306 57.381 7.73306C54.6552 7.73306 53.0935 9.23797 52.1564 10.8564C51.3614 9.18118 49.7997 7.73306 47.2726 7.73306C44.6887 7.73306 43.3826 9.15278 42.4456 10.6577V8.0738H41.0542V22.5549H42.4456V14.207C42.4456 11.2824 44.49 9.01081 47.0739 9.01081C49.6577 9.01081 51.3046 10.8564 51.3046 13.8662V22.5549H52.6959V14.1218C52.6959 10.8848 54.8255 9.01081 57.2674 9.01081C59.9365 9.01081 61.555 10.8281 61.555 13.9514V22.5549H62.9463ZM82.4581 15.3144V15.2576C82.4581 10.5441 78.9088 7.73306 75.4163 7.73306C72.5485 7.73306 70.7029 9.40833 69.4535 11.3108V1.82703H68.0622V22.5549H69.4535V19.4315C70.6461 21.2488 72.5201 22.8957 75.4163 22.8957C78.9088 22.8957 82.4581 20.0278 82.4581 15.3144ZM80.9532 15.3712C80.9532 19.2612 78.4261 21.5611 75.2744 21.5611C72.2646 21.5611 69.3683 19.0624 69.3683 15.3428V15.286C69.3683 11.5947 72.2646 9.0676 75.2744 9.0676C78.3126 9.0676 80.9532 11.5095 80.9532 15.3144V15.3712ZM87.2896 15.8823H99.3004C99.3288 15.6551 99.3288 15.5699 99.3288 15.3712V15.3144C99.3288 11.0268 96.7449 7.73306 92.6846 7.73306C88.7661 7.73306 85.8131 11.0836 85.8131 15.286V15.3428C85.8131 19.8575 89.1069 22.8957 92.9117 22.8957C95.6944 22.8957 97.4264 21.7599 98.9029 20.1698L97.9375 19.318C96.7449 20.5957 95.2117 21.5895 92.9685 21.5895C90.1291 21.5895 87.5452 19.4883 87.2896 15.8823ZM87.2896 14.6329C87.5452 11.4243 89.7599 9.01081 92.6278 9.01081C95.9499 9.01081 97.6252 11.7083 97.8239 14.6329H87.2896ZM111.197 9.37994V7.84664C108.329 7.73306 105.916 9.60709 104.78 12.191V8.0738H103.389V22.5549H104.78V16.6205C104.78 11.907 107.705 9.37994 111.055 9.37994H111.197ZM137.155 15.3144V15.2576C137.155 11.1972 134.032 7.73306 129.744 7.73306C125.428 7.73306 122.277 11.254 122.277 15.3144V15.3712C122.277 19.4315 125.4 22.8957 129.688 22.8957C134.003 22.8957 137.155 19.3748 137.155 15.3144ZM135.65 15.3712C135.65 18.7785 133.18 21.5895 129.744 21.5895C126.394 21.5895 123.782 18.8069 123.782 15.3144V15.2576C123.782 11.8502 126.252 9.03921 129.688 9.03921C133.038 9.03921 135.65 11.8219 135.65 15.3144V15.3712ZM148.759 3.38872V2.08258C148.106 1.85543 147.481 1.74185 146.601 1.74185C143.875 1.74185 142.285 3.53069 142.285 6.65408V8.0738H140.183V9.35154H142.285V22.5549H143.676V9.35154H148.73V8.0738H143.676V6.68247C143.676 4.21216 144.613 3.0196 146.601 3.0196C147.339 3.0196 147.935 3.13317 148.759 3.38872ZM167.417 22.2994V20.9932C166.593 21.3624 165.997 21.5043 165.287 21.5043C163.612 21.5043 162.391 20.7661 162.391 18.6933V9.35154H167.474V8.0738H162.391V3.44551H161V8.0738H158.898V9.35154H161V18.8353C161 21.5895 162.817 22.8105 165.06 22.8105C165.969 22.8105 166.679 22.6401 167.417 22.2994ZM184.01 22.5549V13.6959C184.01 10.2318 181.881 7.73306 178.218 7.73306C175.577 7.73306 173.959 9.0676 172.993 10.7713V1.82703H171.602V22.5549H172.993V14.1786C172.993 11.1688 175.18 9.01081 178.019 9.01081C180.944 9.01081 182.619 10.97 182.619 13.9514V22.5549H184.01ZM189.498 15.8823H201.509C201.538 15.6551 201.538 15.5699 201.538 15.3712V15.3144C201.538 11.0268 198.954 7.73306 194.893 7.73306C190.975 7.73306 188.022 11.0836 188.022 15.286V15.3428C188.022 19.8575 191.316 22.8957 195.12 22.8957C197.903 22.8957 199.635 21.7599 201.112 20.1698L200.146 19.318C198.954 20.5957 197.42 21.5895 195.177 21.5895C192.338 21.5895 189.754 19.4883 189.498 15.8823ZM189.498 14.6329C189.754 11.4243 191.969 9.01081 194.836 9.01081C198.159 9.01081 199.834 11.7083 200.033 14.6329H189.498ZM230.181 17.1316V17.0748C230.181 14.3206 228.08 12.9576 225.695 12.333C227.314 11.6799 229.074 10.317 229.074 7.61949V7.5627C229.074 4.58129 226.49 2.67886 222.629 2.67886H214.423V22.5549H223.054C227.342 22.5549 230.181 20.4537 230.181 17.1316ZM227.569 7.76146C227.569 10.4021 225.44 11.8502 222.458 11.8502H215.899V4.04179H222.6C225.78 4.04179 227.569 5.5183 227.569 7.70467V7.76146ZM228.677 17.1316C228.677 19.6303 226.519 21.192 223.111 21.192H215.899V13.2132H222.629C226.547 13.2132 228.677 14.6329 228.677 17.0748V17.1316ZM235.085 15.8823H247.095C247.124 15.6551 247.124 15.5699 247.124 15.3712V15.3144C247.124 11.0268 244.54 7.73306 240.48 7.73306C236.561 7.73306 233.608 11.0836 233.608 15.286V15.3428C233.608 19.8575 236.902 22.8957 240.707 22.8957C243.489 22.8957 245.221 21.7599 246.698 20.1698L245.732 19.318C244.54 20.5957 243.007 21.5895 240.763 21.5895C237.924 21.5895 235.34 19.4883 235.085 15.8823ZM235.085 14.6329C235.34 11.4243 237.555 9.01081 240.423 9.01081C243.745 9.01081 245.42 11.7083 245.619 14.6329H235.085ZM262.485 22.5549V13.5255C262.485 9.77746 260.156 7.84664 256.437 7.84664C254.449 7.84664 252.887 8.35774 251.297 9.09599L251.808 10.317C253.143 9.63549 254.591 9.15278 256.352 9.15278C259.333 9.15278 261.122 10.6577 261.122 13.5823V14.207C259.73 13.8379 258.339 13.5823 256.323 13.5823C252.575 13.5823 249.991 15.286 249.991 18.2958V18.3526C249.991 21.3624 252.887 22.8957 255.585 22.8957C258.339 22.8957 260.128 21.5327 261.122 20.1414V22.5549H262.485ZM261.15 17.1316C261.15 19.7723 258.623 21.5895 255.67 21.5895C253.455 21.5895 251.468 20.3686 251.468 18.2674V18.2106C251.468 16.1946 253.171 14.8317 256.238 14.8317C258.311 14.8317 259.929 15.1724 261.15 15.4847V17.1316ZM277.171 18.6081V18.5513C277.171 15.9958 274.729 15.144 272.401 14.4909C270.328 13.8946 268.369 13.2984 268.369 11.6799V11.6231C268.369 10.175 269.675 9.09599 271.662 9.09599C273.196 9.09599 274.786 9.66388 276.12 10.5441L276.858 9.37994C275.41 8.41453 273.451 7.78985 271.719 7.78985C268.908 7.78985 266.949 9.46512 266.949 11.7935V11.8502C266.949 14.4341 269.561 15.144 271.918 15.8255C273.934 16.3934 275.751 17.018 275.751 18.7217V18.7785C275.751 20.4537 274.218 21.5327 272.259 21.5327C270.413 21.5327 268.653 20.8513 267.062 19.6303L266.239 20.7377C267.772 21.987 270.072 22.8389 272.173 22.8389C274.956 22.8389 277.171 21.192 277.171 18.6081ZM288.509 22.2994V20.9932C287.685 21.3624 287.089 21.5043 286.379 21.5043C284.704 21.5043 283.483 20.7661 283.483 18.6933V9.35154H288.566V8.0738H283.483V3.44551H282.092V8.0738H279.991V9.35154H282.092V18.8353C282.092 21.5895 283.909 22.8105 286.152 22.8105C287.061 22.8105 287.771 22.6401 288.509 22.2994ZM299.651 14.9168V13.3268H292.041V14.9168H299.651ZM314.785 22.5549V2.67886H313.308V22.5549H314.785ZM328.398 9.37994V7.84664C325.53 7.73306 323.116 9.60709 321.98 12.191V8.0738H320.589V22.5549H321.98V16.6205C321.98 11.907 324.905 9.37994 328.256 9.37994H328.398ZM345.122 15.3144V15.2576C345.122 11.1972 341.999 7.73306 337.711 7.73306C333.395 7.73306 330.243 11.254 330.243 15.3144V15.3712C330.243 19.4315 333.367 22.8957 337.654 22.8957C341.97 22.8957 345.122 19.3748 345.122 15.3144ZM343.617 15.3712C343.617 18.7785 341.147 21.5895 337.711 21.5895C334.36 21.5895 331.748 18.8069 331.748 15.3144V15.2576C331.748 11.8502 334.218 9.03921 337.654 9.03921C341.005 9.03921 343.617 11.8219 343.617 15.3144V15.3712ZM361.808 22.5549V13.6959C361.808 10.2318 359.678 7.73306 356.015 7.73306C353.375 7.73306 351.756 9.0676 350.791 10.7713V8.0738H349.399V22.5549H350.791V14.1786C350.791 11.1688 352.977 9.01081 355.817 9.01081C358.741 9.01081 360.416 10.97 360.416 13.9514V22.5549H361.808ZM394.379 22.5549V2.67886H392.987L385.008 14.4341L377.03 2.67886H375.638V22.5549H377.058V5.29115L384.923 16.7341H385.037L392.902 5.29115V22.5549H394.379ZM411.278 22.5549V13.5255C411.278 9.77746 408.95 7.84664 405.23 7.84664C403.242 7.84664 401.681 8.35774 400.091 9.09599L400.602 10.317C401.936 9.63549 403.384 9.15278 405.145 9.15278C408.126 9.15278 409.915 10.6577 409.915 13.5823V14.207C408.524 13.8379 407.132 13.5823 405.116 13.5823C401.368 13.5823 398.784 15.286 398.784 18.2958V18.3526C398.784 21.3624 401.681 22.8957 404.378 22.8957C407.132 22.8957 408.921 21.5327 409.915 20.1414V22.5549H411.278ZM409.943 17.1316C409.943 19.7723 407.416 21.5895 404.463 21.5895C402.249 21.5895 400.261 20.3686 400.261 18.2674V18.2106C400.261 16.1946 401.965 14.8317 405.031 14.8317C407.104 14.8317 408.722 15.1724 409.943 15.4847V17.1316ZM418.042 4.29734V2.39492H416.31V4.29734H418.042ZM417.872 22.5549V8.0738H416.48V22.5549H417.872ZM436.811 22.5549V1.82703H435.42V11.1972C434.227 9.37994 432.353 7.73306 429.457 7.73306C425.965 7.73306 422.415 10.6009 422.415 15.3144V15.3712C422.415 20.0846 425.965 22.8957 429.457 22.8957C432.325 22.8957 434.171 21.2204 435.42 19.318V22.5549H436.811ZM435.505 15.3428C435.505 19.034 432.609 21.5611 429.599 21.5611C426.561 21.5611 423.92 19.1192 423.92 15.3144V15.2576C423.92 11.3675 426.447 9.0676 429.599 9.0676C432.609 9.0676 435.505 11.5663 435.505 15.286V15.3428ZM442.58 15.8823H454.591C454.619 15.6551 454.619 15.5699 454.619 15.3712V15.3144C454.619 11.0268 452.035 7.73306 447.975 7.73306C444.056 7.73306 441.103 11.0836 441.103 15.286V15.3428C441.103 19.8575 444.397 22.8957 448.202 22.8957C450.985 22.8957 452.717 21.7599 454.193 20.1698L453.228 19.318C452.035 20.5957 450.502 21.5895 448.259 21.5895C445.419 21.5895 442.835 19.4883 442.58 15.8823ZM442.58 14.6329C442.835 11.4243 445.05 9.01081 447.918 9.01081C451.24 9.01081 452.915 11.7083 453.114 14.6329H442.58ZM471.087 22.5549V13.6959C471.087 10.2318 468.958 7.73306 465.295 7.73306C462.654 7.73306 461.036 9.0676 460.07 10.7713V8.0738H458.679V22.5549H460.07V14.1786C460.07 11.1688 462.257 9.01081 465.096 9.01081C468.021 9.01081 469.696 10.97 469.696 13.9514V22.5549H471.087Z" fill="white"/>
<path d="M18.0457 22.5549V23.5014H18.9922V22.5549H18.0457ZM18.0457 2.67886H18.9922V1.73238H18.0457V2.67886ZM16.626 2.67886V1.73238H15.6795V2.67886H16.626ZM16.626 19.971L15.8844 20.5592L17.5725 22.6876V19.971H16.626ZM2.91149 2.67886L3.65306 2.09073L3.36886 1.73238H2.91149V2.67886ZM1.52017 2.67886V1.73238H0.57369V2.67886H1.52017ZM1.52017 22.5549H0.57369V23.5014H1.52017V22.5549ZM2.93989 22.5549V23.5014H3.88637V22.5549H2.93989ZM2.93989 4.89362L3.68163 4.30571L1.99341 2.17574V4.89362H2.93989ZM16.9383 22.5549L16.1966 23.1428L16.4808 23.5014H16.9383V22.5549ZM18.9922 22.5549V2.67886H17.0992V22.5549H18.9922ZM18.0457 1.73238H16.626V3.62534H18.0457V1.73238ZM15.6795 2.67886V19.971H17.5725V2.67886H15.6795ZM17.3675 19.3829L3.65306 2.09073L2.16993 3.267L15.8844 20.5592L17.3675 19.3829ZM2.91149 1.73238H1.52017V3.62534H2.91149V1.73238ZM0.57369 2.67886V22.5549H2.46665V2.67886H0.57369ZM1.52017 23.5014H2.93989V21.6085H1.52017V23.5014ZM3.88637 22.5549V4.89362H1.99341V22.5549H3.88637ZM2.19814 5.48153L16.1966 23.1428L17.6801 21.967L3.68163 4.30571L2.19814 5.48153ZM16.9383 23.5014H18.0457V21.6085H16.9383V23.5014ZM35.7649 22.5549V23.5014H36.7114V22.5549H35.7649ZM35.7649 8.0738H36.7114V7.12732H35.7649V8.0738ZM34.3736 8.0738V7.12732H33.4271V8.0738H34.3736ZM24.7479 8.0738H25.6944V7.12732H24.7479V8.0738ZM23.3566 8.0738V7.12732H22.4101V8.0738H23.3566ZM34.3736 19.8575H35.3201V16.2674L33.5501 19.3908L34.3736 19.8575ZM34.3736 22.5549H33.4271V23.5014H34.3736V22.5549ZM36.7114 22.5549V8.0738H34.8184V22.5549H36.7114ZM35.7649 7.12732H34.3736V9.02027H35.7649V7.12732ZM33.4271 8.0738V16.4501H35.3201V8.0738H33.4271ZM33.4271 16.4501C33.4271 18.9512 31.6506 20.6714 29.3478 20.6714V22.5644C32.7238 22.5644 35.3201 19.9687 35.3201 16.4501H33.4271ZM29.3478 20.6714C28.1071 20.6714 27.2282 20.2631 26.6513 19.6288C26.0636 18.9826 25.6944 17.9963 25.6944 16.6773H23.8014C23.8014 18.3397 24.2698 19.8237 25.2509 20.9024C26.2428 21.9931 27.6638 22.5644 29.3478 22.5644V20.6714ZM25.6944 16.6773V8.0738H23.8014V16.6773H25.6944ZM24.7479 7.12732H23.3566V9.02027H24.7479V7.12732ZM22.4101 8.0738V16.9328H24.303V8.0738H22.4101ZM22.4101 16.9328C22.4101 18.8568 23.0035 20.5947 24.1883 21.8602C25.3809 23.134 27.0921 23.8421 29.149 23.8421V21.9492C27.5431 21.9492 26.358 21.408 25.5701 20.5664C24.7744 19.7165 24.303 18.473 24.303 16.9328H22.4101ZM29.149 23.8421C32.1883 23.8421 34.0941 22.2704 35.197 20.3241L33.5501 19.3908C32.7222 20.8518 31.3911 21.9492 29.149 21.9492V23.8421ZM33.4271 19.8575V22.5549H35.3201V19.8575H33.4271ZM34.3736 23.5014H35.7649V21.6085H34.3736V23.5014ZM62.9463 22.5549V23.5014H63.8928V22.5549H62.9463ZM52.1564 10.8564L51.3014 11.2622L52.0734 12.889L52.9756 11.3307L52.1564 10.8564ZM42.4456 10.6577H41.4991V13.9685L43.249 11.158L42.4456 10.6577ZM42.4456 8.0738H43.392V7.12732H42.4456V8.0738ZM41.0542 8.0738V7.12732H40.1078V8.0738H41.0542ZM41.0542 22.5549H40.1078V23.5014H41.0542V22.5549ZM42.4456 22.5549V23.5014H43.392V22.5549H42.4456ZM51.3046 22.5549H50.3581V23.5014H51.3046V22.5549ZM52.6959 22.5549V23.5014H53.6424V22.5549H52.6959ZM61.555 22.5549H60.6085V23.5014H61.555V22.5549ZM63.8928 22.5549V13.7811H61.9998V22.5549H63.8928ZM63.8928 13.7811C63.8928 11.7823 63.3055 10.0255 62.1523 8.75735C60.9899 7.47914 59.3323 6.78658 57.381 6.78658V8.67954C58.8654 8.67954 59.9905 9.19375 60.7518 10.0309C61.5223 10.8782 61.9998 12.1453 61.9998 13.7811H63.8928ZM57.381 6.78658C54.2147 6.78658 52.3849 8.57284 51.3373 10.3822L52.9756 11.3307C53.802 9.90309 55.0956 8.67954 57.381 8.67954V6.78658ZM53.0115 10.4506C52.0951 8.51971 50.2411 6.78658 47.2726 6.78658V8.67954C49.3583 8.67954 50.6277 9.84265 51.3014 11.2622L53.0115 10.4506ZM47.2726 6.78658C45.7912 6.78658 44.6262 7.19866 43.6944 7.85869C42.7802 8.50624 42.1401 9.35757 41.6421 10.1574L43.249 11.158C43.688 10.4529 44.1695 9.84192 44.7886 9.40339C45.3901 8.97732 46.1702 8.67954 47.2726 8.67954V6.78658ZM43.392 10.6577V8.0738H41.4991V10.6577H43.392ZM42.4456 7.12732H41.0542V9.02027H42.4456V7.12732ZM40.1078 8.0738V22.5549H42.0007V8.0738H40.1078ZM41.0542 23.5014H42.4456V21.6085H41.0542V23.5014ZM43.392 22.5549V14.207H41.4991V22.5549H43.392ZM43.392 14.207C43.392 11.7021 45.1101 9.95729 47.0739 9.95729V8.06433C43.8699 8.06433 41.4991 10.8626 41.4991 14.207H43.392ZM47.0739 9.95729C48.1267 9.95729 48.9126 10.3251 49.4466 10.934C49.9929 11.5567 50.3581 12.5278 50.3581 13.8662H52.2511C52.2511 12.1949 51.7929 10.7383 50.8697 9.68574C49.9344 8.61938 48.6049 8.06433 47.0739 8.06433V9.95729ZM50.3581 13.8662V22.5549H52.2511V13.8662H50.3581ZM51.3046 23.5014H52.6959V21.6085H51.3046V23.5014ZM53.6424 22.5549V14.1218H51.7495V22.5549H53.6424ZM53.6424 14.1218C53.6424 11.3702 55.3849 9.95729 57.2674 9.95729V8.06433C54.2662 8.06433 51.7495 10.3995 51.7495 14.1218H53.6424ZM57.2674 9.95729C58.3751 9.95729 59.1693 10.326 59.6994 10.9327C60.2442 11.556 60.6085 12.5441 60.6085 13.9514H62.5015C62.5015 12.2354 62.0566 10.7532 61.1248 9.68702C60.1785 8.60421 58.8289 8.06433 57.2674 8.06433V9.95729ZM60.6085 13.9514V22.5549H62.5015V13.9514H60.6085ZM61.555 23.5014H62.9463V21.6085H61.555V23.5014ZM69.4535 11.3108H68.507V14.4762L70.2446 11.8303L69.4535 11.3108ZM69.4535 1.82703H70.4V0.880552H69.4535V1.82703ZM68.0622 1.82703V0.880552H67.1157V1.82703H68.0622ZM68.0622 22.5549H67.1157V23.5014H68.0622V22.5549ZM69.4535 22.5549V23.5014H70.4V22.5549H69.4535ZM69.4535 19.4315L70.2448 18.9123L68.507 16.2642V19.4315H69.4535ZM83.4046 15.3144V15.2576H81.5117V15.3144H83.4046ZM83.4046 15.2576C83.4046 9.99972 79.4096 6.78658 75.4163 6.78658V8.67954C78.408 8.67954 81.5117 11.0885 81.5117 15.2576H83.4046ZM75.4163 6.78658C72.1029 6.78658 70.0033 8.74931 68.6624 10.7912L70.2446 11.8303C71.4024 10.0673 72.9941 8.67954 75.4163 8.67954V6.78658ZM70.4 11.3108V1.82703H68.507V11.3108H70.4ZM69.4535 0.880552H68.0622V2.77351H69.4535V0.880552ZM67.1157 1.82703V22.5549H69.0087V1.82703H67.1157ZM68.0622 23.5014H69.4535V21.6085H68.0622V23.5014ZM70.4 22.5549V19.4315H68.507V22.5549H70.4ZM68.6622 19.9508C69.9596 21.9278 72.0916 23.8421 75.4163 23.8421V21.9492C72.9486 21.9492 71.3326 20.5698 70.2448 18.9123L68.6622 19.9508ZM75.4163 23.8421C79.4195 23.8421 83.4046 20.5626 83.4046 15.3144H81.5117C81.5117 19.4931 78.3982 21.9492 75.4163 21.9492V23.8421ZM80.0068 15.3712C80.0068 17.1061 79.4472 18.4063 78.6152 19.2671C77.782 20.1291 76.6148 20.6146 75.2744 20.6146V22.5076C77.0856 22.5076 78.758 21.8431 79.9763 20.5827C81.1957 19.321 81.8997 17.5262 81.8997 15.3712H80.0068ZM75.2744 20.6146C72.7786 20.6146 70.3148 18.531 70.3148 15.3428H68.4218C68.4218 19.5938 71.7505 22.5076 75.2744 22.5076V20.6146ZM70.3148 15.3428V15.286H68.4218V15.3428H70.3148ZM70.3148 15.286C70.3148 12.1232 72.7815 10.0141 75.2744 10.0141V8.12112C71.7476 8.12112 68.4218 11.0662 68.4218 15.286H70.3148ZM75.2744 10.0141C77.7515 10.0141 80.0068 11.9931 80.0068 15.3144H81.8997C81.8997 11.0259 78.8736 8.12112 75.2744 8.12112V10.0141ZM80.0068 15.3144V15.3712H81.8997V15.3144H80.0068ZM87.2896 15.8823V14.9358H86.2737L86.3455 15.9492L87.2896 15.8823ZM99.3004 15.8823V16.8287H100.136L100.24 15.9996L99.3004 15.8823ZM98.9029 20.1698L99.5965 20.8138L100.257 20.1024L99.5291 19.4601L98.9029 20.1698ZM97.9375 19.318L98.5637 18.6083L97.8736 17.9993L97.2456 18.6722L97.9375 19.318ZM87.2896 14.6329L86.3461 14.5578L86.2648 15.5794H87.2896V14.6329ZM97.8239 14.6329V15.5794H98.8369L98.7682 14.5687L97.8239 14.6329ZM87.2896 16.8287H99.3004V14.9358H87.2896V16.8287ZM100.24 15.9996C100.275 15.7174 100.275 15.5885 100.275 15.3712H98.3824C98.3824 15.5513 98.3828 15.5928 98.3613 15.7649L100.24 15.9996ZM100.275 15.3712V15.3144H98.3824V15.3712H100.275ZM100.275 15.3144C100.275 12.9858 99.5734 10.8618 98.251 9.3035C96.917 7.73144 94.9917 6.78658 92.6846 6.78658V8.67954C94.4378 8.67954 95.8346 9.38156 96.8077 10.5283C97.7924 11.6887 98.3824 13.3554 98.3824 15.3144H100.275ZM92.6846 6.78658C88.153 6.78658 84.8666 10.6561 84.8666 15.286H86.7596C86.7596 11.5111 89.3792 8.67954 92.6846 8.67954V6.78658ZM84.8666 15.286V15.3428H86.7596V15.286H84.8666ZM84.8666 15.3428C84.8666 20.3632 88.5673 23.8421 92.9117 23.8421V21.9492C89.6464 21.9492 86.7596 19.3517 86.7596 15.3428H84.8666ZM92.9117 23.8421C96.0254 23.8421 97.993 22.5407 99.5965 20.8138L98.2093 19.5258C96.8599 20.9791 95.3633 21.9492 92.9117 21.9492V23.8421ZM99.5291 19.4601L98.5637 18.6083L97.3113 20.0277L98.2767 20.8795L99.5291 19.4601ZM97.2456 18.6722C96.1767 19.8174 94.8779 20.643 92.9685 20.643V22.536C95.5454 22.536 97.3132 21.374 98.6294 19.9638L97.2456 18.6722ZM92.9685 20.643C90.638 20.643 88.455 18.9382 88.2337 15.8153L86.3455 15.9492C86.6353 20.0385 89.6201 22.536 92.9685 22.536V20.643ZM88.2331 14.708C88.4595 11.8659 90.3702 9.95729 92.6278 9.95729V8.06433C89.1497 8.06433 86.6309 10.9827 86.3461 14.5578L88.2331 14.708ZM92.6278 9.95729C94.0009 9.95729 94.9847 10.5013 95.6674 11.3279C96.3712 12.18 96.7902 13.3814 96.8796 14.6971L98.7682 14.5687C98.6589 12.9598 98.1409 11.3501 97.1269 10.1224C96.0917 8.86908 94.5767 8.06433 92.6278 8.06433V9.95729ZM97.8239 13.6864H87.2896V15.5794H97.8239V13.6864ZM111.197 9.37994V10.3264H112.144V9.37994H111.197ZM111.197 7.84664H112.144V6.9369L111.235 6.9009L111.197 7.84664ZM104.78 12.191H103.834L105.647 12.5718L104.78 12.191ZM104.78 8.0738H105.727V7.12732H104.78V8.0738ZM103.389 8.0738V7.12732H102.442V8.0738H103.389ZM103.389 22.5549H102.442V23.5014H103.389V22.5549ZM104.78 22.5549V23.5014H105.727V22.5549H104.78ZM112.144 9.37994V7.84664H110.251V9.37994H112.144ZM111.235 6.9009C107.898 6.76874 105.171 8.94998 103.914 11.8101L105.647 12.5718C106.661 10.2642 108.761 8.69739 111.16 8.79238L111.235 6.9009ZM105.727 12.191V8.0738H103.834V12.191H105.727ZM104.78 7.12732H103.389V9.02027H104.78V7.12732ZM102.442 8.0738V22.5549H104.335V8.0738H102.442ZM103.389 23.5014H104.78V21.6085H103.389V23.5014ZM105.727 22.5549V16.6205H103.834V22.5549H105.727ZM105.727 16.6205C105.727 14.4633 106.392 12.8988 107.35 11.8816C108.309 10.8632 109.623 10.3264 111.055 10.3264V8.43346C109.137 8.43346 107.313 9.1602 105.972 10.5837C104.63 12.0084 103.834 14.0642 103.834 16.6205H105.727ZM111.055 10.3264H111.197V8.43346H111.055V10.3264ZM138.102 15.3144V15.2576H136.209V15.3144H138.102ZM138.102 15.2576C138.102 10.7125 134.592 6.78658 129.744 6.78658V8.67954C133.472 8.67954 136.209 11.6818 136.209 15.2576H138.102ZM129.744 6.78658C124.866 6.78658 121.33 10.7713 121.33 15.3144H123.223C123.223 11.7366 125.99 8.67954 129.744 8.67954V6.78658ZM121.33 15.3144V15.3712H123.223V15.3144H121.33ZM121.33 15.3712C121.33 19.9162 124.84 23.8421 129.688 23.8421V21.9492C125.96 21.9492 123.223 18.9469 123.223 15.3712H121.33ZM129.688 23.8421C134.565 23.8421 138.102 19.8574 138.102 15.3144H136.209C136.209 18.8921 133.442 21.9492 129.688 21.9492V23.8421ZM134.704 15.3712C134.704 18.3239 132.592 20.643 129.744 20.643V22.536C133.768 22.536 136.597 19.233 136.597 15.3712H134.704ZM129.744 20.643C126.965 20.643 124.728 18.3337 124.728 15.3144H122.835C122.835 19.2801 125.823 22.536 129.744 22.536V20.643ZM124.728 15.3144V15.2576H122.835V15.3144H124.728ZM124.728 15.2576C124.728 12.3048 126.84 9.98568 129.688 9.98568V8.09273C125.663 8.09273 122.835 11.3957 122.835 15.2576H124.728ZM129.688 9.98568C132.467 9.98568 134.704 12.2951 134.704 15.3144H136.597C136.597 11.3486 133.609 8.09273 129.688 8.09273V9.98568ZM134.704 15.3144V15.3712H136.597V15.3144H134.704ZM148.759 3.38872L148.478 4.29267L149.705 4.67347V3.38872H148.759ZM148.759 2.08258H149.705V1.40969L149.07 1.18863L148.759 2.08258ZM142.285 8.0738V9.02027H143.231V8.0738H142.285ZM140.183 8.0738V7.12732H139.237V8.0738H140.183ZM140.183 9.35154H139.237V10.298H140.183V9.35154ZM142.285 9.35154H143.231V8.40506H142.285V9.35154ZM142.285 22.5549H141.338V23.5014H142.285V22.5549ZM143.676 22.5549V23.5014H144.622V22.5549H143.676ZM143.676 9.35154V8.40506H142.729V9.35154H143.676ZM148.73 9.35154V10.298H149.677V9.35154H148.73ZM148.73 8.0738H149.677V7.12732H148.73V8.0738ZM143.676 8.0738H142.729V9.02027H143.676V8.0738ZM149.705 3.38872V2.08258H147.812V3.38872H149.705ZM149.07 1.18863C148.31 0.924416 147.579 0.795369 146.601 0.795369V2.68833C147.382 2.68833 147.901 2.78644 148.448 2.97653L149.07 1.18863ZM146.601 0.795369C145.021 0.795369 143.662 1.32163 142.71 2.40088C141.774 3.46325 141.338 4.94203 141.338 6.65408H143.231C143.231 5.24275 143.59 4.2654 144.13 3.65251C144.656 3.05649 145.455 2.68833 146.601 2.68833V0.795369ZM141.338 6.65408V8.0738H143.231V6.65408H141.338ZM142.285 7.12732H140.183V9.02027H142.285V7.12732ZM139.237 8.0738V9.35154H141.13V8.0738H139.237ZM140.183 10.298H142.285V8.40506H140.183V10.298ZM141.338 9.35154V22.5549H143.231V9.35154H141.338ZM142.285 23.5014H143.676V21.6085H142.285V23.5014ZM144.622 22.5549V9.35154H142.729V22.5549H144.622ZM143.676 10.298H148.73V8.40506H143.676V10.298ZM149.677 9.35154V8.0738H147.784V9.35154H149.677ZM148.73 7.12732H143.676V9.02027H148.73V7.12732ZM144.622 8.0738V6.68247H142.729V8.0738H144.622ZM144.622 6.68247C144.622 5.53802 144.845 4.87719 145.134 4.51381C145.387 4.19514 145.805 3.96608 146.601 3.96608V2.07312C145.409 2.07312 144.364 2.44033 143.652 3.33552C142.976 4.18601 142.729 5.35661 142.729 6.68247H144.622ZM146.601 3.96608C147.217 3.96608 147.715 4.05594 148.478 4.29267L149.039 2.48477C148.155 2.21041 147.461 2.07312 146.601 2.07312V3.96608ZM167.417 22.2994L167.813 23.1587L168.363 22.905V22.2994H167.417ZM167.417 20.9932H168.363V19.5317L167.03 20.1296L167.417 20.9932ZM162.391 9.35154V8.40506H161.445V9.35154H162.391ZM167.474 9.35154V10.298H168.42V9.35154H167.474ZM167.474 8.0738H168.42V7.12732H167.474V8.0738ZM162.391 8.0738H161.445V9.02027H162.391V8.0738ZM162.391 3.44551H163.337V2.49903H162.391V3.44551ZM161 3.44551V2.49903H160.053V3.44551H161ZM161 8.0738V9.02027H161.946V8.0738H161ZM158.898 8.0738V7.12732H157.952V8.0738H158.898ZM158.898 9.35154H157.952V10.298H158.898V9.35154ZM161 9.35154H161.946V8.40506H161V9.35154ZM168.363 22.2994V20.9932H166.47V22.2994H168.363ZM167.03 20.1296C166.298 20.4577 165.834 20.5579 165.287 20.5579V22.4508C166.16 22.4508 166.889 22.267 167.804 21.8569L167.03 20.1296ZM165.287 20.5579C164.568 20.5579 164.104 20.3968 163.829 20.1592C163.58 19.9445 163.337 19.5397 163.337 18.6933H161.445C161.445 19.9197 161.813 20.9204 162.593 21.593C163.347 22.2428 164.331 22.4508 165.287 22.4508V20.5579ZM163.337 18.6933V9.35154H161.445V18.6933H163.337ZM162.391 10.298H167.474V8.40506H162.391V10.298ZM168.42 9.35154V8.0738H166.527V9.35154H168.42ZM167.474 7.12732H162.391V9.02027H167.474V7.12732ZM163.337 8.0738V3.44551H161.445V8.0738H163.337ZM162.391 2.49903H161V4.39199H162.391V2.49903ZM160.053 3.44551V8.0738H161.946V3.44551H160.053ZM161 7.12732H158.898V9.02027H161V7.12732ZM157.952 8.0738V9.35154H159.845V8.0738H157.952ZM158.898 10.298H161V8.40506H158.898V10.298ZM160.053 9.35154V18.8353H161.946V9.35154H160.053ZM160.053 18.8353C160.053 20.4335 160.589 21.7049 161.562 22.5648C162.515 23.4078 163.777 23.757 165.06 23.757V21.864C164.1 21.864 163.331 21.6027 162.816 21.1466C162.319 20.7075 161.946 19.9913 161.946 18.8353H160.053ZM165.06 23.757C166.109 23.757 166.954 23.5555 167.813 23.1587L167.02 21.44C166.403 21.7247 165.829 21.864 165.06 21.864V23.757ZM184.01 22.5549V23.5014H184.957V22.5549H184.01ZM172.993 10.7713H172.047V14.3613L173.817 11.2379L172.993 10.7713ZM172.993 1.82703H173.94V0.880552H172.993V1.82703ZM171.602 1.82703V0.880552H170.655V1.82703H171.602ZM171.602 22.5549H170.655V23.5014H171.602V22.5549ZM172.993 22.5549V23.5014H173.94V22.5549H172.993ZM182.619 22.5549H181.672V23.5014H182.619V22.5549ZM184.957 22.5549V13.6959H183.064V22.5549H184.957ZM184.957 13.6959C184.957 11.7719 184.363 10.034 183.178 8.76856C181.986 7.49473 180.275 6.78658 178.218 6.78658V8.67954C179.824 8.67954 181.009 9.22075 181.797 10.0623C182.592 10.9123 183.064 12.1557 183.064 13.6959H184.957ZM178.218 6.78658C175.178 6.78658 173.273 8.35831 172.17 10.3046L173.817 11.2379C174.645 9.77689 175.976 8.67954 178.218 8.67954V6.78658ZM173.94 10.7713V1.82703H172.047V10.7713H173.94ZM172.993 0.880552H171.602V2.77351H172.993V0.880552ZM170.655 1.82703V22.5549H172.548V1.82703H170.655ZM171.602 23.5014H172.993V21.6085H171.602V23.5014ZM173.94 22.5549V14.1786H172.047V22.5549H173.94ZM173.94 14.1786C173.94 11.6775 175.716 9.95729 178.019 9.95729V8.06433C174.643 8.06433 172.047 10.6601 172.047 14.1786H173.94ZM178.019 9.95729C179.26 9.95729 180.139 10.3656 180.715 10.9999C181.303 11.6461 181.672 12.6324 181.672 13.9514H183.565C183.565 12.289 183.097 10.8051 182.116 9.72628C181.124 8.63561 179.703 8.06433 178.019 8.06433V9.95729ZM181.672 13.9514V22.5549H183.565V13.9514H181.672ZM182.619 23.5014H184.01V21.6085H182.619V23.5014ZM189.498 15.8823V14.9358H188.482L188.554 15.9492L189.498 15.8823ZM201.509 15.8823V16.8287H202.345L202.448 15.9996L201.509 15.8823ZM201.112 20.1698L201.805 20.8138L202.466 20.1024L201.738 19.4601L201.112 20.1698ZM200.146 19.318L200.772 18.6083L200.082 17.9993L199.454 18.6722L200.146 19.318ZM189.498 14.6329L188.555 14.5578L188.473 15.5794H189.498V14.6329ZM200.033 14.6329V15.5794H201.046L200.977 14.5687L200.033 14.6329ZM189.498 16.8287H201.509V14.9358H189.498V16.8287ZM202.448 15.9996C202.484 15.7174 202.484 15.5885 202.484 15.3712H200.591C200.591 15.5513 200.591 15.5928 200.57 15.7649L202.448 15.9996ZM202.484 15.3712V15.3144H200.591V15.3712H202.484ZM202.484 15.3144C202.484 12.9858 201.782 10.8618 200.46 9.3035C199.126 7.73144 197.2 6.78658 194.893 6.78658V8.67954C196.646 8.67954 198.043 9.38156 199.016 10.5283C200.001 11.6887 200.591 13.3554 200.591 15.3144H202.484ZM194.893 6.78658C190.362 6.78658 187.075 10.6561 187.075 15.286H188.968C188.968 11.5111 191.588 8.67954 194.893 8.67954V6.78658ZM187.075 15.286V15.3428H188.968V15.286H187.075ZM187.075 15.3428C187.075 20.3632 190.776 23.8421 195.12 23.8421V21.9492C191.855 21.9492 188.968 19.3517 188.968 15.3428H187.075ZM195.12 23.8421C198.234 23.8421 200.202 22.5407 201.805 20.8138L200.418 19.5258C199.069 20.9791 197.572 21.9492 195.12 21.9492V23.8421ZM201.738 19.4601L200.772 18.6083L199.52 20.0277L200.485 20.8795L201.738 19.4601ZM199.454 18.6722C198.385 19.8174 197.087 20.643 195.177 20.643V22.536C197.754 22.536 199.522 21.374 200.838 19.9638L199.454 18.6722ZM195.177 20.643C192.847 20.643 190.664 18.9382 190.442 15.8153L188.554 15.9492C188.844 20.0385 191.829 22.536 195.177 22.536V20.643ZM190.442 14.708C190.668 11.8659 192.579 9.95729 194.836 9.95729V8.06433C191.358 8.06433 188.84 10.9827 188.555 14.5578L190.442 14.708ZM194.836 9.95729C196.21 9.95729 197.193 10.5013 197.876 11.3279C198.58 12.18 198.999 13.3814 199.088 14.6971L200.977 14.5687C200.868 12.9598 200.35 11.3501 199.336 10.1224C198.3 8.86908 196.785 8.06433 194.836 8.06433V9.95729ZM200.033 13.6864H189.498V15.5794H200.033V13.6864ZM225.695 12.333L225.341 11.4552L222.691 12.5245L225.455 13.2486L225.695 12.333ZM214.423 2.67886V1.73238H213.476V2.67886H214.423ZM214.423 22.5549H213.476V23.5014H214.423V22.5549ZM215.899 11.8502H214.953V12.7967H215.899V11.8502ZM215.899 4.04179V3.09531H214.953V4.04179H215.899ZM215.899 21.192H214.953V22.1385H215.899V21.192ZM215.899 13.2132V12.2667H214.953V13.2132H215.899ZM231.128 17.1316V17.0748H229.235V17.1316H231.128ZM231.128 17.0748C231.128 15.4231 230.485 14.1457 229.476 13.2111C228.496 12.3027 227.21 11.7512 225.935 11.4174L225.455 13.2486C226.566 13.5394 227.523 13.9817 228.189 14.5995C228.828 15.1911 229.235 15.9722 229.235 17.0748H231.128ZM226.049 13.2107C227.861 12.4798 230.021 10.8544 230.021 7.61949H228.128C228.128 9.77949 226.767 10.88 225.341 11.4552L226.049 13.2107ZM230.021 7.61949V7.5627H228.128V7.61949H230.021ZM230.021 7.5627C230.021 5.76665 229.228 4.26849 227.868 3.24614C226.532 2.24228 224.703 1.73238 222.629 1.73238V3.62534C224.416 3.62534 225.809 4.06666 226.731 4.75936C227.628 5.43358 228.128 6.37734 228.128 7.5627H230.021ZM222.629 1.73238H214.423V3.62534H222.629V1.73238ZM213.476 2.67886V22.5549H215.369V2.67886H213.476ZM214.423 23.5014H223.054V21.6085H214.423V23.5014ZM223.054 23.5014C225.341 23.5014 227.342 22.9423 228.796 21.8444C230.276 20.7275 231.128 19.0936 231.128 17.1316H229.235C229.235 18.4917 228.668 19.5695 227.655 20.3337C226.618 21.117 225.055 21.6085 223.054 21.6085V23.5014ZM226.623 7.76146C226.623 8.79684 226.22 9.53712 225.557 10.0443C224.864 10.5742 223.809 10.9038 222.458 10.9038V12.7967C224.088 12.7967 225.589 12.4023 226.707 11.548C227.854 10.6709 228.516 9.36676 228.516 7.76146H226.623ZM222.458 10.9038H215.899V12.7967H222.458V10.9038ZM216.846 11.8502V4.04179H214.953V11.8502H216.846ZM215.899 4.98827H222.6V3.09531H215.899V4.98827ZM222.6 4.98827C224.057 4.98827 225.075 5.32787 225.704 5.80671C226.306 6.26451 226.623 6.89773 226.623 7.70467H228.516C228.516 6.32524 227.938 5.12702 226.85 4.29998C225.79 3.49397 224.323 3.09531 222.6 3.09531V4.98827ZM226.623 7.70467V7.76146H228.516V7.70467H226.623ZM227.73 17.1316C227.73 18.0733 227.339 18.806 226.615 19.3336C225.86 19.8832 224.685 20.2455 223.111 20.2455V22.1385C224.945 22.1385 226.553 21.7199 227.729 20.864C228.935 19.9861 229.623 18.6886 229.623 17.1316H227.73ZM223.111 20.2455H215.899V22.1385H223.111V20.2455ZM216.846 21.192V13.2132H214.953V21.192H216.846ZM215.899 14.1597H222.629V12.2667H215.899V14.1597ZM222.629 14.1597C224.496 14.1597 225.801 14.5018 226.608 15.0234C227.363 15.5109 227.73 16.1784 227.73 17.0748H229.623C229.623 15.5293 228.925 14.266 227.635 13.4332C226.399 12.6344 224.679 12.2667 222.629 12.2667V14.1597ZM227.73 17.0748V17.1316H229.623V17.0748H227.73ZM235.085 15.8823V14.9358H234.069L234.14 15.9492L235.085 15.8823ZM247.095 15.8823V16.8287H247.931L248.035 15.9996L247.095 15.8823ZM246.698 20.1698L247.391 20.8138L248.052 20.1024L247.324 19.4601L246.698 20.1698ZM245.732 19.318L246.359 18.6083L245.669 17.9993L245.041 18.6722L245.732 19.318ZM235.085 14.6329L234.141 14.5578L234.06 15.5794H235.085V14.6329ZM245.619 14.6329V15.5794H246.632L246.563 14.5687L245.619 14.6329ZM235.085 16.8287H247.095V14.9358H235.085V16.8287ZM248.035 15.9996C248.07 15.7174 248.07 15.5885 248.07 15.3712H246.177C246.177 15.5513 246.178 15.5928 246.156 15.7649L248.035 15.9996ZM248.07 15.3712V15.3144H246.177V15.3712H248.07ZM248.07 15.3144C248.07 12.9858 247.368 10.8618 246.046 9.3035C244.712 7.73144 242.787 6.78658 240.48 6.78658V8.67954C242.233 8.67954 243.63 9.38156 244.603 10.5283C245.587 11.6887 246.177 13.3554 246.177 15.3144H248.07ZM240.48 6.78658C235.948 6.78658 232.662 10.6561 232.662 15.286H234.555C234.555 11.5111 237.174 8.67954 240.48 8.67954V6.78658ZM232.662 15.286V15.3428H234.555V15.286H232.662ZM232.662 15.3428C232.662 20.3632 236.362 23.8421 240.707 23.8421V21.9492C237.441 21.9492 234.555 19.3517 234.555 15.3428H232.662ZM240.707 23.8421C243.82 23.8421 245.788 22.5407 247.391 20.8138L246.004 19.5258C244.655 20.9791 243.158 21.9492 240.707 21.9492V23.8421ZM247.324 19.4601L246.359 18.6083L245.106 20.0277L246.072 20.8795L247.324 19.4601ZM245.041 18.6722C243.972 19.8174 242.673 20.643 240.763 20.643V22.536C243.34 22.536 245.108 21.374 246.424 19.9638L245.041 18.6722ZM240.763 20.643C238.433 20.643 236.25 18.9382 236.029 15.8153L234.14 15.9492C234.43 20.0385 237.415 22.536 240.763 22.536V20.643ZM236.028 14.708C236.254 11.8659 238.165 9.95729 240.423 9.95729V8.06433C236.945 8.06433 234.426 10.9827 234.141 14.5578L236.028 14.708ZM240.423 9.95729C241.796 9.95729 242.78 10.5013 243.462 11.3279C244.166 12.18 244.585 13.3814 244.675 14.6971L246.563 14.5687C246.454 12.9598 245.936 11.3501 244.922 10.1224C243.887 8.86908 242.372 8.06433 240.423 8.06433V9.95729ZM245.619 13.6864H235.085V15.5794H245.619V13.6864ZM262.485 22.5549V23.5014H263.431V22.5549H262.485ZM251.297 9.09599L250.899 8.23753L250.073 8.62115L250.424 9.46146L251.297 9.09599ZM251.808 10.317L250.935 10.6824L251.33 11.6242L252.239 11.1599L251.808 10.317ZM261.122 14.207L260.879 15.1218L262.068 15.4373V14.207H261.122ZM261.122 20.1414H262.068V17.188L260.352 19.5913L261.122 20.1414ZM261.122 22.5549H260.175V23.5014H261.122V22.5549ZM261.15 15.4847H262.097V14.7499L261.385 14.5678L261.15 15.4847ZM263.431 22.5549V13.5255H261.538V22.5549H263.431ZM263.431 13.5255C263.431 11.4492 262.78 9.74981 261.492 8.58C260.219 7.42318 258.45 6.90016 256.437 6.90016V8.79312C258.143 8.79312 259.398 9.23551 260.219 9.98111C261.026 10.7137 261.538 11.8538 261.538 13.5255H263.431ZM256.437 6.90016C254.265 6.90016 252.563 7.46476 250.899 8.23753L251.696 9.95446C253.212 9.25072 254.633 8.79312 256.437 8.79312V6.90016ZM250.424 9.46146L250.935 10.6824L252.682 9.95148L252.17 8.73052L250.424 9.46146ZM252.239 11.1599C253.48 10.5262 254.78 10.0993 256.352 10.0993V8.2063C254.402 8.2063 252.806 8.74476 251.378 9.47401L252.239 11.1599ZM256.352 10.0993C257.694 10.0993 258.629 10.4382 259.22 10.9727C259.795 11.4933 260.175 12.3182 260.175 13.5823H262.068C262.068 11.9218 261.554 10.5319 260.49 9.56896C259.441 8.61982 257.99 8.2063 256.352 8.2063V10.0993ZM260.175 13.5823V14.207H262.068V13.5823H260.175ZM261.365 13.2922C259.909 12.906 258.435 12.6358 256.323 12.6358V14.5288C258.243 14.5288 259.552 14.7697 260.879 15.1218L261.365 13.2922ZM256.323 12.6358C254.321 12.6358 252.523 13.0888 251.199 14.0422C249.84 15.0198 249.045 16.4823 249.045 18.2958H250.938C250.938 17.0994 251.434 16.2052 252.305 15.5786C253.209 14.9276 254.577 14.5288 256.323 14.5288V12.6358ZM249.045 18.2958V18.3526H250.938V18.2958H249.045ZM249.045 18.3526C249.045 20.2048 249.952 21.6111 251.226 22.5225C252.474 23.4159 254.074 23.8421 255.585 23.8421V21.9492C254.399 21.9492 253.202 21.6088 252.327 20.9831C251.478 20.3754 250.938 19.5101 250.938 18.3526H249.045ZM255.585 23.8421C258.695 23.8421 260.752 22.2876 261.892 20.6915L260.352 19.5913C259.504 20.7778 257.983 21.9492 255.585 21.9492V23.8421ZM260.175 20.1414V22.5549H262.068V20.1414H260.175ZM261.122 23.5014H262.485V21.6085H261.122V23.5014ZM260.204 17.1316C260.204 19.0477 258.328 20.643 255.67 20.643V22.536C258.918 22.536 262.097 20.4969 262.097 17.1316H260.204ZM255.67 20.643C254.724 20.643 253.88 20.3804 253.298 19.9534C252.738 19.5419 252.414 18.9814 252.414 18.2674H250.521C250.521 19.6545 251.191 20.7551 252.178 21.4794C253.144 22.1882 254.401 22.536 255.67 22.536V20.643ZM252.414 18.2674V18.2106H250.521V18.2674H252.414ZM252.414 18.2106C252.414 17.5017 252.698 16.9417 253.262 16.5287C253.857 16.0929 254.83 15.7781 256.238 15.7781V13.8852C254.579 13.8852 253.167 14.2519 252.144 15.0016C251.089 15.774 250.521 16.9034 250.521 18.2106H252.414ZM256.238 15.7781C258.202 15.7781 259.736 16.1 260.916 16.4017L261.385 14.5678C260.122 14.2448 258.419 13.8852 256.238 13.8852V15.7781ZM260.204 15.4847V17.1316H262.097V15.4847H260.204ZM272.401 14.4909L272.139 15.4005L272.145 15.4022L272.401 14.4909ZM276.12 10.5441L275.599 11.3342L276.403 11.8648L276.92 11.051L276.12 10.5441ZM276.858 9.37994L277.658 9.88682L278.153 9.10557L277.383 8.59242L276.858 9.37994ZM271.918 15.8255L271.655 16.7347L271.661 16.7365L271.918 15.8255ZM267.062 19.6303L267.639 18.8796L266.876 18.2942L266.303 19.0655L267.062 19.6303ZM266.239 20.7377L265.479 20.1729L264.939 20.8995L265.641 21.4714L266.239 20.7377ZM278.117 18.6081V18.5513H276.224V18.6081H278.117ZM278.117 18.5513C278.117 16.8966 277.294 15.7765 276.192 15.0254C275.146 14.3132 273.811 13.9034 272.656 13.5796L272.145 15.4022C273.319 15.7315 274.369 16.0742 275.126 16.59C275.826 17.067 276.224 17.6506 276.224 18.5513H278.117ZM272.662 13.5813C271.598 13.2752 270.707 13.0054 270.075 12.646C269.471 12.3026 269.315 12.005 269.315 11.6799H267.422C267.422 12.9732 268.245 13.783 269.139 14.2915C270.005 14.7838 271.13 15.1104 272.139 15.4005L272.662 13.5813ZM269.315 11.6799V11.6231H267.422V11.6799H269.315ZM269.315 11.6231C269.315 10.8993 269.97 10.0425 271.662 10.0425V8.14951C269.379 8.14951 267.422 9.45063 267.422 11.6231H269.315ZM271.662 10.0425C272.973 10.0425 274.384 10.533 275.599 11.3342L276.641 9.75401C275.187 8.79479 273.419 8.14951 271.662 8.14951V10.0425ZM276.92 11.051L277.658 9.88682L276.059 8.87306L275.321 10.0372L276.92 11.051ZM277.383 8.59242C275.789 7.52961 273.649 6.84337 271.719 6.84337V8.73633C273.253 8.73633 275.031 9.29945 276.333 10.1675L277.383 8.59242ZM271.719 6.84337C268.542 6.84337 266.002 8.79819 266.002 11.7935H267.895C267.895 10.1321 269.274 8.73633 271.719 8.73633V6.84337ZM266.002 11.7935V11.8502H267.895V11.7935H266.002ZM266.002 11.8502C266.002 13.5526 266.903 14.6466 268.052 15.3564C269.134 16.0249 270.519 16.4062 271.655 16.7347L272.181 14.9162C270.96 14.5633 269.861 14.2489 269.047 13.7461C268.3 13.2847 267.895 12.7318 267.895 11.8502H266.002ZM271.661 16.7365C272.685 17.0249 273.515 17.2926 274.09 17.651C274.617 17.9792 274.805 18.2973 274.805 18.7217H276.698C276.698 17.4424 275.977 16.5964 275.091 16.0444C274.253 15.5225 273.167 15.1939 272.174 14.9144L271.661 16.7365ZM274.805 18.7217V18.7785H276.698V18.7217H274.805ZM274.805 18.7785C274.805 19.2958 274.58 19.7153 274.166 20.0313C273.734 20.3608 273.074 20.5863 272.259 20.5863V22.4792C273.403 22.4792 274.489 22.1652 275.314 21.5364C276.156 20.894 276.698 19.9364 276.698 18.7785H274.805ZM272.259 20.5863C270.657 20.5863 269.095 19.9975 267.639 18.8796L266.486 20.381C268.21 21.7051 270.168 22.4792 272.259 22.4792V20.5863ZM266.303 19.0655L265.479 20.1729L266.998 21.3025L267.822 20.1951L266.303 19.0655ZM265.641 21.4714C267.341 22.8563 269.851 23.7854 272.173 23.7854V21.8924C270.293 21.8924 268.204 21.1178 266.837 20.0039L265.641 21.4714ZM272.173 23.7854C275.289 23.7854 278.117 21.8865 278.117 18.6081H276.224C276.224 20.4975 274.624 21.8924 272.173 21.8924V23.7854ZM288.509 22.2994L288.905 23.1587L289.455 22.905V22.2994H288.509ZM288.509 20.9932H289.455V19.5317L288.122 20.1296L288.509 20.9932ZM283.483 9.35154V8.40506H282.537V9.35154H283.483ZM288.566 9.35154V10.298H289.512V9.35154H288.566ZM288.566 8.0738H289.512V7.12732H288.566V8.0738ZM283.483 8.0738H282.537V9.02027H283.483V8.0738ZM283.483 3.44551H284.43V2.49903H283.483V3.44551ZM282.092 3.44551V2.49903H281.145V3.44551H282.092ZM282.092 8.0738V9.02027H283.038V8.0738H282.092ZM279.991 8.0738V7.12732H279.044V8.0738H279.991ZM279.991 9.35154H279.044V10.298H279.991V9.35154ZM282.092 9.35154H283.038V8.40506H282.092V9.35154ZM289.455 22.2994V20.9932H287.562V22.2994H289.455ZM288.122 20.1296C287.39 20.4577 286.926 20.5579 286.379 20.5579V22.4508C287.252 22.4508 287.981 22.267 288.896 21.8569L288.122 20.1296ZM286.379 20.5579C285.66 20.5579 285.196 20.3968 284.921 20.1592C284.672 19.9445 284.43 19.5397 284.43 18.6933H282.537C282.537 19.9197 282.905 20.9204 283.685 21.593C284.439 22.2428 285.423 22.4508 286.379 22.4508V20.5579ZM284.43 18.6933V9.35154H282.537V18.6933H284.43ZM283.483 10.298H288.566V8.40506H283.483V10.298ZM289.512 9.35154V8.0738H287.619V9.35154H289.512ZM288.566 7.12732H283.483V9.02027H288.566V7.12732ZM284.43 8.0738V3.44551H282.537V8.0738H284.43ZM283.483 2.49903H282.092V4.39199H283.483V2.49903ZM281.145 3.44551V8.0738H283.038V3.44551H281.145ZM282.092 7.12732H279.991V9.02027H282.092V7.12732ZM279.044 8.0738V9.35154H280.937V8.0738H279.044ZM279.991 10.298H282.092V8.40506H279.991V10.298ZM281.145 9.35154V18.8353H283.038V9.35154H281.145ZM281.145 18.8353C281.145 20.4335 281.681 21.7049 282.654 22.5648C283.607 23.4078 284.869 23.757 286.152 23.757V21.864C285.192 21.864 284.423 21.6027 283.908 21.1466C283.411 20.7075 283.038 19.9913 283.038 18.8353H281.145ZM286.152 23.757C287.201 23.757 288.046 23.5555 288.905 23.1587L288.112 21.44C287.495 21.7247 286.921 21.864 286.152 21.864V23.757ZM299.651 14.9168V15.8633H300.597V14.9168H299.651ZM299.651 13.3268H300.597V12.3803H299.651V13.3268ZM292.041 13.3268V12.3803H291.094V13.3268H292.041ZM292.041 14.9168H291.094V15.8633H292.041V14.9168ZM300.597 14.9168V13.3268H298.704V14.9168H300.597ZM299.651 12.3803H292.041V14.2732H299.651V12.3803ZM291.094 13.3268V14.9168H292.987V13.3268H291.094ZM292.041 15.8633H299.651V13.9704H292.041V15.8633ZM314.785 22.5549V23.5014H315.731V22.5549H314.785ZM314.785 2.67886H315.731V1.73238H314.785V2.67886ZM313.308 2.67886V1.73238H312.362V2.67886H313.308ZM313.308 22.5549H312.362V23.5014H313.308V22.5549ZM315.731 22.5549V2.67886H313.838V22.5549H315.731ZM314.785 1.73238H313.308V3.62534H314.785V1.73238ZM312.362 2.67886V22.5549H314.255V2.67886H312.362ZM313.308 23.5014H314.785V21.6085H313.308V23.5014ZM328.398 9.37994V10.3264H329.344V9.37994H328.398ZM328.398 7.84664H329.344V6.9369L328.435 6.9009L328.398 7.84664ZM321.98 12.191H321.034L322.847 12.5718L321.98 12.191ZM321.98 8.0738H322.927V7.12732H321.98V8.0738ZM320.589 8.0738V7.12732H319.643V8.0738H320.589ZM320.589 22.5549H319.643V23.5014H320.589V22.5549ZM321.98 22.5549V23.5014H322.927V22.5549H321.98ZM329.344 9.37994V7.84664H327.451V9.37994H329.344ZM328.435 6.9009C325.098 6.76874 322.371 8.94998 321.114 11.8101L322.847 12.5718C323.861 10.2642 325.962 8.69739 328.36 8.79238L328.435 6.9009ZM322.927 12.191V8.0738H321.034V12.191H322.927ZM321.98 7.12732H320.589V9.02027H321.98V7.12732ZM319.643 8.0738V22.5549H321.536V8.0738H319.643ZM320.589 23.5014H321.98V21.6085H320.589V23.5014ZM322.927 22.5549V16.6205H321.034V22.5549H322.927ZM322.927 16.6205C322.927 14.4633 323.593 12.8988 324.551 11.8816C325.51 10.8632 326.823 10.3264 328.256 10.3264V8.43346C326.337 8.43346 324.513 9.1602 323.173 10.5837C321.831 12.0084 321.034 14.0642 321.034 16.6205H322.927ZM328.256 10.3264H328.398V8.43346H328.256V10.3264ZM346.068 15.3144V15.2576H344.175V15.3144H346.068ZM346.068 15.2576C346.068 10.7125 342.559 6.78658 337.711 6.78658V8.67954C341.439 8.67954 344.175 11.6818 344.175 15.2576H346.068ZM337.711 6.78658C332.833 6.78658 329.297 10.7713 329.297 15.3144H331.19C331.19 11.7366 333.957 8.67954 337.711 8.67954V6.78658ZM329.297 15.3144V15.3712H331.19V15.3144H329.297ZM329.297 15.3712C329.297 19.9162 332.807 23.8421 337.654 23.8421V21.9492C333.927 21.9492 331.19 18.9469 331.19 15.3712H329.297ZM337.654 23.8421C342.532 23.8421 346.068 19.8574 346.068 15.3144H344.175C344.175 18.8921 341.408 21.9492 337.654 21.9492V23.8421ZM342.671 15.3712C342.671 18.3239 340.558 20.643 337.711 20.643V22.536C341.735 22.536 344.563 19.233 344.563 15.3712H342.671ZM337.711 20.643C334.931 20.643 332.695 18.3337 332.695 15.3144H330.802C330.802 19.2801 333.79 22.536 337.711 22.536V20.643ZM332.695 15.3144V15.2576H330.802V15.3144H332.695ZM332.695 15.2576C332.695 12.3048 334.807 9.98568 337.654 9.98568V8.09273C333.63 8.09273 330.802 11.3957 330.802 15.2576H332.695ZM337.654 9.98568C340.434 9.98568 342.671 12.2951 342.671 15.3144H344.563C344.563 11.3486 341.576 8.09273 337.654 8.09273V9.98568ZM342.671 15.3144V15.3712H344.563V15.3144H342.671ZM361.808 22.5549V23.5014H362.754V22.5549H361.808ZM350.791 10.7713H349.844V14.3613L351.614 11.2379L350.791 10.7713ZM350.791 8.0738H351.737V7.12732H350.791V8.0738ZM349.399 8.0738V7.12732H348.453V8.0738H349.399ZM349.399 22.5549H348.453V23.5014H349.399V22.5549ZM350.791 22.5549V23.5014H351.737V22.5549H350.791ZM360.416 22.5549H359.47V23.5014H360.416V22.5549ZM362.754 22.5549V13.6959H360.861V22.5549H362.754ZM362.754 13.6959C362.754 11.7719 362.161 10.034 360.976 8.76856C359.783 7.49473 358.072 6.78658 356.015 6.78658V8.67954C357.621 8.67954 358.806 9.22075 359.594 10.0623C360.39 10.9123 360.861 12.1557 360.861 13.6959H362.754ZM356.015 6.78658C352.976 6.78658 351.07 8.35831 349.967 10.3046L351.614 11.2379C352.442 9.77689 353.773 8.67954 356.015 8.67954V6.78658ZM351.737 10.7713V8.0738H349.844V10.7713H351.737ZM350.791 7.12732H349.399V9.02027H350.791V7.12732ZM348.453 8.0738V22.5549H350.346V8.0738H348.453ZM349.399 23.5014H350.791V21.6085H349.399V23.5014ZM351.737 22.5549V14.1786H349.844V22.5549H351.737ZM351.737 14.1786C351.737 11.6775 353.514 9.95729 355.817 9.95729V8.06433C352.441 8.06433 349.844 10.6601 349.844 14.1786H351.737ZM355.817 9.95729C357.057 9.95729 357.936 10.3656 358.513 10.9999C359.101 11.6461 359.47 12.6324 359.47 13.9514H361.363C361.363 12.289 360.895 10.8051 359.913 9.72628C358.922 8.63561 357.501 8.06433 355.817 8.06433V9.95729ZM359.47 13.9514V22.5549H361.363V13.9514H359.47ZM360.416 23.5014H361.808V21.6085H360.416V23.5014ZM394.379 22.5549V23.5014H395.325V22.5549H394.379ZM394.379 2.67886H395.325V1.73238H394.379V2.67886ZM392.987 2.67886V1.73238H392.486L392.204 2.14732L392.987 2.67886ZM385.008 14.4341L384.225 14.9657L385.008 16.1195L385.792 14.9657L385.008 14.4341ZM377.03 2.67886L377.813 2.14732L377.531 1.73238H377.03V2.67886ZM375.638 2.67886V1.73238H374.692V2.67886H375.638ZM375.638 22.5549H374.692V23.5014H375.638V22.5549ZM377.058 22.5549V23.5014H378.005V22.5549H377.058ZM377.058 5.29115L377.838 4.75502L376.112 2.24322V5.29115H377.058ZM384.923 16.7341L384.143 17.2702L384.425 17.6806H384.923V16.7341ZM385.037 16.7341V17.6806H385.535L385.817 17.2702L385.037 16.7341ZM392.902 5.29115H393.849V2.24322L392.122 4.75502L392.902 5.29115ZM392.902 22.5549H391.956V23.5014H392.902V22.5549ZM395.325 22.5549V2.67886H393.432V22.5549H395.325ZM394.379 1.73238H392.987V3.62534H394.379V1.73238ZM392.204 2.14732L384.225 13.9026L385.792 14.9657L393.77 3.2104L392.204 2.14732ZM385.792 13.9026L377.813 2.14732L376.247 3.2104L384.225 14.9657L385.792 13.9026ZM377.03 1.73238H375.638V3.62534H377.03V1.73238ZM374.692 2.67886V22.5549H376.585V2.67886H374.692ZM375.638 23.5014H377.058V21.6085H375.638V23.5014ZM378.005 22.5549V5.29115H376.112V22.5549H378.005ZM376.278 5.82727L384.143 17.2702L385.703 16.198L377.838 4.75502L376.278 5.82727ZM384.923 17.6806H385.037V15.7876H384.923V17.6806ZM385.817 17.2702L393.682 5.82727L392.122 4.75502L384.257 16.198L385.817 17.2702ZM391.956 5.29115V22.5549H393.849V5.29115H391.956ZM392.902 23.5014H394.379V21.6085H392.902V23.5014ZM411.278 22.5549V23.5014H412.224V22.5549H411.278ZM400.091 9.09599L399.692 8.23753L398.866 8.62115L399.217 9.46146L400.091 9.09599ZM400.602 10.317L399.729 10.6824L400.123 11.6242L401.032 11.1599L400.602 10.317ZM409.915 14.207L409.672 15.1218L410.861 15.4373V14.207H409.915ZM409.915 20.1414H410.861V17.188L409.145 19.5913L409.915 20.1414ZM409.915 22.5549H408.969V23.5014H409.915V22.5549ZM409.943 15.4847H410.89V14.7499L410.178 14.5678L409.943 15.4847ZM412.224 22.5549V13.5255H410.331V22.5549H412.224ZM412.224 13.5255C412.224 11.4492 411.573 9.74981 410.285 8.58C409.012 7.42318 407.244 6.90016 405.23 6.90016V8.79312C406.936 8.79312 408.192 9.23551 409.012 9.98111C409.819 10.7137 410.331 11.8538 410.331 13.5255H412.224ZM405.23 6.90016C403.058 6.90016 401.356 7.46476 399.692 8.23753L400.489 9.95446C402.005 9.25072 403.427 8.79312 405.23 8.79312V6.90016ZM399.217 9.46146L399.729 10.6824L401.475 9.95148L400.964 8.73052L399.217 9.46146ZM401.032 11.1599C402.273 10.5262 403.573 10.0993 405.145 10.0993V8.2063C403.196 8.2063 401.599 8.74476 400.171 9.47401L401.032 11.1599ZM405.145 10.0993C406.488 10.0993 407.422 10.4382 408.013 10.9727C408.588 11.4933 408.969 12.3182 408.969 13.5823H410.861C410.861 11.9218 410.347 10.5319 409.283 9.56896C408.234 8.61982 406.783 8.2063 405.145 8.2063V10.0993ZM408.969 13.5823V14.207H410.861V13.5823H408.969ZM410.158 13.2922C408.702 12.906 407.228 12.6358 405.116 12.6358V14.5288C407.036 14.5288 408.345 14.7697 409.672 15.1218L410.158 13.2922ZM405.116 12.6358C403.114 12.6358 401.317 13.0888 399.992 14.0422C398.634 15.0198 397.838 16.4823 397.838 18.2958H399.731C399.731 17.0994 400.227 16.2052 401.098 15.5786C402.002 14.9276 403.37 14.5288 405.116 14.5288V12.6358ZM397.838 18.2958V18.3526H399.731V18.2958H397.838ZM397.838 18.3526C397.838 20.2048 398.746 21.6111 400.019 22.5225C401.267 23.4159 402.867 23.8421 404.378 23.8421V21.9492C403.192 21.9492 401.995 21.6088 401.121 20.9831C400.271 20.3754 399.731 19.5101 399.731 18.3526H397.838ZM404.378 23.8421C407.488 23.8421 409.545 22.2876 410.685 20.6915L409.145 19.5913C408.297 20.7778 406.776 21.9492 404.378 21.9492V23.8421ZM408.969 20.1414V22.5549H410.861V20.1414H408.969ZM409.915 23.5014H411.278V21.6085H409.915V23.5014ZM408.997 17.1316C408.997 19.0477 407.121 20.643 404.463 20.643V22.536C407.711 22.536 410.89 20.4969 410.89 17.1316H408.997ZM404.463 20.643C403.517 20.643 402.673 20.3804 402.092 19.9534C401.531 19.5419 401.207 18.9814 401.207 18.2674H399.314C399.314 19.6545 399.985 20.7551 400.972 21.4794C401.937 22.1882 403.195 22.536 404.463 22.536V20.643ZM401.207 18.2674V18.2106H399.314V18.2674H401.207ZM401.207 18.2106C401.207 17.5017 401.492 16.9417 402.055 16.5287C402.65 16.0929 403.623 15.7781 405.031 15.7781V13.8852C403.373 13.8852 401.96 14.2519 400.937 15.0016C399.882 15.774 399.314 16.9034 399.314 18.2106H401.207ZM405.031 15.7781C406.995 15.7781 408.529 16.1 409.709 16.4017L410.178 14.5678C408.915 14.2448 407.213 13.8852 405.031 13.8852V15.7781ZM408.997 15.4847V17.1316H410.89V15.4847H408.997ZM418.042 4.29734V5.24382H418.988V4.29734H418.042ZM418.042 2.39492H418.988V1.44844H418.042V2.39492ZM416.31 2.39492V1.44844H415.363V2.39492H416.31ZM416.31 4.29734H415.363V5.24382H416.31V4.29734ZM417.872 22.5549V23.5014H418.818V22.5549H417.872ZM417.872 8.0738H418.818V7.12732H417.872V8.0738ZM416.48 8.0738V7.12732H415.534V8.0738H416.48ZM416.48 22.5549H415.534V23.5014H416.48V22.5549ZM418.988 4.29734V2.39492H417.096V4.29734H418.988ZM418.042 1.44844H416.31V3.3414H418.042V1.44844ZM415.363 2.39492V4.29734H417.256V2.39492H415.363ZM416.31 5.24382H418.042V3.35086H416.31V5.24382ZM418.818 22.5549V8.0738H416.925V22.5549H418.818ZM417.872 7.12732H416.48V9.02027H417.872V7.12732ZM415.534 8.0738V22.5549H417.427V8.0738H415.534ZM416.48 23.5014H417.872V21.6085H416.48V23.5014ZM436.811 22.5549V23.5014H437.758V22.5549H436.811ZM436.811 1.82703H437.758V0.880552H436.811V1.82703ZM435.42 1.82703V0.880552H434.474V1.82703H435.42ZM435.42 11.1972L434.629 11.7165L436.367 14.3645V11.1972H435.42ZM435.42 19.318H436.367V16.1525L434.629 18.7984L435.42 19.318ZM435.42 22.5549H434.474V23.5014H435.42V22.5549ZM437.758 22.5549V1.82703H435.865V22.5549H437.758ZM436.811 0.880552H435.42V2.77351H436.811V0.880552ZM434.474 1.82703V11.1972H436.367V1.82703H434.474ZM436.211 10.6779C434.914 8.70092 432.782 6.78658 429.457 6.78658V8.67954C431.925 8.67954 433.541 10.059 434.629 11.7165L436.211 10.6779ZM429.457 6.78658C425.454 6.78658 421.469 10.0662 421.469 15.3144H423.362C423.362 11.1356 426.475 8.67954 429.457 8.67954V6.78658ZM421.469 15.3144V15.3712H423.362V15.3144H421.469ZM421.469 15.3712C421.469 20.629 425.464 23.8421 429.457 23.8421V21.9492C426.465 21.9492 423.362 19.5402 423.362 15.3712H421.469ZM429.457 23.8421C432.771 23.8421 434.87 21.8794 436.211 19.8375L434.629 18.7984C433.471 20.5614 431.879 21.9492 429.457 21.9492V23.8421ZM434.474 19.318V22.5549H436.367V19.318H434.474ZM435.42 23.5014H436.811V21.6085H435.42V23.5014ZM434.559 15.3428C434.559 18.5055 432.092 20.6146 429.599 20.6146V22.5076C433.126 22.5076 436.452 19.5625 436.452 15.3428H434.559ZM429.599 20.6146C427.122 20.6146 424.867 18.6356 424.867 15.3144H422.974C422.974 19.6028 426 22.5076 429.599 22.5076V20.6146ZM424.867 15.3144V15.2576H422.974V15.3144H424.867ZM424.867 15.2576C424.867 13.5226 425.426 12.2224 426.258 11.3616C427.092 10.4996 428.259 10.0141 429.599 10.0141V8.12112C427.788 8.12112 426.116 8.78559 424.897 10.046C423.678 11.3077 422.974 13.1025 422.974 15.2576H424.867ZM429.599 10.0141C432.095 10.0141 434.559 12.0977 434.559 15.286H436.452C436.452 11.0349 433.123 8.12112 429.599 8.12112V10.0141ZM434.559 15.286V15.3428H436.452V15.286H434.559ZM442.58 15.8823V14.9358H441.564L441.636 15.9492L442.58 15.8823ZM454.591 15.8823V16.8287H455.426L455.53 15.9996L454.591 15.8823ZM454.193 20.1698L454.887 20.8138L455.547 20.1024L454.819 19.4601L454.193 20.1698ZM453.228 19.318L453.854 18.6083L453.164 17.9993L452.536 18.6722L453.228 19.318ZM442.58 14.6329L441.636 14.5578L441.555 15.5794H442.58V14.6329ZM453.114 14.6329V15.5794H454.127L454.058 14.5687L453.114 14.6329ZM442.58 16.8287H454.591V14.9358H442.58V16.8287ZM455.53 15.9996C455.565 15.7174 455.566 15.5885 455.566 15.3712H453.673C453.673 15.5513 453.673 15.5928 453.652 15.7649L455.53 15.9996ZM455.566 15.3712V15.3144H453.673V15.3712H455.566ZM455.566 15.3144C455.566 12.9858 454.864 10.8618 453.541 9.3035C452.207 7.73144 450.282 6.78658 447.975 6.78658V8.67954C449.728 8.67954 451.125 9.38156 452.098 10.5283C453.083 11.6887 453.673 13.3554 453.673 15.3144H455.566ZM447.975 6.78658C443.443 6.78658 440.157 10.6561 440.157 15.286H442.05C442.05 11.5111 444.669 8.67954 447.975 8.67954V6.78658ZM440.157 15.286V15.3428H442.05V15.286H440.157ZM440.157 15.3428C440.157 20.3632 443.858 23.8421 448.202 23.8421V21.9492C444.937 21.9492 442.05 19.3517 442.05 15.3428H440.157ZM448.202 23.8421C451.316 23.8421 453.283 22.5407 454.887 20.8138L453.5 19.5258C452.15 20.9791 450.654 21.9492 448.202 21.9492V23.8421ZM454.819 19.4601L453.854 18.6083L452.602 20.0277L453.567 20.8795L454.819 19.4601ZM452.536 18.6722C451.467 19.8174 450.168 20.643 448.259 20.643V22.536C450.836 22.536 452.603 21.374 453.92 19.9638L452.536 18.6722ZM448.259 20.643C445.928 20.643 443.745 18.9382 443.524 15.8153L441.636 15.9492C441.926 20.0385 444.91 22.536 448.259 22.536V20.643ZM443.523 14.708C443.75 11.8659 445.66 9.95729 447.918 9.95729V8.06433C444.44 8.06433 441.921 10.9827 441.636 14.5578L443.523 14.708ZM447.918 9.95729C449.291 9.95729 450.275 10.5013 450.958 11.3279C451.661 12.18 452.08 13.3814 452.17 14.6971L454.058 14.5687C453.949 12.9598 453.431 11.3501 452.417 10.1224C451.382 8.86908 449.867 8.06433 447.918 8.06433V9.95729ZM453.114 13.6864H442.58V15.5794H453.114V13.6864ZM471.087 22.5549V23.5014H472.034V22.5549H471.087ZM460.07 10.7713H459.124V14.3613L460.894 11.2379L460.07 10.7713ZM460.07 8.0738H461.017V7.12732H460.07V8.0738ZM458.679 8.0738V7.12732H457.733V8.0738H458.679ZM458.679 22.5549H457.733V23.5014H458.679V22.5549ZM460.07 22.5549V23.5014H461.017V22.5549H460.07ZM469.696 22.5549H468.75V23.5014H469.696V22.5549ZM472.034 22.5549V13.6959H470.141V22.5549H472.034ZM472.034 13.6959C472.034 11.7719 471.44 10.034 470.256 8.76856C469.063 7.49473 467.352 6.78658 465.295 6.78658V8.67954C466.901 8.67954 468.086 9.22075 468.874 10.0623C469.67 10.9123 470.141 12.1557 470.141 13.6959H472.034ZM465.295 6.78658C462.256 6.78658 460.35 8.35831 459.247 10.3046L460.894 11.2379C461.722 9.77689 463.053 8.67954 465.295 8.67954V6.78658ZM461.017 10.7713V8.0738H459.124V10.7713H461.017ZM460.07 7.12732H458.679V9.02027H460.07V7.12732ZM457.733 8.0738V22.5549H459.626V8.0738H457.733ZM458.679 23.5014H460.07V21.6085H458.679V23.5014ZM461.017 22.5549V14.1786H459.124V22.5549H461.017ZM461.017 14.1786C461.017 11.6775 462.793 9.95729 465.096 9.95729V8.06433C461.72 8.06433 459.124 10.6601 459.124 14.1786H461.017ZM465.096 9.95729C466.337 9.95729 467.216 10.3656 467.793 10.9999C468.38 11.6461 468.75 12.6324 468.75 13.9514H470.643C470.643 12.289 470.174 10.8051 469.193 9.72628C468.201 8.63561 466.78 8.06433 465.096 8.06433V9.95729ZM468.75 13.9514V22.5549H470.643V13.9514H468.75ZM469.696 23.5014H471.087V21.6085H469.696V23.5014Z" fill="white"/>
</svg>
