<svg width="473" height="24" viewBox="0 0 473 24" fill="none" xmlns="http://www.w3.org/2000/svg">
<path d="M18.1453 22.5771V2.70108H16.7256V19.9933L3.0111 2.70108H1.61978V22.5771H3.0395V4.91584L17.0379 22.5771H18.1453ZM35.8645 22.5771V8.09601H34.4732V16.4724C34.4732 19.4822 32.2868 21.6401 29.4474 21.6401C26.5228 21.6401 24.8475 19.6809 24.8475 16.6995V8.09601H23.4562V16.9551C23.4562 20.4192 25.5857 22.9179 29.2486 22.9179C31.8893 22.9179 33.5078 21.5833 34.4732 19.8797V22.5771H35.8645ZM63.0459 22.5771V13.8033C63.0459 10.1688 60.9163 7.75528 57.4806 7.75528C54.7548 7.75528 53.1931 9.26018 52.2561 10.8787C51.461 9.20339 49.8993 7.75528 47.3722 7.75528C44.7883 7.75528 43.4822 9.175 42.5452 10.6799V8.09601H41.1539V22.5771H42.5452V14.2292C42.5452 11.3046 44.5896 9.03303 47.1735 9.03303C49.7574 9.03303 51.4042 10.8787 51.4042 13.8885V22.5771H52.7956V14.144C52.7956 10.9071 54.9251 9.03303 57.367 9.03303C60.0361 9.03303 61.6546 10.8503 61.6546 13.9737V22.5771H63.0459ZM82.5577 15.3366V15.2798C82.5577 10.5663 79.0085 7.75528 75.5159 7.75528C72.6481 7.75528 70.8025 9.43055 69.5531 11.333V1.84925H68.1618V22.5771H69.5531V19.4538C70.7457 21.271 72.6197 22.9179 75.5159 22.9179C79.0085 22.9179 82.5577 20.05 82.5577 15.3366ZM81.0528 15.3934C81.0528 19.2834 78.5257 21.5833 75.374 21.5833C72.3642 21.5833 69.4679 19.0846 69.4679 15.365V15.3082C69.4679 11.6169 72.3642 9.08982 75.374 9.08982C78.4122 9.08982 81.0528 11.5317 81.0528 15.3366V15.3934ZM87.3892 15.9045H99.4001C99.4284 15.6773 99.4284 15.5921 99.4284 15.3934V15.3366C99.4284 11.049 96.8446 7.75528 92.7842 7.75528C88.8657 7.75528 85.9127 11.1058 85.9127 15.3082V15.365C85.9127 19.8797 89.2065 22.9179 93.0113 22.9179C95.794 22.9179 97.526 21.7821 99.0025 20.192L98.0371 19.3402C96.8446 20.6179 95.3113 21.6117 93.0681 21.6117C90.2287 21.6117 87.6448 19.5106 87.3892 15.9045ZM87.3892 14.6551C87.6448 11.4465 89.8595 9.03303 92.7274 9.03303C96.0495 9.03303 97.7248 11.7305 97.9235 14.6551H87.3892ZM111.297 9.40215V7.86886C108.429 7.75528 106.015 9.62931 104.88 12.2132V8.09601H103.488V22.5771H104.88V16.6427C104.88 11.9293 107.804 9.40215 111.155 9.40215H111.297ZM137.255 15.3366V15.2798C137.255 11.2194 134.131 7.75528 129.844 7.75528C125.528 7.75528 122.376 11.2762 122.376 15.3366V15.3934C122.376 19.4538 125.5 22.9179 129.787 22.9179C134.103 22.9179 137.255 19.397 137.255 15.3366ZM135.75 15.3934C135.75 18.8007 133.28 21.6117 129.844 21.6117C126.493 21.6117 123.881 18.8291 123.881 15.3366V15.2798C123.881 11.8725 126.351 9.06142 129.787 9.06142C133.138 9.06142 135.75 11.8441 135.75 15.3366V15.3934ZM148.858 3.41094V2.1048C148.205 1.87764 147.58 1.76406 146.7 1.76406C143.974 1.76406 142.384 3.55291 142.384 6.67629V8.09601H140.283V9.37376H142.384V22.5771H143.776V9.37376H148.83V8.09601H143.776V6.70469C143.776 4.23438 144.713 3.04181 146.7 3.04181C147.438 3.04181 148.035 3.15539 148.858 3.41094ZM167.516 22.3216V21.0155C166.693 21.3846 166.097 21.5266 165.387 21.5266C163.712 21.5266 162.491 20.7883 162.491 18.7155V9.37376H167.573V8.09601H162.491V3.46773H161.099V8.09601H158.998V9.37376H161.099V18.8575C161.099 21.6117 162.917 22.8327 165.16 22.8327C166.068 22.8327 166.778 22.6623 167.516 22.3216ZM184.11 22.5771V13.7181C184.11 10.254 181.98 7.75528 178.317 7.75528C175.677 7.75528 174.058 9.08982 173.093 10.7935V1.84925H171.701V22.5771H173.093V14.2008C173.093 11.191 175.279 9.03303 178.119 9.03303C181.043 9.03303 182.718 10.9922 182.718 13.9737V22.5771H184.11ZM189.598 15.9045H201.609C201.637 15.6773 201.637 15.5921 201.637 15.3934V15.3366C201.637 11.049 199.053 7.75528 194.993 7.75528C191.074 7.75528 188.121 11.1058 188.121 15.3082V15.365C188.121 19.8797 191.415 22.9179 195.22 22.9179C198.003 22.9179 199.735 21.7821 201.211 20.192L200.246 19.3402C199.053 20.6179 197.52 21.6117 195.277 21.6117C192.437 21.6117 189.853 19.5106 189.598 15.9045ZM189.598 14.6551C189.853 11.4465 192.068 9.03303 194.936 9.03303C198.258 9.03303 199.933 11.7305 200.132 14.6551H189.598ZM230.281 17.1538V17.097C230.281 14.3428 228.18 12.9798 225.795 12.3552C227.413 11.7021 229.174 10.3392 229.174 7.6417V7.58491C229.174 4.6035 226.59 2.70108 222.728 2.70108H214.522V22.5771H223.154C227.442 22.5771 230.281 20.476 230.281 17.1538ZM227.669 7.78367C227.669 10.4244 225.539 11.8725 222.558 11.8725H215.999V4.06401H222.7C225.88 4.06401 227.669 5.54052 227.669 7.72689V7.78367ZM228.776 17.1538C228.776 19.6525 226.618 21.2142 223.211 21.2142H215.999V13.2354H222.728C226.647 13.2354 228.776 14.6551 228.776 17.097V17.1538ZM235.184 15.9045H247.195C247.223 15.6773 247.223 15.5921 247.223 15.3934V15.3366C247.223 11.049 244.64 7.75528 240.579 7.75528C236.661 7.75528 233.708 11.1058 233.708 15.3082V15.365C233.708 19.8797 237.001 22.9179 240.806 22.9179C243.589 22.9179 245.321 21.7821 246.798 20.192L245.832 19.3402C244.64 20.6179 243.106 21.6117 240.863 21.6117C238.024 21.6117 235.44 19.5106 235.184 15.9045ZM235.184 14.6551C235.44 11.4465 237.655 9.03303 240.522 9.03303C243.844 9.03303 245.52 11.7305 245.719 14.6551H235.184ZM262.584 22.5771V13.5477C262.584 9.79968 260.256 7.86886 256.536 7.86886C254.549 7.86886 252.987 8.37996 251.397 9.11821L251.908 10.3392C253.243 9.6577 254.691 9.175 256.451 9.175C259.433 9.175 261.221 10.6799 261.221 13.6045V14.2292C259.83 13.8601 258.439 13.6045 256.423 13.6045C252.675 13.6045 250.091 15.3082 250.091 18.318V18.3748C250.091 21.3846 252.987 22.9179 255.685 22.9179C258.439 22.9179 260.228 21.555 261.221 20.1636V22.5771H262.584ZM261.25 17.1538C261.25 19.7945 258.723 21.6117 255.77 21.6117C253.555 21.6117 251.567 20.3908 251.567 18.2896V18.2328C251.567 16.2168 253.271 14.8539 256.338 14.8539C258.41 14.8539 260.029 15.1946 261.25 15.5069V17.1538ZM277.27 18.6303V18.5735C277.27 16.018 274.829 15.1662 272.5 14.5131C270.427 13.9169 268.468 13.3206 268.468 11.7021V11.6453C268.468 10.1972 269.774 9.11821 271.762 9.11821C273.295 9.11821 274.885 9.6861 276.22 10.5663L276.958 9.40215C275.51 8.43675 273.551 7.81207 271.819 7.81207C269.008 7.81207 267.048 9.48734 267.048 11.8157V11.8725C267.048 14.4564 269.661 15.1662 272.017 15.8477C274.033 16.4156 275.851 17.0402 275.851 18.7439V18.8007C275.851 20.476 274.317 21.555 272.358 21.555C270.513 21.555 268.752 20.8735 267.162 19.6525L266.339 20.7599C267.872 22.0093 270.172 22.8611 272.273 22.8611C275.056 22.8611 277.27 21.2142 277.27 18.6303ZM288.608 22.3216V21.0155C287.785 21.3846 287.189 21.5266 286.479 21.5266C284.804 21.5266 283.583 20.7883 283.583 18.7155V9.37376H288.665V8.09601H283.583V3.46773H282.191V8.09601H280.09V9.37376H282.191V18.8575C282.191 21.6117 284.009 22.8327 286.252 22.8327C287.16 22.8327 287.87 22.6623 288.608 22.3216ZM299.75 14.9391V13.349H292.14V14.9391H299.75ZM314.885 22.5771V2.70108H313.408V22.5771H314.885ZM328.497 9.40215V7.86886C325.629 7.75528 323.216 9.62931 322.08 12.2132V8.09601H320.689V22.5771H322.08V16.6427C322.08 11.9293 325.005 9.40215 328.355 9.40215H328.497ZM345.222 15.3366V15.2798C345.222 11.2194 342.098 7.75528 337.811 7.75528C333.495 7.75528 330.343 11.2762 330.343 15.3366V15.3934C330.343 19.4538 333.466 22.9179 337.754 22.9179C342.07 22.9179 345.222 19.397 345.222 15.3366ZM343.717 15.3934C343.717 18.8007 341.246 21.6117 337.811 21.6117C334.46 21.6117 331.848 18.8291 331.848 15.3366V15.2798C331.848 11.8725 334.318 9.06142 337.754 9.06142C341.104 9.06142 343.717 11.8441 343.717 15.3366V15.3934ZM361.907 22.5771V13.7181C361.907 10.254 359.778 7.75528 356.115 7.75528C353.474 7.75528 351.856 9.08982 350.89 10.7935V8.09601H349.499V22.5771H350.89V14.2008C350.89 11.191 353.077 9.03303 355.916 9.03303C358.841 9.03303 360.516 10.9922 360.516 13.9737V22.5771H361.907ZM394.478 22.5771V2.70108H393.087L385.108 14.4564L377.129 2.70108H375.738V22.5771H377.158V5.31336L385.023 16.7563H385.136L393.002 5.31336V22.5771H394.478ZM411.378 22.5771V13.5477C411.378 9.79968 409.049 7.86886 405.33 7.86886C403.342 7.86886 401.78 8.37996 400.19 9.11821L400.701 10.3392C402.036 9.6577 403.484 9.175 405.244 9.175C408.226 9.175 410.015 10.6799 410.015 13.6045V14.2292C408.623 13.8601 407.232 13.6045 405.216 13.6045C401.468 13.6045 398.884 15.3082 398.884 18.318V18.3748C398.884 21.3846 401.78 22.9179 404.478 22.9179C407.232 22.9179 409.021 21.555 410.015 20.1636V22.5771H411.378ZM410.043 17.1538C410.043 19.7945 407.516 21.6117 404.563 21.6117C402.348 21.6117 400.361 20.3908 400.361 18.2896V18.2328C400.361 16.2168 402.064 14.8539 405.131 14.8539C407.204 14.8539 408.822 15.1946 410.043 15.5069V17.1538ZM418.142 4.31956V2.41714H416.41V4.31956H418.142ZM417.971 22.5771V8.09601H416.58V22.5771H417.971ZM436.911 22.5771V1.84925H435.52V11.2194C434.327 9.40215 432.453 7.75528 429.557 7.75528C426.064 7.75528 422.515 10.6231 422.515 15.3366V15.3934C422.515 20.1068 426.064 22.9179 429.557 22.9179C432.425 22.9179 434.27 21.2426 435.52 19.3402V22.5771H436.911ZM435.605 15.365C435.605 19.0562 432.709 21.5833 429.699 21.5833C426.661 21.5833 424.02 19.1414 424.02 15.3366V15.2798C424.02 11.3898 426.547 9.08982 429.699 9.08982C432.709 9.08982 435.605 11.5885 435.605 15.3082V15.365ZM442.679 15.9045H454.69C454.719 15.6773 454.719 15.5921 454.719 15.3934V15.3366C454.719 11.049 452.135 7.75528 448.074 7.75528C444.156 7.75528 441.203 11.1058 441.203 15.3082V15.365C441.203 19.8797 444.497 22.9179 448.302 22.9179C451.084 22.9179 452.816 21.7821 454.293 20.192L453.327 19.3402C452.135 20.6179 450.602 21.6117 448.358 21.6117C445.519 21.6117 442.935 19.5106 442.679 15.9045ZM442.679 14.6551C442.935 11.4465 445.15 9.03303 448.018 9.03303C451.34 9.03303 453.015 11.7305 453.214 14.6551H442.679ZM471.187 22.5771V13.7181C471.187 10.254 469.057 7.75528 465.395 7.75528C462.754 7.75528 461.135 9.08982 460.17 10.7935V8.09601H458.779V22.5771H460.17V14.2008C460.17 11.191 462.356 9.03303 465.196 9.03303C468.12 9.03303 469.796 10.9922 469.796 13.9737V22.5771H471.187Z" fill="white"/>
<path d="M18.1453 22.5771V23.5236H19.0918V22.5771H18.1453ZM18.1453 2.70108H19.0918V1.7546H18.1453V2.70108ZM16.7256 2.70108V1.7546H15.7791V2.70108H16.7256ZM16.7256 19.9933L15.984 20.5814L17.6721 22.7098V19.9933H16.7256ZM3.0111 2.70108L3.75267 2.11294L3.46847 1.7546H3.0111V2.70108ZM1.61978 2.70108V1.7546H0.6733V2.70108H1.61978ZM1.61978 22.5771H0.6733V23.5236H1.61978V22.5771ZM3.0395 22.5771V23.5236H3.98598V22.5771H3.0395ZM3.0395 4.91584L3.78124 4.32793L2.09302 2.19796V4.91584H3.0395ZM17.0379 22.5771L16.2962 23.1651L16.5804 23.5236H17.0379V22.5771ZM19.0918 22.5771V2.70108H17.1988V22.5771H19.0918ZM18.1453 1.7546H16.7256V3.64756H18.1453V1.7546ZM15.7791 2.70108V19.9933H17.6721V2.70108H15.7791ZM17.4672 19.4051L3.75267 2.11294L2.26954 3.28922L15.984 20.5814L17.4672 19.4051ZM3.0111 1.7546H1.61978V3.64756H3.0111V1.7546ZM0.6733 2.70108V22.5771H2.56626V2.70108H0.6733ZM1.61978 23.5236H3.0395V21.6307H1.61978V23.5236ZM3.98598 22.5771V4.91584H2.09302V22.5771H3.98598ZM2.29775 5.50375L16.2962 23.1651L17.7797 21.9892L3.78124 4.32793L2.29775 5.50375ZM17.0379 23.5236H18.1453V21.6307H17.0379V23.5236ZM35.8645 22.5771V23.5236H36.811V22.5771H35.8645ZM35.8645 8.09601H36.811V7.14953H35.8645V8.09601ZM34.4732 8.09601V7.14953H33.5267V8.09601H34.4732ZM24.8475 8.09601H25.794V7.14953H24.8475V8.09601ZM23.4562 8.09601V7.14953H22.5097V8.09601H23.4562ZM34.4732 19.8797H35.4197V16.2896L33.6497 19.4131L34.4732 19.8797ZM34.4732 22.5771H33.5267V23.5236H34.4732V22.5771ZM36.811 22.5771V8.09601H34.918V22.5771H36.811ZM35.8645 7.14953H34.4732V9.04249H35.8645V7.14953ZM33.5267 8.09601V16.4724H35.4197V8.09601H33.5267ZM33.5267 16.4724C33.5267 18.9734 31.7502 20.6937 29.4474 20.6937V22.5866C32.8234 22.5866 35.4197 19.9909 35.4197 16.4724H33.5267ZM29.4474 20.6937C28.2067 20.6937 27.3278 20.2853 26.7509 19.651C26.1632 19.0049 25.794 18.0185 25.794 16.6995H23.901C23.901 18.3619 24.3694 19.8459 25.3505 20.9247C26.3424 22.0153 27.7634 22.5866 29.4474 22.5866V20.6937ZM25.794 16.6995V8.09601H23.901V16.6995H25.794ZM24.8475 7.14953H23.4562V9.04249H24.8475V7.14953ZM22.5097 8.09601V16.9551H24.4026V8.09601H22.5097ZM22.5097 16.9551C22.5097 18.879 23.1031 20.617 24.2879 21.8824C25.4805 23.1562 27.1917 23.8644 29.2486 23.8644V21.9714C27.6427 21.9714 26.4576 21.4302 25.6697 20.5886C24.874 19.7387 24.4026 18.4952 24.4026 16.9551H22.5097ZM29.2486 23.8644C32.2879 23.8644 34.1937 22.2926 35.2966 20.3463L33.6497 19.4131C32.8218 20.8741 31.4907 21.9714 29.2486 21.9714V23.8644ZM33.5267 19.8797V22.5771H35.4197V19.8797H33.5267ZM34.4732 23.5236H35.8645V21.6307H34.4732V23.5236ZM63.0459 22.5771V23.5236H63.9924V22.5771H63.0459ZM52.2561 10.8787L51.401 11.2845L52.173 12.9112L53.0752 11.3529L52.2561 10.8787ZM42.5452 10.6799H41.5987V13.9907L43.3486 11.1802L42.5452 10.6799ZM42.5452 8.09601H43.4917V7.14953H42.5452V8.09601ZM41.1539 8.09601V7.14953H40.2074V8.09601H41.1539ZM41.1539 22.5771H40.2074V23.5236H41.1539V22.5771ZM42.5452 22.5771V23.5236H43.4917V22.5771H42.5452ZM51.4042 22.5771H50.4577V23.5236H51.4042V22.5771ZM52.7956 22.5771V23.5236H53.742V22.5771H52.7956ZM61.6546 22.5771H60.7081V23.5236H61.6546V22.5771ZM63.9924 22.5771V13.8033H62.0994V22.5771H63.9924ZM63.9924 13.8033C63.9924 11.8046 63.4051 10.0477 62.2519 8.77956C61.0895 7.50136 59.4319 6.8088 57.4806 6.8088V8.70176C58.965 8.70176 60.0901 9.21597 60.8514 10.0531C61.6219 10.9004 62.0994 12.1675 62.0994 13.8033H63.9924ZM57.4806 6.8088C54.3143 6.8088 52.4845 8.59506 51.4369 10.4044L53.0752 11.3529C53.9017 9.9253 55.1952 8.70176 57.4806 8.70176V6.8088ZM53.1111 10.4729C52.1948 8.54192 50.3407 6.8088 47.3722 6.8088V8.70176C49.4579 8.70176 50.7273 9.86486 51.401 11.2845L53.1111 10.4729ZM47.3722 6.8088C45.8908 6.8088 44.7258 7.22088 43.794 7.8809C42.8798 8.52846 42.2397 9.37978 41.7417 10.1796L43.3486 11.1802C43.7876 10.4751 44.2691 9.86413 44.8882 9.4256C45.4897 8.99954 46.2698 8.70176 47.3722 8.70176V6.8088ZM43.4917 10.6799V8.09601H41.5987V10.6799H43.4917ZM42.5452 7.14953H41.1539V9.04249H42.5452V7.14953ZM40.2074 8.09601V22.5771H42.1003V8.09601H40.2074ZM41.1539 23.5236H42.5452V21.6307H41.1539V23.5236ZM43.4917 22.5771V14.2292H41.5987V22.5771H43.4917ZM43.4917 14.2292C43.4917 11.7243 45.2097 9.97951 47.1735 9.97951V8.08655C43.9695 8.08655 41.5987 10.8849 41.5987 14.2292H43.4917ZM47.1735 9.97951C48.2263 9.97951 49.0122 10.3473 49.5463 10.9562C50.0925 11.5789 50.4577 12.55 50.4577 13.8885H52.3507C52.3507 12.2171 51.8926 10.7605 50.9694 9.70796C50.034 8.6416 48.7045 8.08655 47.1735 8.08655V9.97951ZM50.4577 13.8885V22.5771H52.3507V13.8885H50.4577ZM51.4042 23.5236H52.7956V21.6307H51.4042V23.5236ZM53.742 22.5771V14.144H51.8491V22.5771H53.742ZM53.742 14.144C53.742 11.3924 55.4845 9.97951 57.367 9.97951V8.08655C54.3658 8.08655 51.8491 10.4217 51.8491 14.144H53.742ZM57.367 9.97951C58.4747 9.97951 59.2689 10.3482 59.7991 10.9549C60.3438 11.5782 60.7081 12.5663 60.7081 13.9737H62.6011C62.6011 12.2576 62.1562 10.7754 61.2244 9.70923C60.2781 8.62643 58.9285 8.08655 57.367 8.08655V9.97951ZM60.7081 13.9737V22.5771H62.6011V13.9737H60.7081ZM61.6546 23.5236H63.0459V21.6307H61.6546V23.5236ZM69.5531 11.333H68.6066V14.4984L70.3443 11.8525L69.5531 11.333ZM69.5531 1.84925H70.4996V0.902769H69.5531V1.84925ZM68.1618 1.84925V0.902769H67.2153V1.84925H68.1618ZM68.1618 22.5771H67.2153V23.5236H68.1618V22.5771ZM69.5531 22.5771V23.5236H70.4996V22.5771H69.5531ZM69.5531 19.4538L70.3444 18.9345L68.6066 16.2864V19.4538H69.5531ZM83.5042 15.3366V15.2798H81.6113V15.3366H83.5042ZM83.5042 15.2798C83.5042 10.0219 79.5093 6.8088 75.5159 6.8088V8.70176C78.5076 8.70176 81.6113 11.1107 81.6113 15.2798H83.5042ZM75.5159 6.8088C72.2026 6.8088 70.1029 8.77153 68.762 10.8134L70.3443 11.8525C71.502 10.0896 73.0937 8.70176 75.5159 8.70176V6.8088ZM70.4996 11.333V1.84925H68.6066V11.333H70.4996ZM69.5531 0.902769H68.1618V2.79573H69.5531V0.902769ZM67.2153 1.84925V22.5771H69.1083V1.84925H67.2153ZM68.1618 23.5236H69.5531V21.6307H68.1618V23.5236ZM70.4996 22.5771V19.4538H68.6066V22.5771H70.4996ZM68.7618 19.9731C70.0592 21.95 72.1912 23.8644 75.5159 23.8644V21.9714C73.0482 21.9714 71.4322 20.592 70.3444 18.9345L68.7618 19.9731ZM75.5159 23.8644C79.5191 23.8644 83.5042 20.5848 83.5042 15.3366H81.6113C81.6113 19.5153 78.4978 21.9714 75.5159 21.9714V23.8644ZM80.1064 15.3934C80.1064 17.1284 79.5468 18.4285 78.7148 19.2893C77.8816 20.1514 76.7145 20.6369 75.374 20.6369V22.5298C77.1853 22.5298 78.8576 21.8654 80.0759 20.6049C81.2953 19.3433 81.9993 17.5484 81.9993 15.3934H80.1064ZM75.374 20.6369C72.8782 20.6369 70.4144 18.5533 70.4144 15.365H68.5215C68.5215 19.616 71.8501 22.5298 75.374 22.5298V20.6369ZM70.4144 15.365V15.3082H68.5215V15.365H70.4144ZM70.4144 15.3082C70.4144 12.1454 72.8811 10.0363 75.374 10.0363V8.14334C71.8472 8.14334 68.5215 11.0884 68.5215 15.3082H70.4144ZM75.374 10.0363C77.8511 10.0363 80.1064 12.0153 80.1064 15.3366H81.9993C81.9993 11.0482 78.9732 8.14334 75.374 8.14334V10.0363ZM80.1064 15.3366V15.3934H81.9993V15.3366H80.1064ZM87.3892 15.9045V14.958H86.3733L86.4451 15.9714L87.3892 15.9045ZM99.4001 15.9045V16.8509H100.236L100.339 16.0219L99.4001 15.9045ZM99.0025 20.192L99.6961 20.8361L100.357 20.1246L99.6287 19.4823L99.0025 20.192ZM98.0371 19.3402L98.6633 18.6305L97.9732 18.0215L97.3452 18.6944L98.0371 19.3402ZM87.3892 14.6551L86.4457 14.58L86.3644 15.6016H87.3892V14.6551ZM97.9235 14.6551V15.6016H98.9365L98.8678 14.5909L97.9235 14.6551ZM87.3892 16.8509H99.4001V14.958H87.3892V16.8509ZM100.339 16.0219C100.375 15.7396 100.375 15.6108 100.375 15.3934H98.482C98.482 15.5735 98.4824 15.615 98.4609 15.7871L100.339 16.0219ZM100.375 15.3934V15.3366H98.482V15.3934H100.375ZM100.375 15.3366C100.375 13.008 99.673 10.884 98.3506 9.32571C97.0166 7.75365 95.0913 6.8088 92.7842 6.8088V8.70176C94.5374 8.70176 95.9342 9.40378 96.9073 10.5505C97.892 11.7109 98.482 13.3776 98.482 15.3366H100.375ZM92.7842 6.8088C88.2526 6.8088 84.9662 10.6783 84.9662 15.3082H86.8592C86.8592 11.5334 89.4788 8.70176 92.7842 8.70176V6.8088ZM84.9662 15.3082V15.365H86.8592V15.3082H84.9662ZM84.9662 15.365C84.9662 20.3854 88.6669 23.8644 93.0113 23.8644V21.9714C89.746 21.9714 86.8592 19.3739 86.8592 15.365H84.9662ZM93.0113 23.8644C96.125 23.8644 98.0926 22.5629 99.6961 20.8361L98.309 19.548C96.9595 21.0013 95.463 21.9714 93.0113 21.9714V23.8644ZM99.6287 19.4823L98.6633 18.6305L97.4109 20.0499L98.3763 20.9017L99.6287 19.4823ZM97.3452 18.6944C96.2763 19.8397 94.9775 20.6653 93.0681 20.6653V22.5582C95.645 22.5582 97.4128 21.3962 98.7291 19.986L97.3452 18.6944ZM93.0681 20.6653C90.7377 20.6653 88.5546 18.9604 88.3333 15.8376L86.4451 15.9714C86.7349 20.0607 89.7197 22.5582 93.0681 22.5582V20.6653ZM88.3327 14.7303C88.5591 11.8881 90.4698 9.97951 92.7274 9.97951V8.08655C89.2493 8.08655 86.7305 11.005 86.4457 14.58L88.3327 14.7303ZM92.7274 9.97951C94.1005 9.97951 95.0843 10.5235 95.767 11.3501C96.4708 12.2022 96.8898 13.4036 96.9792 14.7193L98.8678 14.5909C98.7585 12.982 98.2405 11.3724 97.2265 10.1446C96.1913 8.8913 94.6764 8.08655 92.7274 8.08655V9.97951ZM97.9235 13.7086H87.3892V15.6016H97.9235V13.7086ZM111.297 9.40215V10.3486H112.243V9.40215H111.297ZM111.297 7.86886H112.243V6.95912L111.334 6.92312L111.297 7.86886ZM104.88 12.2132H103.933L105.746 12.5941L104.88 12.2132ZM104.88 8.09601H105.826V7.14953H104.88V8.09601ZM103.488 8.09601V7.14953H102.542V8.09601H103.488ZM103.488 22.5771H102.542V23.5236H103.488V22.5771ZM104.88 22.5771V23.5236H105.826V22.5771H104.88ZM112.243 9.40215V7.86886H110.35V9.40215H112.243ZM111.334 6.92312C107.997 6.79096 105.27 8.9722 104.013 11.8323L105.746 12.5941C106.761 10.2864 108.861 8.7196 111.259 8.8146L111.334 6.92312ZM105.826 12.2132V8.09601H103.933V12.2132H105.826ZM104.88 7.14953H103.488V9.04249H104.88V7.14953ZM102.542 8.09601V22.5771H104.435V8.09601H102.542ZM103.488 23.5236H104.88V21.6307H103.488V23.5236ZM105.826 22.5771V16.6427H103.933V22.5771H105.826ZM105.826 16.6427C105.826 14.4855 106.492 12.921 107.45 11.9038C108.409 10.8854 109.723 10.3486 111.155 10.3486V8.45568C109.237 8.45568 107.413 9.18242 106.072 10.606C104.73 12.0307 103.933 14.0864 103.933 16.6427H105.826ZM111.155 10.3486H111.297V8.45568H111.155V10.3486ZM138.201 15.3366V15.2798H136.308V15.3366H138.201ZM138.201 15.2798C138.201 10.7347 134.691 6.8088 129.844 6.8088V8.70176C133.571 8.70176 136.308 11.7041 136.308 15.2798H138.201ZM129.844 6.8088C124.966 6.8088 121.43 10.7935 121.43 15.3366H123.323C123.323 11.7588 126.09 8.70176 129.844 8.70176V6.8088ZM121.43 15.3366V15.3934H123.323V15.3366H121.43ZM121.43 15.3934C121.43 19.9384 124.94 23.8644 129.787 23.8644V21.9714C126.06 21.9714 123.323 18.9691 123.323 15.3934H121.43ZM129.787 23.8644C134.665 23.8644 138.201 19.8796 138.201 15.3366H136.308C136.308 18.9143 133.541 21.9714 129.787 21.9714V23.8644ZM134.803 15.3934C134.803 18.3461 132.691 20.6653 129.844 20.6653V22.5582C133.868 22.5582 136.696 19.2553 136.696 15.3934H134.803ZM129.844 20.6653C127.064 20.6653 124.828 18.3559 124.828 15.3366H122.935C122.935 19.3023 125.923 22.5582 129.844 22.5582V20.6653ZM124.828 15.3366V15.2798H122.935V15.3366H124.828ZM124.828 15.2798C124.828 12.327 126.94 10.0079 129.787 10.0079V8.11494C125.763 8.11494 122.935 11.4179 122.935 15.2798H124.828ZM129.787 10.0079C132.567 10.0079 134.803 12.3173 134.803 15.3366H136.696C136.696 11.3709 133.709 8.11494 129.787 8.11494V10.0079ZM134.803 15.3366V15.3934H136.696V15.3366H134.803ZM148.858 3.41094L148.578 4.31489L149.805 4.69569V3.41094H148.858ZM148.858 2.1048H149.805V1.43191L149.169 1.21085L148.858 2.1048ZM142.384 8.09601V9.04249H143.331V8.09601H142.384ZM140.283 8.09601V7.14953H139.337V8.09601H140.283ZM140.283 9.37376H139.337V10.3202H140.283V9.37376ZM142.384 9.37376H143.331V8.42728H142.384V9.37376ZM142.384 22.5771H141.438V23.5236H142.384V22.5771ZM143.776 22.5771V23.5236H144.722V22.5771H143.776ZM143.776 9.37376V8.42728H142.829V9.37376H143.776ZM148.83 9.37376V10.3202H149.776V9.37376H148.83ZM148.83 8.09601H149.776V7.14953H148.83V8.09601ZM143.776 8.09601H142.829V9.04249H143.776V8.09601ZM149.805 3.41094V2.1048H147.912V3.41094H149.805ZM149.169 1.21085C148.409 0.946633 147.679 0.817586 146.7 0.817586V2.71054C147.482 2.71054 148.001 2.80865 148.547 2.99874L149.169 1.21085ZM146.7 0.817586C145.12 0.817586 143.761 1.34384 142.81 2.4231C141.874 3.48547 141.438 4.96424 141.438 6.67629H143.331C143.331 5.26496 143.69 4.28762 144.23 3.67472C144.755 3.07871 145.554 2.71054 146.7 2.71054V0.817586ZM141.438 6.67629V8.09601H143.331V6.67629H141.438ZM142.384 7.14953H140.283V9.04249H142.384V7.14953ZM139.337 8.09601V9.37376H141.23V8.09601H139.337ZM140.283 10.3202H142.384V8.42728H140.283V10.3202ZM141.438 9.37376V22.5771H143.331V9.37376H141.438ZM142.384 23.5236H143.776V21.6307H142.384V23.5236ZM144.722 22.5771V9.37376H142.829V22.5771H144.722ZM143.776 10.3202H148.83V8.42728H143.776V10.3202ZM149.776 9.37376V8.09601H147.883V9.37376H149.776ZM148.83 7.14953H143.776V9.04249H148.83V7.14953ZM144.722 8.09601V6.70469H142.829V8.09601H144.722ZM144.722 6.70469C144.722 5.56024 144.944 4.8994 145.233 4.53603C145.487 4.21736 145.904 3.98829 146.7 3.98829V2.09533C145.509 2.09533 144.464 2.46255 143.752 3.35774C143.075 4.20822 142.829 5.37883 142.829 6.70469H144.722ZM146.7 3.98829C147.316 3.98829 147.815 4.07816 148.578 4.31489L149.139 2.50699C148.255 2.23263 147.561 2.09533 146.7 2.09533V3.98829ZM167.516 22.3216L167.913 23.181L168.463 22.9272V22.3216H167.516ZM167.516 21.0155H168.463V19.5539L167.129 20.1518L167.516 21.0155ZM162.491 9.37376V8.42728H161.544V9.37376H162.491ZM167.573 9.37376V10.3202H168.52V9.37376H167.573ZM167.573 8.09601H168.52V7.14953H167.573V8.09601ZM162.491 8.09601H161.544V9.04249H162.491V8.09601ZM162.491 3.46773H163.437V2.52125H162.491V3.46773ZM161.099 3.46773V2.52125H160.153V3.46773H161.099ZM161.099 8.09601V9.04249H162.046V8.09601H161.099ZM158.998 8.09601V7.14953H158.052V8.09601H158.998ZM158.998 9.37376H158.052V10.3202H158.998V9.37376ZM161.099 9.37376H162.046V8.42728H161.099V9.37376ZM168.463 22.3216V21.0155H166.57V22.3216H168.463ZM167.129 20.1518C166.397 20.48 165.933 20.5801 165.387 20.5801V22.473C166.26 22.473 166.989 22.2892 167.904 21.8791L167.129 20.1518ZM165.387 20.5801C164.668 20.5801 164.204 20.419 163.928 20.1815C163.679 19.9667 163.437 19.5619 163.437 18.7155H161.544C161.544 19.9419 161.912 20.9426 162.692 21.6152C163.446 22.265 164.431 22.473 165.387 22.473V20.5801ZM163.437 18.7155V9.37376H161.544V18.7155H163.437ZM162.491 10.3202H167.573V8.42728H162.491V10.3202ZM168.52 9.37376V8.09601H166.627V9.37376H168.52ZM167.573 7.14953H162.491V9.04249H167.573V7.14953ZM163.437 8.09601V3.46773H161.544V8.09601H163.437ZM162.491 2.52125H161.099V4.41421H162.491V2.52125ZM160.153 3.46773V8.09601H162.046V3.46773H160.153ZM161.099 7.14953H158.998V9.04249H161.099V7.14953ZM158.052 8.09601V9.37376H159.945V8.09601H158.052ZM158.998 10.3202H161.099V8.42728H158.998V10.3202ZM160.153 9.37376V18.8575H162.046V9.37376H160.153ZM160.153 18.8575C160.153 20.4557 160.689 21.7271 161.661 22.587C162.615 23.43 163.877 23.7792 165.16 23.7792V21.8862C164.199 21.8862 163.431 21.6249 162.915 21.1688C162.418 20.7297 162.046 20.0135 162.046 18.8575H160.153ZM165.16 23.7792C166.208 23.7792 167.053 23.5777 167.913 23.181L167.12 21.4622C166.503 21.7469 165.928 21.8862 165.16 21.8862V23.7792ZM184.11 22.5771V23.5236H185.056V22.5771H184.11ZM173.093 10.7935H172.146V14.3835L173.916 11.2601L173.093 10.7935ZM173.093 1.84925H174.039V0.902769H173.093V1.84925ZM171.701 1.84925V0.902769H170.755V1.84925H171.701ZM171.701 22.5771H170.755V23.5236H171.701V22.5771ZM173.093 22.5771V23.5236H174.039V22.5771H173.093ZM182.718 22.5771H181.772V23.5236H182.718V22.5771ZM185.056 22.5771V13.7181H183.163V22.5771H185.056ZM185.056 13.7181C185.056 11.7941 184.463 10.0562 183.278 8.79077C182.085 7.51695 180.374 6.8088 178.317 6.8088V8.70176C179.923 8.70176 181.108 9.24297 181.896 10.0845C182.692 10.9345 183.163 12.178 183.163 13.7181H185.056ZM178.317 6.8088C175.278 6.8088 173.372 8.38052 172.269 10.3269L173.916 11.2601C174.744 9.79911 176.075 8.70176 178.317 8.70176V6.8088ZM174.039 10.7935V1.84925H172.146V10.7935H174.039ZM173.093 0.902769H171.701V2.79573H173.093V0.902769ZM170.755 1.84925V22.5771H172.648V1.84925H170.755ZM171.701 23.5236H173.093V21.6307H171.701V23.5236ZM174.039 22.5771V14.2008H172.146V22.5771H174.039ZM174.039 14.2008C174.039 11.6997 175.816 9.97951 178.119 9.97951V8.08655C174.743 8.08655 172.146 10.6823 172.146 14.2008H174.039ZM178.119 9.97951C179.359 9.97951 180.238 10.3878 180.815 11.0221C181.403 11.6683 181.772 12.6546 181.772 13.9737H183.665C183.665 12.3113 183.197 10.8273 182.215 9.7485C181.224 8.65783 179.803 8.08655 178.119 8.08655V9.97951ZM181.772 13.9737V22.5771H183.665V13.9737H181.772ZM182.718 23.5236H184.11V21.6307H182.718V23.5236ZM189.598 15.9045V14.958H188.582L188.654 15.9714L189.598 15.9045ZM201.609 15.9045V16.8509H202.444L202.548 16.0219L201.609 15.9045ZM201.211 20.192L201.905 20.8361L202.565 20.1246L201.837 19.4823L201.211 20.192ZM200.246 19.3402L200.872 18.6305L200.182 18.0215L199.554 18.6944L200.246 19.3402ZM189.598 14.6551L188.654 14.58L188.573 15.6016H189.598V14.6551ZM200.132 14.6551V15.6016H201.145L201.077 14.5909L200.132 14.6551ZM189.598 16.8509H201.609V14.958H189.598V16.8509ZM202.548 16.0219C202.583 15.7396 202.584 15.6108 202.584 15.3934H200.691C200.691 15.5735 200.691 15.615 200.67 15.7871L202.548 16.0219ZM202.584 15.3934V15.3366H200.691V15.3934H202.584ZM202.584 15.3366C202.584 13.008 201.882 10.884 200.559 9.32571C199.225 7.75365 197.3 6.8088 194.993 6.8088V8.70176C196.746 8.70176 198.143 9.40378 199.116 10.5505C200.101 11.7109 200.691 13.3776 200.691 15.3366H202.584ZM194.993 6.8088C190.461 6.8088 187.175 10.6783 187.175 15.3082H189.068C189.068 11.5334 191.688 8.70176 194.993 8.70176V6.8088ZM187.175 15.3082V15.365H189.068V15.3082H187.175ZM187.175 15.365C187.175 20.3854 190.876 23.8644 195.22 23.8644V21.9714C191.955 21.9714 189.068 19.3739 189.068 15.365H187.175ZM195.22 23.8644C198.334 23.8644 200.301 22.5629 201.905 20.8361L200.518 19.548C199.168 21.0013 197.672 21.9714 195.22 21.9714V23.8644ZM201.837 19.4823L200.872 18.6305L199.62 20.0499L200.585 20.9017L201.837 19.4823ZM199.554 18.6944C198.485 19.8397 197.186 20.6653 195.277 20.6653V22.5582C197.854 22.5582 199.622 21.3962 200.938 19.986L199.554 18.6944ZM195.277 20.6653C192.946 20.6653 190.763 18.9604 190.542 15.8376L188.654 15.9714C188.944 20.0607 191.928 22.5582 195.277 22.5582V20.6653ZM190.541 14.7303C190.768 11.8881 192.679 9.97951 194.936 9.97951V8.08655C191.458 8.08655 188.939 11.005 188.654 14.58L190.541 14.7303ZM194.936 9.97951C196.309 9.97951 197.293 10.5235 197.976 11.3501C198.679 12.2022 199.099 13.4036 199.188 14.7193L201.077 14.5909C200.967 12.982 200.449 11.3724 199.435 10.1446C198.4 8.8913 196.885 8.08655 194.936 8.08655V9.97951ZM200.132 13.7086H189.598V15.6016H200.132V13.7086ZM225.795 12.3552L225.441 11.4775L222.791 12.5468L225.555 13.2708L225.795 12.3552ZM214.522 2.70108V1.7546H213.576V2.70108H214.522ZM214.522 22.5771H213.576V23.5236H214.522V22.5771ZM215.999 11.8725H215.052V12.8189H215.999V11.8725ZM215.999 4.06401V3.11753H215.052V4.06401H215.999ZM215.999 21.2142H215.052V22.1607H215.999V21.2142ZM215.999 13.2354V12.2889H215.052V13.2354H215.999ZM231.228 17.1538V17.097H229.335V17.1538H231.228ZM231.228 17.097C231.228 15.4454 230.584 14.1679 229.576 13.2333C228.595 12.3249 227.309 11.7734 226.035 11.4396L225.555 13.2708C226.665 13.5616 227.622 14.0039 228.289 14.6217C228.927 15.2133 229.335 15.9944 229.335 17.097H231.228ZM226.149 13.2329C227.96 12.502 230.12 10.8766 230.12 7.6417H228.227C228.227 9.80171 226.866 10.9022 225.441 11.4775L226.149 13.2329ZM230.12 7.6417V7.58491H228.227V7.6417H230.12ZM230.12 7.58491C230.12 5.78886 229.328 4.2907 227.968 3.26836C226.632 2.26449 224.803 1.7546 222.728 1.7546V3.64756C224.515 3.64756 225.909 4.08888 226.83 4.78158C227.727 5.4558 228.227 6.39955 228.227 7.58491H230.12ZM222.728 1.7546H214.522V3.64756H222.728V1.7546ZM213.576 2.70108V22.5771H215.469V2.70108H213.576ZM214.522 23.5236H223.154V21.6307H214.522V23.5236ZM223.154 23.5236C225.441 23.5236 227.442 22.9645 228.896 21.8667C230.375 20.7497 231.228 19.1159 231.228 17.1538H229.335C229.335 18.5139 228.767 19.5917 227.755 20.3559C226.718 21.1392 225.155 21.6307 223.154 21.6307V23.5236ZM226.722 7.78367C226.722 8.81905 226.32 9.55934 225.656 10.0665C224.963 10.5964 223.909 10.926 222.558 10.926V12.8189C224.188 12.8189 225.689 12.4245 226.806 11.5702C227.953 10.6931 228.615 9.38897 228.615 7.78367H226.722ZM222.558 10.926H215.999V12.8189H222.558V10.926ZM216.945 11.8725V4.06401H215.052V11.8725H216.945ZM215.999 5.01049H222.7V3.11753H215.999V5.01049ZM222.7 5.01049C224.157 5.01049 225.174 5.35009 225.804 5.82893C226.406 6.28673 226.722 6.91995 226.722 7.72689H228.615C228.615 6.34746 228.037 5.14924 226.95 4.32219C225.89 3.51618 224.423 3.11753 222.7 3.11753V5.01049ZM226.722 7.72689V7.78367H228.615V7.72689H226.722ZM227.83 17.1538C227.83 18.0956 227.439 18.8283 226.714 19.3558C225.959 19.9055 224.784 20.2677 223.211 20.2677V22.1607C225.045 22.1607 226.653 21.7421 227.828 20.8862C229.034 20.0083 229.723 18.7108 229.723 17.1538H227.83ZM223.211 20.2677H215.999V22.1607H223.211V20.2677ZM216.945 21.2142V13.2354H215.052V21.2142H216.945ZM215.999 14.1819H222.728V12.2889H215.999V14.1819ZM222.728 14.1819C224.596 14.1819 225.901 14.5241 226.708 15.0456C227.463 15.5332 227.83 16.2006 227.83 17.097H229.723C229.723 15.5515 229.025 14.2882 227.735 13.4554C226.498 12.6566 224.779 12.2889 222.728 12.2889V14.1819ZM227.83 17.097V17.1538H229.723V17.097H227.83ZM235.184 15.9045V14.958H234.168L234.24 15.9714L235.184 15.9045ZM247.195 15.9045V16.8509H248.031L248.134 16.0219L247.195 15.9045ZM246.798 20.192L247.491 20.8361L248.152 20.1246L247.424 19.4823L246.798 20.192ZM245.832 19.3402L246.458 18.6305L245.768 18.0215L245.14 18.6944L245.832 19.3402ZM235.184 14.6551L234.241 14.58L234.159 15.6016H235.184V14.6551ZM245.719 14.6551V15.6016H246.732L246.663 14.5909L245.719 14.6551ZM235.184 16.8509H247.195V14.958H235.184V16.8509ZM248.134 16.0219C248.169 15.7396 248.17 15.6108 248.17 15.3934H246.277C246.277 15.5735 246.277 15.615 246.256 15.7871L248.134 16.0219ZM248.17 15.3934V15.3366H246.277V15.3934H248.17ZM248.17 15.3366C248.17 13.008 247.468 10.884 246.146 9.32571C244.812 7.75365 242.886 6.8088 240.579 6.8088V8.70176C242.332 8.70176 243.729 9.40378 244.702 10.5505C245.687 11.7109 246.277 13.3776 246.277 15.3366H248.17ZM240.579 6.8088C236.048 6.8088 232.761 10.6783 232.761 15.3082H234.654C234.654 11.5334 237.274 8.70176 240.579 8.70176V6.8088ZM232.761 15.3082V15.365H234.654V15.3082H232.761ZM232.761 15.365C232.761 20.3854 236.462 23.8644 240.806 23.8644V21.9714C237.541 21.9714 234.654 19.3739 234.654 15.365H232.761ZM240.806 23.8644C243.92 23.8644 245.888 22.5629 247.491 20.8361L246.104 19.548C244.754 21.0013 243.258 21.9714 240.806 21.9714V23.8644ZM247.424 19.4823L246.458 18.6305L245.206 20.0499L246.171 20.9017L247.424 19.4823ZM245.14 18.6944C244.071 19.8397 242.772 20.6653 240.863 20.6653V22.5582C243.44 22.5582 245.208 21.3962 246.524 19.986L245.14 18.6944ZM240.863 20.6653C238.533 20.6653 236.35 18.9604 236.128 15.8376L234.24 15.9714C234.53 20.0607 237.515 22.5582 240.863 22.5582V20.6653ZM236.128 14.7303C236.354 11.8881 238.265 9.97951 240.522 9.97951V8.08655C237.044 8.08655 234.525 11.005 234.241 14.58L236.128 14.7303ZM240.522 9.97951C241.896 9.97951 242.879 10.5235 243.562 11.3501C244.266 12.2022 244.685 13.4036 244.774 14.7193L246.663 14.5909C246.553 12.982 246.036 11.3724 245.021 10.1446C243.986 8.8913 242.471 8.08655 240.522 8.08655V9.97951ZM245.719 13.7086H235.184V15.6016H245.719V13.7086ZM262.584 22.5771V23.5236H263.531V22.5771H262.584ZM251.397 9.11821L250.998 8.25974L250.172 8.64336L250.524 9.48368L251.397 9.11821ZM251.908 10.3392L251.035 10.7046L251.429 11.6464L252.338 11.1821L251.908 10.3392ZM261.221 14.2292L260.979 15.144L262.168 15.4595V14.2292H261.221ZM261.221 20.1636H262.168V17.2102L260.451 19.6135L261.221 20.1636ZM261.221 22.5771H260.275V23.5236H261.221V22.5771ZM261.25 15.5069H262.196V14.7721L261.484 14.59L261.25 15.5069ZM263.531 22.5771V13.5477H261.638V22.5771H263.531ZM263.531 13.5477C263.531 11.4714 262.879 9.77202 261.592 8.60222C260.318 7.4454 258.55 6.92238 256.536 6.92238V8.81534C258.242 8.81534 259.498 9.25773 260.319 10.0033C261.125 10.7359 261.638 11.876 261.638 13.5477H263.531ZM256.536 6.92238C254.365 6.92238 252.663 7.48697 250.998 8.25974L251.796 9.97668C253.311 9.27294 254.733 8.81534 256.536 8.81534V6.92238ZM250.524 9.48368L251.035 10.7046L252.781 9.9737L252.27 8.75274L250.524 9.48368ZM252.338 11.1821C253.579 10.5484 254.879 10.1215 256.451 10.1215V8.22852C254.502 8.22852 252.906 8.76698 251.478 9.49623L252.338 11.1821ZM256.451 10.1215C257.794 10.1215 258.729 10.4604 259.319 10.9949C259.895 11.5155 260.275 12.3404 260.275 13.6045H262.168C262.168 11.944 261.654 10.5541 260.589 9.59118C259.54 8.64204 258.09 8.22852 256.451 8.22852V10.1215ZM260.275 13.6045V14.2292H262.168V13.6045H260.275ZM261.464 13.3144C260.008 12.9282 258.535 12.658 256.423 12.658V14.551C258.343 14.551 259.652 14.792 260.979 15.144L261.464 13.3144ZM256.423 12.658C254.421 12.658 252.623 13.111 251.298 14.0644C249.94 15.042 249.144 16.5046 249.144 18.318H251.037C251.037 17.1216 251.533 16.2275 252.404 15.6008C253.309 14.9499 254.677 14.551 256.423 14.551V12.658ZM249.144 18.318V18.3748H251.037V18.318H249.144ZM249.144 18.3748C249.144 20.227 250.052 21.6333 251.325 22.5447C252.574 23.4381 254.173 23.8644 255.685 23.8644V21.9714C254.498 21.9714 253.301 21.631 252.427 21.0053C251.578 20.3976 251.037 19.5323 251.037 18.3748H249.144ZM255.685 23.8644C258.795 23.8644 260.852 22.3099 261.992 20.7138L260.451 19.6135C259.604 20.8 258.083 21.9714 255.685 21.9714V23.8644ZM260.275 20.1636V22.5771H262.168V20.1636H260.275ZM261.221 23.5236H262.584V21.6307H261.221V23.5236ZM260.303 17.1538C260.303 19.0699 258.428 20.6653 255.77 20.6653V22.5582C259.018 22.5582 262.196 20.5191 262.196 17.1538H260.303ZM255.77 20.6653C254.824 20.6653 253.98 20.4026 253.398 19.9756C252.837 19.5641 252.514 19.0037 252.514 18.2896H250.621C250.621 19.6767 251.291 20.7773 252.278 21.5016C253.244 22.2104 254.501 22.5582 255.77 22.5582V20.6653ZM252.514 18.2896V18.2328H250.621V18.2896H252.514ZM252.514 18.2328C252.514 17.524 252.798 16.9639 253.362 16.5509C253.957 16.1151 254.93 15.8004 256.338 15.8004V13.9074C254.679 13.9074 253.267 14.2741 252.243 15.0238C251.189 15.7963 250.621 16.9257 250.621 18.2328H252.514ZM256.338 15.8004C258.302 15.8004 259.836 16.1222 261.015 16.4239L261.484 14.59C260.222 14.267 258.519 13.9074 256.338 13.9074V15.8004ZM260.303 15.5069V17.1538H262.196V15.5069H260.303ZM272.5 14.5131L272.239 15.4228L272.245 15.4245L272.5 14.5131ZM276.22 10.5663L275.699 11.3564L276.503 11.887L277.019 11.0732L276.22 10.5663ZM276.958 9.40215L277.757 9.90903L278.253 9.12779L277.483 8.61464L276.958 9.40215ZM272.017 15.8477L271.755 16.7569L271.761 16.7587L272.017 15.8477ZM267.162 19.6525L267.738 18.9018L266.976 18.3164L266.403 19.0878L267.162 19.6525ZM266.339 20.7599L265.579 20.1951L265.039 20.9217L265.741 21.4937L266.339 20.7599ZM278.217 18.6303V18.5735H276.324V18.6303H278.217ZM278.217 18.5735C278.217 16.9188 277.394 15.7987 276.291 15.0477C275.245 14.3354 273.91 13.9257 272.756 13.6018L272.245 15.4245C273.418 15.7537 274.468 16.0964 275.226 16.6122C275.926 17.0893 276.324 17.6728 276.324 18.5735H278.217ZM272.762 13.6036C271.698 13.2974 270.807 13.0277 270.175 12.6682C269.571 12.3248 269.415 12.0272 269.415 11.7021H267.522C267.522 12.9954 268.345 13.8053 269.239 14.3137C270.105 14.8061 271.23 15.1326 272.239 15.4227L272.762 13.6036ZM269.415 11.7021V11.6453H267.522V11.7021H269.415ZM269.415 11.6453C269.415 10.9215 270.07 10.0647 271.762 10.0647V8.17173C269.479 8.17173 267.522 9.47284 267.522 11.6453H269.415ZM271.762 10.0647C273.072 10.0647 274.484 10.5552 275.699 11.3564L276.741 9.77623C275.287 8.81701 273.518 8.17173 271.762 8.17173V10.0647ZM277.019 11.0732L277.757 9.90903L276.159 8.89528L275.421 10.0594L277.019 11.0732ZM277.483 8.61464C275.889 7.55183 273.749 6.86559 271.819 6.86559V8.75855C273.353 8.75855 275.131 9.32166 276.433 10.1897L277.483 8.61464ZM271.819 6.86559C268.642 6.86559 266.102 8.82041 266.102 11.8157H267.995C267.995 10.1543 269.373 8.75855 271.819 8.75855V6.86559ZM266.102 11.8157V11.8725H267.995V11.8157H266.102ZM266.102 11.8725C266.102 13.5748 267.003 14.6688 268.152 15.3786C269.233 16.0471 270.618 16.4284 271.755 16.7569L272.28 14.9384C271.06 14.5855 269.96 14.2711 269.147 13.7683C268.4 13.3069 267.995 12.754 267.995 11.8725H266.102ZM271.761 16.7587C272.785 17.0471 273.614 17.3148 274.19 17.6732C274.716 18.0014 274.904 18.3195 274.904 18.7439H276.797C276.797 17.4646 276.076 16.6186 275.191 16.0666C274.353 15.5447 273.266 15.2162 272.274 14.9367L271.761 16.7587ZM274.904 18.7439V18.8007H276.797V18.7439H274.904ZM274.904 18.8007C274.904 19.318 274.679 19.7376 274.265 20.0535C273.833 20.383 273.173 20.6085 272.358 20.6085V22.5014C273.502 22.5014 274.589 22.1874 275.413 21.5586C276.255 20.9162 276.797 19.9587 276.797 18.8007H274.904ZM272.358 20.6085C270.757 20.6085 269.194 20.0197 267.738 18.9018L266.586 20.4032C268.31 21.7273 270.268 22.5014 272.358 22.5014V20.6085ZM266.403 19.0878L265.579 20.1951L267.098 21.3247L267.922 20.2173L266.403 19.0878ZM265.741 21.4937C267.44 22.8785 269.951 23.8076 272.273 23.8076V21.9146C270.393 21.9146 268.303 21.14 266.936 20.0262L265.741 21.4937ZM272.273 23.8076C275.388 23.8076 278.217 21.9088 278.217 18.6303H276.324C276.324 20.5197 274.723 21.9146 272.273 21.9146V23.8076ZM288.608 22.3216L289.005 23.181L289.555 22.9272V22.3216H288.608ZM288.608 21.0155H289.555V19.5539L288.221 20.1518L288.608 21.0155ZM283.583 9.37376V8.42728H282.636V9.37376H283.583ZM288.665 9.37376V10.3202H289.612V9.37376H288.665ZM288.665 8.09601H289.612V7.14953H288.665V8.09601ZM283.583 8.09601H282.636V9.04249H283.583V8.09601ZM283.583 3.46773H284.529V2.52125H283.583V3.46773ZM282.191 3.46773V2.52125H281.245V3.46773H282.191ZM282.191 8.09601V9.04249H283.138V8.09601H282.191ZM280.09 8.09601V7.14953H279.144V8.09601H280.09ZM280.09 9.37376H279.144V10.3202H280.09V9.37376ZM282.191 9.37376H283.138V8.42728H282.191V9.37376ZM289.555 22.3216V21.0155H287.662V22.3216H289.555ZM288.221 20.1518C287.489 20.48 287.026 20.5801 286.479 20.5801V22.473C287.352 22.473 288.081 22.2892 288.996 21.8791L288.221 20.1518ZM286.479 20.5801C285.76 20.5801 285.296 20.419 285.021 20.1815C284.771 19.9667 284.529 19.5619 284.529 18.7155H282.636C282.636 19.9419 283.004 20.9426 283.785 21.6152C284.538 22.265 285.523 22.473 286.479 22.473V20.5801ZM284.529 18.7155V9.37376H282.636V18.7155H284.529ZM283.583 10.3202H288.665V8.42728H283.583V10.3202ZM289.612 9.37376V8.09601H287.719V9.37376H289.612ZM288.665 7.14953H283.583V9.04249H288.665V7.14953ZM284.529 8.09601V3.46773H282.636V8.09601H284.529ZM283.583 2.52125H282.191V4.41421H283.583V2.52125ZM281.245 3.46773V8.09601H283.138V3.46773H281.245ZM282.191 7.14953H280.09V9.04249H282.191V7.14953ZM279.144 8.09601V9.37376H281.037V8.09601H279.144ZM280.09 10.3202H282.191V8.42728H280.09V10.3202ZM281.245 9.37376V18.8575H283.138V9.37376H281.245ZM281.245 18.8575C281.245 20.4557 281.781 21.7271 282.753 22.587C283.707 23.43 284.969 23.7792 286.252 23.7792V21.8862C285.292 21.8862 284.523 21.6249 284.007 21.1688C283.51 20.7297 283.138 20.0135 283.138 18.8575H281.245ZM286.252 23.7792C287.3 23.7792 288.145 23.5777 289.005 23.181L288.212 21.4622C287.595 21.7469 287.02 21.8862 286.252 21.8862V23.7792ZM299.75 14.9391V15.8855H300.697V14.9391H299.75ZM299.75 13.349H300.697V12.4025H299.75V13.349ZM292.14 13.349V12.4025H291.194V13.349H292.14ZM292.14 14.9391H291.194V15.8855H292.14V14.9391ZM300.697 14.9391V13.349H298.804V14.9391H300.697ZM299.75 12.4025H292.14V14.2955H299.75V12.4025ZM291.194 13.349V14.9391H293.087V13.349H291.194ZM292.14 15.8855H299.75V13.9926H292.14V15.8855ZM314.885 22.5771V23.5236H315.831V22.5771H314.885ZM314.885 2.70108H315.831V1.7546H314.885V2.70108ZM313.408 2.70108V1.7546H312.462V2.70108H313.408ZM313.408 22.5771H312.462V23.5236H313.408V22.5771ZM315.831 22.5771V2.70108H313.938V22.5771H315.831ZM314.885 1.7546H313.408V3.64756H314.885V1.7546ZM312.462 2.70108V22.5771H314.355V2.70108H312.462ZM313.408 23.5236H314.885V21.6307H313.408V23.5236ZM328.497 9.40215V10.3486H329.444V9.40215H328.497ZM328.497 7.86886H329.444V6.95912L328.535 6.92312L328.497 7.86886ZM322.08 12.2132H321.134L322.947 12.5941L322.08 12.2132ZM322.08 8.09601H323.027V7.14953H322.08V8.09601ZM320.689 8.09601V7.14953H319.742V8.09601H320.689ZM320.689 22.5771H319.742V23.5236H320.689V22.5771ZM322.08 22.5771V23.5236H323.027V22.5771H322.08ZM329.444 9.40215V7.86886H327.551V9.40215H329.444ZM328.535 6.92312C325.198 6.79096 322.471 8.9722 321.214 11.8323L322.947 12.5941C323.961 10.2864 326.061 8.7196 328.46 8.8146L328.535 6.92312ZM323.027 12.2132V8.09601H321.134V12.2132H323.027ZM322.08 7.14953H320.689V9.04249H322.08V7.14953ZM319.742 8.09601V22.5771H321.635V8.09601H319.742ZM320.689 23.5236H322.08V21.6307H320.689V23.5236ZM323.027 22.5771V16.6427H321.134V22.5771H323.027ZM323.027 16.6427C323.027 14.4855 323.692 12.921 324.65 11.9038C325.609 10.8854 326.923 10.3486 328.355 10.3486V8.45568C326.437 8.45568 324.613 9.18242 323.272 10.606C321.93 12.0307 321.134 14.0864 321.134 16.6427H323.027ZM328.355 10.3486H328.497V8.45568H328.355V10.3486ZM346.168 15.3366V15.2798H344.275V15.3366H346.168ZM346.168 15.2798C346.168 10.7347 342.658 6.8088 337.811 6.8088V8.70176C341.538 8.70176 344.275 11.7041 344.275 15.2798H346.168ZM337.811 6.8088C332.933 6.8088 329.396 10.7935 329.396 15.3366H331.289C331.289 11.7588 334.057 8.70176 337.811 8.70176V6.8088ZM329.396 15.3366V15.3934H331.289V15.3366H329.396ZM329.396 15.3934C329.396 19.9384 332.906 23.8644 337.754 23.8644V21.9714C334.026 21.9714 331.289 18.9691 331.289 15.3934H329.396ZM337.754 23.8644C342.632 23.8644 346.168 19.8796 346.168 15.3366H344.275C344.275 18.9143 341.508 21.9714 337.754 21.9714V23.8644ZM342.77 15.3934C342.77 18.3461 340.658 20.6653 337.811 20.6653V22.5582C341.835 22.5582 344.663 19.2553 344.663 15.3934H342.77ZM337.811 20.6653C335.031 20.6653 332.794 18.3559 332.794 15.3366H330.901C330.901 19.3023 333.889 22.5582 337.811 22.5582V20.6653ZM332.794 15.3366V15.2798H330.901V15.3366H332.794ZM332.794 15.2798C332.794 12.327 334.906 10.0079 337.754 10.0079V8.11494C333.73 8.11494 330.901 11.4179 330.901 15.2798H332.794ZM337.754 10.0079C340.533 10.0079 342.77 12.3173 342.77 15.3366H344.663C344.663 11.3709 341.675 8.11494 337.754 8.11494V10.0079ZM342.77 15.3366V15.3934H344.663V15.3366H342.77ZM361.907 22.5771V23.5236H362.854V22.5771H361.907ZM350.89 10.7935H349.944V14.3835L351.714 11.2601L350.89 10.7935ZM350.89 8.09601H351.837V7.14953H350.89V8.09601ZM349.499 8.09601V7.14953H348.553V8.09601H349.499ZM349.499 22.5771H348.553V23.5236H349.499V22.5771ZM350.89 22.5771V23.5236H351.837V22.5771H350.89ZM360.516 22.5771H359.57V23.5236H360.516V22.5771ZM362.854 22.5771V13.7181H360.961V22.5771H362.854ZM362.854 13.7181C362.854 11.7941 362.26 10.0562 361.076 8.79077C359.883 7.51695 358.172 6.8088 356.115 6.8088V8.70176C357.721 8.70176 358.906 9.24297 359.694 10.0845C360.49 10.9345 360.961 12.178 360.961 13.7181H362.854ZM356.115 6.8088C353.076 6.8088 351.17 8.38052 350.067 10.3269L351.714 11.2601C352.542 9.79911 353.873 8.70176 356.115 8.70176V6.8088ZM351.837 10.7935V8.09601H349.944V10.7935H351.837ZM350.89 7.14953H349.499V9.04249H350.89V7.14953ZM348.553 8.09601V22.5771H350.446V8.09601H348.553ZM349.499 23.5236H350.89V21.6307H349.499V23.5236ZM351.837 22.5771V14.2008H349.944V22.5771H351.837ZM351.837 14.2008C351.837 11.6997 353.613 9.97951 355.916 9.97951V8.08655C352.54 8.08655 349.944 10.6823 349.944 14.2008H351.837ZM355.916 9.97951C357.157 9.97951 358.036 10.3878 358.613 11.0221C359.2 11.6683 359.57 12.6546 359.57 13.9737H361.463C361.463 12.3113 360.994 10.8273 360.013 9.7485C359.021 8.65783 357.6 8.08655 355.916 8.08655V9.97951ZM359.57 13.9737V22.5771H361.463V13.9737H359.57ZM360.516 23.5236H361.907V21.6307H360.516V23.5236ZM394.478 22.5771V23.5236H395.425V22.5771H394.478ZM394.478 2.70108H395.425V1.7546H394.478V2.70108ZM393.087 2.70108V1.7546H392.585L392.304 2.16954L393.087 2.70108ZM385.108 14.4564L384.325 14.9879L385.108 16.1417L385.891 14.9879L385.108 14.4564ZM377.129 2.70108L377.912 2.16954L377.631 1.7546H377.129V2.70108ZM375.738 2.70108V1.7546H374.791V2.70108H375.738ZM375.738 22.5771H374.791V23.5236H375.738V22.5771ZM377.158 22.5771V23.5236H378.104V22.5771H377.158ZM377.158 5.31336L377.938 4.77724L376.211 2.26543V5.31336H377.158ZM385.023 16.7563L384.243 17.2924L384.525 17.7028H385.023V16.7563ZM385.136 16.7563V17.7028H385.634L385.916 17.2924L385.136 16.7563ZM393.002 5.31336H393.948V2.26543L392.222 4.77724L393.002 5.31336ZM393.002 22.5771H392.055V23.5236H393.002V22.5771ZM395.425 22.5771V2.70108H393.532V22.5771H395.425ZM394.478 1.7546H393.087V3.64756H394.478V1.7546ZM392.304 2.16954L384.325 13.9248L385.891 14.9879L393.87 3.23262L392.304 2.16954ZM385.891 13.9248L377.912 2.16954L376.346 3.23262L384.325 14.9879L385.891 13.9248ZM377.129 1.7546H375.738V3.64756H377.129V1.7546ZM374.791 2.70108V22.5771H376.684V2.70108H374.791ZM375.738 23.5236H377.158V21.6307H375.738V23.5236ZM378.104 22.5771V5.31336H376.211V22.5771H378.104ZM376.378 5.84949L384.243 17.2924L385.803 16.2202L377.938 4.77724L376.378 5.84949ZM385.023 17.7028H385.136V15.8098H385.023V17.7028ZM385.916 17.2924L393.782 5.84949L392.222 4.77724L384.356 16.2202L385.916 17.2924ZM392.055 5.31336V22.5771H393.948V5.31336H392.055ZM393.002 23.5236H394.478V21.6307H393.002V23.5236ZM411.378 22.5771V23.5236H412.324V22.5771H411.378ZM400.19 9.11821L399.792 8.25974L398.965 8.64336L399.317 9.48368L400.19 9.11821ZM400.701 10.3392L399.828 10.7046L400.222 11.6464L401.132 11.1821L400.701 10.3392ZM410.015 14.2292L409.772 15.144L410.961 15.4595V14.2292H410.015ZM410.015 20.1636H410.961V17.2102L409.244 19.6135L410.015 20.1636ZM410.015 22.5771H409.068V23.5236H410.015V22.5771ZM410.043 15.5069H410.989V14.7721L410.278 14.59L410.043 15.5069ZM412.324 22.5771V13.5477H410.431V22.5771H412.324ZM412.324 13.5477C412.324 11.4714 411.673 9.77202 410.385 8.60222C409.111 7.4454 407.343 6.92238 405.33 6.92238V8.81534C407.036 8.81534 408.291 9.25773 409.112 10.0033C409.918 10.7359 410.431 11.876 410.431 13.5477H412.324ZM405.33 6.92238C403.158 6.92238 401.456 7.48697 399.792 8.25974L400.589 9.97668C402.104 9.27294 403.526 8.81534 405.33 8.81534V6.92238ZM399.317 9.48368L399.828 10.7046L401.574 9.9737L401.063 8.75274L399.317 9.48368ZM401.132 11.1821C402.373 10.5484 403.673 10.1215 405.244 10.1215V8.22852C403.295 8.22852 401.699 8.76698 400.271 9.49623L401.132 11.1821ZM405.244 10.1215C406.587 10.1215 407.522 10.4604 408.113 10.9949C408.688 11.5155 409.068 12.3404 409.068 13.6045H410.961C410.961 11.944 410.447 10.5541 409.383 9.59118C408.333 8.64204 406.883 8.22852 405.244 8.22852V10.1215ZM409.068 13.6045V14.2292H410.961V13.6045H409.068ZM410.257 13.3144C408.802 12.9282 407.328 12.658 405.216 12.658V14.551C407.136 14.551 408.445 14.792 409.772 15.144L410.257 13.3144ZM405.216 12.658C403.214 12.658 401.416 13.111 400.092 14.0644C398.733 15.042 397.938 16.5046 397.938 18.318H399.831C399.831 17.1216 400.327 16.2275 401.197 15.6008C402.102 14.9499 403.47 14.551 405.216 14.551V12.658ZM397.938 18.318V18.3748H399.831V18.318H397.938ZM397.938 18.3748C397.938 20.227 398.845 21.6333 400.118 22.5447C401.367 23.4381 402.967 23.8644 404.478 23.8644V21.9714C403.291 21.9714 402.094 21.631 401.22 21.0053C400.371 20.3976 399.831 19.5323 399.831 18.3748H397.938ZM404.478 23.8644C407.588 23.8644 409.645 22.3099 410.785 20.7138L409.244 19.6135C408.397 20.8 406.876 21.9714 404.478 21.9714V23.8644ZM409.068 20.1636V22.5771H410.961V20.1636H409.068ZM410.015 23.5236H411.378V21.6307H410.015V23.5236ZM409.097 17.1538C409.097 19.0699 407.221 20.6653 404.563 20.6653V22.5582C407.811 22.5582 410.989 20.5191 410.989 17.1538H409.097ZM404.563 20.6653C403.617 20.6653 402.773 20.4026 402.191 19.9756C401.631 19.5641 401.307 19.0037 401.307 18.2896H399.414C399.414 19.6767 400.084 20.7773 401.071 21.5016C402.037 22.2104 403.294 22.5582 404.563 22.5582V20.6653ZM401.307 18.2896V18.2328H399.414V18.2896H401.307ZM401.307 18.2328C401.307 17.524 401.591 16.9639 402.155 16.5509C402.75 16.1151 403.723 15.8004 405.131 15.8004V13.9074C403.472 13.9074 402.06 14.2741 401.036 15.0238C399.982 15.7963 399.414 16.9257 399.414 18.2328H401.307ZM405.131 15.8004C407.095 15.8004 408.629 16.1222 409.808 16.4239L410.278 14.59C409.015 14.267 407.312 13.9074 405.131 13.9074V15.8004ZM409.097 15.5069V17.1538H410.989V15.5069H409.097ZM418.142 4.31956V5.26604H419.088V4.31956H418.142ZM418.142 2.41714H419.088V1.47066H418.142V2.41714ZM416.41 2.41714V1.47066H415.463V2.41714H416.41ZM416.41 4.31956H415.463V5.26604H416.41V4.31956ZM417.971 22.5771V23.5236H418.918V22.5771H417.971ZM417.971 8.09601H418.918V7.14953H417.971V8.09601ZM416.58 8.09601V7.14953H415.633V8.09601H416.58ZM416.58 22.5771H415.633V23.5236H416.58V22.5771ZM419.088 4.31956V2.41714H417.195V4.31956H419.088ZM418.142 1.47066H416.41V3.36362H418.142V1.47066ZM415.463 2.41714V4.31956H417.356V2.41714H415.463ZM416.41 5.26604H418.142V3.37308H416.41V5.26604ZM418.918 22.5771V8.09601H417.025V22.5771H418.918ZM417.971 7.14953H416.58V9.04249H417.971V7.14953ZM415.633 8.09601V22.5771H417.526V8.09601H415.633ZM416.58 23.5236H417.971V21.6307H416.58V23.5236ZM436.911 22.5771V23.5236H437.857V22.5771H436.911ZM436.911 1.84925H437.857V0.902769H436.911V1.84925ZM435.52 1.84925V0.902769H434.573V1.84925H435.52ZM435.52 11.2194L434.728 11.7387L436.466 14.3867V11.2194H435.52ZM435.52 19.3402H436.466V16.1747L434.728 18.8206L435.52 19.3402ZM435.52 22.5771H434.573V23.5236H435.52V22.5771ZM437.857 22.5771V1.84925H435.964V22.5771H437.857ZM436.911 0.902769H435.52V2.79573H436.911V0.902769ZM434.573 1.84925V11.2194H436.466V1.84925H434.573ZM436.311 10.7001C435.014 8.72314 432.882 6.8088 429.557 6.8088V8.70176C432.025 8.70176 433.641 10.0812 434.728 11.7387L436.311 10.7001ZM429.557 6.8088C425.554 6.8088 421.569 10.0884 421.569 15.3366H423.461C423.461 11.1578 426.575 8.70176 429.557 8.70176V6.8088ZM421.569 15.3366V15.3934H423.461V15.3366H421.569ZM421.569 15.3934C421.569 20.6512 425.564 23.8644 429.557 23.8644V21.9714C426.565 21.9714 423.461 19.5625 423.461 15.3934H421.569ZM429.557 23.8644C432.87 23.8644 434.97 21.9016 436.311 19.8597L434.728 18.8206C433.571 20.5836 431.979 21.9714 429.557 21.9714V23.8644ZM434.573 19.3402V22.5771H436.466V19.3402H434.573ZM435.52 23.5236H436.911V21.6307H435.52V23.5236ZM434.658 15.365C434.658 18.5278 432.192 20.6369 429.699 20.6369V22.5298C433.226 22.5298 436.551 19.5847 436.551 15.365H434.658ZM429.699 20.6369C427.222 20.6369 424.966 18.6578 424.966 15.3366H423.073C423.073 19.625 426.1 22.5298 429.699 22.5298V20.6369ZM424.966 15.3366V15.2798H423.073V15.3366H424.966ZM424.966 15.2798C424.966 13.5448 425.526 12.2447 426.358 11.3838C427.191 10.5218 428.358 10.0363 429.699 10.0363V8.14334C427.887 8.14334 426.215 8.8078 424.997 10.0683C423.777 11.3299 423.073 13.1247 423.073 15.2798H424.966ZM429.699 10.0363C432.195 10.0363 434.658 12.1199 434.658 15.3082H436.551C436.551 11.0571 433.223 8.14334 429.699 8.14334V10.0363ZM434.658 15.3082V15.365H436.551V15.3082H434.658ZM442.679 15.9045V14.958H441.664L441.735 15.9714L442.679 15.9045ZM454.69 15.9045V16.8509H455.526L455.629 16.0219L454.69 15.9045ZM454.293 20.192L454.986 20.8361L455.647 20.1246L454.919 19.4823L454.293 20.192ZM453.327 19.3402L453.954 18.6305L453.263 18.0215L452.635 18.6944L453.327 19.3402ZM442.679 14.6551L441.736 14.58L441.655 15.6016H442.679V14.6551ZM453.214 14.6551V15.6016H454.227L454.158 14.5909L453.214 14.6551ZM442.679 16.8509H454.69V14.958H442.679V16.8509ZM455.629 16.0219C455.665 15.7396 455.665 15.6108 455.665 15.3934H453.772C453.772 15.5735 453.773 15.615 453.751 15.7871L455.629 16.0219ZM455.665 15.3934V15.3366H453.772V15.3934H455.665ZM455.665 15.3366C455.665 13.008 454.963 10.884 453.641 9.32571C452.307 7.75365 450.382 6.8088 448.074 6.8088V8.70176C449.828 8.70176 451.224 9.40378 452.198 10.5505C453.182 11.7109 453.772 13.3776 453.772 15.3366H455.665ZM448.074 6.8088C443.543 6.8088 440.256 10.6783 440.256 15.3082H442.149C442.149 11.5334 444.769 8.70176 448.074 8.70176V6.8088ZM440.256 15.3082V15.365H442.149V15.3082H440.256ZM440.256 15.365C440.256 20.3854 443.957 23.8644 448.302 23.8644V21.9714C445.036 21.9714 442.149 19.3739 442.149 15.365H440.256ZM448.302 23.8644C451.415 23.8644 453.383 22.5629 454.986 20.8361L453.599 19.548C452.25 21.0013 450.753 21.9714 448.302 21.9714V23.8644ZM454.919 19.4823L453.954 18.6305L452.701 20.0499L453.667 20.9017L454.919 19.4823ZM452.635 18.6944C451.567 19.8397 450.268 20.6653 448.358 20.6653V22.5582C450.935 22.5582 452.703 21.3962 454.019 19.986L452.635 18.6944ZM448.358 20.6653C446.028 20.6653 443.845 18.9604 443.624 15.8376L441.735 15.9714C442.025 20.0607 445.01 22.5582 448.358 22.5582V20.6653ZM443.623 14.7303C443.849 11.8881 445.76 9.97951 448.018 9.97951V8.08655C444.54 8.08655 442.021 11.005 441.736 14.58L443.623 14.7303ZM448.018 9.97951C449.391 9.97951 450.375 10.5235 451.057 11.3501C451.761 12.2022 452.18 13.4036 452.269 14.7193L454.158 14.5909C454.049 12.982 453.531 11.3724 452.517 10.1446C451.482 8.8913 449.967 8.08655 448.018 8.08655V9.97951ZM453.214 13.7086H442.679V15.6016H453.214V13.7086ZM471.187 22.5771V23.5236H472.134V22.5771H471.187ZM460.17 10.7935H459.224V14.3835L460.993 11.2601L460.17 10.7935ZM460.17 8.09601H461.116V7.14953H460.17V8.09601ZM458.779 8.09601V7.14953H457.832V8.09601H458.779ZM458.779 22.5771H457.832V23.5236H458.779V22.5771ZM460.17 22.5771V23.5236H461.116V22.5771H460.17ZM469.796 22.5771H468.849V23.5236H469.796V22.5771ZM472.134 22.5771V13.7181H470.241V22.5771H472.134ZM472.134 13.7181C472.134 11.7941 471.54 10.0562 470.355 8.79077C469.163 7.51695 467.452 6.8088 465.395 6.8088V8.70176C467.001 8.70176 468.186 9.24297 468.973 10.0845C469.769 10.9345 470.241 12.178 470.241 13.7181H472.134ZM465.395 6.8088C462.355 6.8088 460.449 8.38052 459.347 10.3269L460.993 11.2601C461.821 9.79911 463.152 8.70176 465.395 8.70176V6.8088ZM461.116 10.7935V8.09601H459.224V10.7935H461.116ZM460.17 7.14953H458.779V9.04249H460.17V7.14953ZM457.832 8.09601V22.5771H459.725V8.09601H457.832ZM458.779 23.5236H460.17V21.6307H458.779V23.5236ZM461.116 22.5771V14.2008H459.224V22.5771H461.116ZM461.116 14.2008C461.116 11.6997 462.893 9.97951 465.196 9.97951V8.08655C461.82 8.08655 459.224 10.6823 459.224 14.2008H461.116ZM465.196 9.97951C466.436 9.97951 467.315 10.3878 467.892 11.0221C468.48 11.6683 468.849 12.6546 468.849 13.9737H470.742C470.742 12.3113 470.274 10.8273 469.293 9.7485C468.301 8.65783 466.88 8.08655 465.196 8.08655V9.97951ZM468.849 13.9737V22.5771H470.742V13.9737H468.849ZM469.796 23.5236H471.187V21.6307H469.796V23.5236Z" fill="white"/>
</svg>
