<svg width="473" height="24" viewBox="0 0 473 24" fill="none" xmlns="http://www.w3.org/2000/svg">
<path d="M18.1453 22.5903V2.71426H16.7256V20.0064L3.0111 2.71426H1.61978V22.5903H3.0395V4.92903L17.0379 22.5903H18.1453ZM35.8645 22.5903V8.1092H34.4732V16.4855C34.4732 19.4953 32.2868 21.6533 29.4474 21.6533C26.5228 21.6533 24.8475 19.6941 24.8475 16.7127V8.1092H23.4562V16.9682C23.4562 20.4324 25.5857 22.9311 29.2486 22.9311C31.8893 22.9311 33.5078 21.5965 34.4732 19.8929V22.5903H35.8645ZM63.0459 22.5903V13.8165C63.0459 10.182 60.9163 7.76846 57.4806 7.76846C54.7548 7.76846 53.1931 9.27337 52.2561 10.8918C51.461 9.21658 49.8993 7.76846 47.3722 7.76846C44.7883 7.76846 43.4822 9.18818 42.5452 10.6931V8.1092H41.1539V22.5903H42.5452V14.2424C42.5452 11.3178 44.5896 9.04621 47.1735 9.04621C49.7574 9.04621 51.4042 10.8918 51.4042 13.9017V22.5903H52.7956V14.1572C52.7956 10.9202 54.9251 9.04621 57.367 9.04621C60.0361 9.04621 61.6546 10.8635 61.6546 13.9868V22.5903H63.0459ZM82.5577 15.3498V15.293C82.5577 10.5795 79.0085 7.76846 75.5159 7.76846C72.6481 7.76846 70.8025 9.44373 69.5531 11.3462V1.86243H68.1618V22.5903H69.5531V19.4669C70.7457 21.2842 72.6197 22.9311 75.5159 22.9311C79.0085 22.9311 82.5577 20.0632 82.5577 15.3498ZM81.0528 15.4066C81.0528 19.2966 78.5257 21.5965 75.374 21.5965C72.3642 21.5965 69.4679 19.0978 69.4679 15.3782V15.3214C69.4679 11.6301 72.3642 9.103 75.374 9.103C78.4122 9.103 81.0528 11.5449 81.0528 15.3498V15.4066ZM87.3892 15.9177H99.4001C99.4284 15.6905 99.4284 15.6053 99.4284 15.4066V15.3498C99.4284 11.0622 96.8446 7.76846 92.7842 7.76846C88.8657 7.76846 85.9127 11.119 85.9127 15.3214V15.3782C85.9127 19.8929 89.2065 22.9311 93.0113 22.9311C95.794 22.9311 97.526 21.7953 99.0025 20.2052L98.0371 19.3534C96.8446 20.6311 95.3113 21.6249 93.0681 21.6249C90.2287 21.6249 87.6448 19.5237 87.3892 15.9177ZM87.3892 14.6683C87.6448 11.4597 89.8595 9.04621 92.7274 9.04621C96.0495 9.04621 97.7248 11.7437 97.9235 14.6683H87.3892ZM111.297 9.41534V7.88204C108.429 7.76846 106.015 9.64249 104.88 12.2264V8.1092H103.488V22.5903H104.88V16.6559C104.88 11.9424 107.804 9.41534 111.155 9.41534H111.297ZM137.255 15.3498V15.293C137.255 11.2326 134.131 7.76846 129.844 7.76846C125.528 7.76846 122.376 11.2894 122.376 15.3498V15.4066C122.376 19.4669 125.5 22.9311 129.787 22.9311C134.103 22.9311 137.255 19.4102 137.255 15.3498ZM135.75 15.4066C135.75 18.8139 133.28 21.6249 129.844 21.6249C126.493 21.6249 123.881 18.8423 123.881 15.3498V15.293C123.881 11.8856 126.351 9.07461 129.787 9.07461C133.138 9.07461 135.75 11.8573 135.75 15.3498V15.4066ZM148.858 3.42412V2.11798C148.205 1.89083 147.58 1.77725 146.7 1.77725C143.974 1.77725 142.384 3.5661 142.384 6.68948V8.1092H140.283V9.38694H142.384V22.5903H143.776V9.38694H148.83V8.1092H143.776V6.71787C143.776 4.24756 144.713 3.055 146.7 3.055C147.438 3.055 148.035 3.16857 148.858 3.42412ZM167.516 22.3348V21.0286C166.693 21.3978 166.097 21.5397 165.387 21.5397C163.712 21.5397 162.491 20.8015 162.491 18.7287V9.38694H167.573V8.1092H162.491V3.48091H161.099V8.1092H158.998V9.38694H161.099V18.8707C161.099 21.6249 162.917 22.8459 165.16 22.8459C166.068 22.8459 166.778 22.6755 167.516 22.3348ZM184.11 22.5903V13.7313C184.11 10.2672 181.98 7.76846 178.317 7.76846C175.677 7.76846 174.058 9.103 173.093 10.8067V1.86243H171.701V22.5903H173.093V14.214C173.093 11.2042 175.279 9.04621 178.119 9.04621C181.043 9.04621 182.718 11.0054 182.718 13.9868V22.5903H184.11ZM189.598 15.9177H201.609C201.637 15.6905 201.637 15.6053 201.637 15.4066V15.3498C201.637 11.0622 199.053 7.76846 194.993 7.76846C191.074 7.76846 188.121 11.119 188.121 15.3214V15.3782C188.121 19.8929 191.415 22.9311 195.22 22.9311C198.003 22.9311 199.735 21.7953 201.211 20.2052L200.246 19.3534C199.053 20.6311 197.52 21.6249 195.277 21.6249C192.437 21.6249 189.853 19.5237 189.598 15.9177ZM189.598 14.6683C189.853 11.4597 192.068 9.04621 194.936 9.04621C198.258 9.04621 199.933 11.7437 200.132 14.6683H189.598ZM230.281 17.167V17.1102C230.281 14.356 228.18 12.993 225.795 12.3684C227.413 11.7153 229.174 10.3524 229.174 7.65489V7.5981C229.174 4.61669 226.59 2.71426 222.728 2.71426H214.522V22.5903H223.154C227.442 22.5903 230.281 20.4891 230.281 17.167ZM227.669 7.79686C227.669 10.4375 225.539 11.8856 222.558 11.8856H215.999V4.07719H222.7C225.88 4.07719 227.669 5.5537 227.669 7.74007V7.79686ZM228.776 17.167C228.776 19.6657 226.618 21.2274 223.211 21.2274H215.999V13.2486H222.728C226.647 13.2486 228.776 14.6683 228.776 17.1102V17.167ZM235.184 15.9177H247.195C247.223 15.6905 247.223 15.6053 247.223 15.4066V15.3498C247.223 11.0622 244.64 7.76846 240.579 7.76846C236.661 7.76846 233.708 11.119 233.708 15.3214V15.3782C233.708 19.8929 237.001 22.9311 240.806 22.9311C243.589 22.9311 245.321 21.7953 246.798 20.2052L245.832 19.3534C244.64 20.6311 243.106 21.6249 240.863 21.6249C238.024 21.6249 235.44 19.5237 235.184 15.9177ZM235.184 14.6683C235.44 11.4597 237.655 9.04621 240.522 9.04621C243.844 9.04621 245.52 11.7437 245.719 14.6683H235.184ZM262.584 22.5903V13.5609C262.584 9.81286 260.256 7.88204 256.536 7.88204C254.549 7.88204 252.987 8.39314 251.397 9.13139L251.908 10.3524C253.243 9.67089 254.691 9.18818 256.451 9.18818C259.433 9.18818 261.221 10.6931 261.221 13.6177V14.2424C259.83 13.8733 258.439 13.6177 256.423 13.6177C252.675 13.6177 250.091 15.3214 250.091 18.3312V18.388C250.091 21.3978 252.987 22.9311 255.685 22.9311C258.439 22.9311 260.228 21.5681 261.221 20.1768V22.5903H262.584ZM261.25 17.167C261.25 19.8077 258.723 21.6249 255.77 21.6249C253.555 21.6249 251.567 20.404 251.567 18.3028V18.246C251.567 16.23 253.271 14.8671 256.338 14.8671C258.41 14.8671 260.029 15.2078 261.25 15.5201V17.167ZM277.27 18.6435V18.5867C277.27 16.0312 274.829 15.1794 272.5 14.5263C270.427 13.93 268.468 13.3338 268.468 11.7153V11.6585C268.468 10.2104 269.774 9.13139 271.762 9.13139C273.295 9.13139 274.885 9.69928 276.22 10.5795L276.958 9.41534C275.51 8.44993 273.551 7.82525 271.819 7.82525C269.008 7.82525 267.048 9.50052 267.048 11.8289V11.8856C267.048 14.4695 269.661 15.1794 272.017 15.8609C274.033 16.4288 275.851 17.0534 275.851 18.7571V18.8139C275.851 20.4891 274.317 21.5681 272.358 21.5681C270.513 21.5681 268.752 20.8867 267.162 19.6657L266.339 20.7731C267.872 22.0224 270.172 22.8743 272.273 22.8743C275.056 22.8743 277.27 21.2274 277.27 18.6435ZM288.608 22.3348V21.0286C287.785 21.3978 287.189 21.5397 286.479 21.5397C284.804 21.5397 283.583 20.8015 283.583 18.7287V9.38694H288.665V8.1092H283.583V3.48091H282.191V8.1092H280.09V9.38694H282.191V18.8707C282.191 21.6249 284.009 22.8459 286.252 22.8459C287.16 22.8459 287.87 22.6755 288.608 22.3348ZM299.75 14.9522V13.3622H292.14V14.9522H299.75ZM314.885 22.5903V2.71426H313.408V22.5903H314.885ZM328.497 9.41534V7.88204C325.629 7.76846 323.216 9.64249 322.08 12.2264V8.1092H320.689V22.5903H322.08V16.6559C322.08 11.9424 325.005 9.41534 328.355 9.41534H328.497ZM345.222 15.3498V15.293C345.222 11.2326 342.098 7.76846 337.811 7.76846C333.495 7.76846 330.343 11.2894 330.343 15.3498V15.4066C330.343 19.4669 333.466 22.9311 337.754 22.9311C342.07 22.9311 345.222 19.4102 345.222 15.3498ZM343.717 15.4066C343.717 18.8139 341.246 21.6249 337.811 21.6249C334.46 21.6249 331.848 18.8423 331.848 15.3498V15.293C331.848 11.8856 334.318 9.07461 337.754 9.07461C341.104 9.07461 343.717 11.8573 343.717 15.3498V15.4066ZM361.907 22.5903V13.7313C361.907 10.2672 359.778 7.76846 356.115 7.76846C353.474 7.76846 351.856 9.103 350.89 10.8067V8.1092H349.499V22.5903H350.89V14.214C350.89 11.2042 353.077 9.04621 355.916 9.04621C358.841 9.04621 360.516 11.0054 360.516 13.9868V22.5903H361.907ZM394.478 22.5903V2.71426H393.087L385.108 14.4695L377.129 2.71426H375.738V22.5903H377.158V5.32655L385.023 16.7695H385.136L393.002 5.32655V22.5903H394.478ZM411.378 22.5903V13.5609C411.378 9.81286 409.049 7.88204 405.33 7.88204C403.342 7.88204 401.78 8.39314 400.19 9.13139L400.701 10.3524C402.036 9.67089 403.484 9.18818 405.244 9.18818C408.226 9.18818 410.015 10.6931 410.015 13.6177V14.2424C408.623 13.8733 407.232 13.6177 405.216 13.6177C401.468 13.6177 398.884 15.3214 398.884 18.3312V18.388C398.884 21.3978 401.78 22.9311 404.478 22.9311C407.232 22.9311 409.021 21.5681 410.015 20.1768V22.5903H411.378ZM410.043 17.167C410.043 19.8077 407.516 21.6249 404.563 21.6249C402.348 21.6249 400.361 20.404 400.361 18.3028V18.246C400.361 16.23 402.064 14.8671 405.131 14.8671C407.204 14.8671 408.822 15.2078 410.043 15.5201V17.167ZM418.142 4.33274V2.43032H416.41V4.33274H418.142ZM417.971 22.5903V8.1092H416.58V22.5903H417.971ZM436.911 22.5903V1.86243H435.52V11.2326C434.327 9.41534 432.453 7.76846 429.557 7.76846C426.064 7.76846 422.515 10.6363 422.515 15.3498V15.4066C422.515 20.12 426.064 22.9311 429.557 22.9311C432.425 22.9311 434.27 21.2558 435.52 19.3534V22.5903H436.911ZM435.605 15.3782C435.605 19.0694 432.709 21.5965 429.699 21.5965C426.661 21.5965 424.02 19.1546 424.02 15.3498V15.293C424.02 11.4029 426.547 9.103 429.699 9.103C432.709 9.103 435.605 11.6017 435.605 15.3214V15.3782ZM442.679 15.9177H454.69C454.719 15.6905 454.719 15.6053 454.719 15.4066V15.3498C454.719 11.0622 452.135 7.76846 448.074 7.76846C444.156 7.76846 441.203 11.119 441.203 15.3214V15.3782C441.203 19.8929 444.497 22.9311 448.302 22.9311C451.084 22.9311 452.816 21.7953 454.293 20.2052L453.327 19.3534C452.135 20.6311 450.602 21.6249 448.358 21.6249C445.519 21.6249 442.935 19.5237 442.679 15.9177ZM442.679 14.6683C442.935 11.4597 445.15 9.04621 448.018 9.04621C451.34 9.04621 453.015 11.7437 453.214 14.6683H442.679ZM471.187 22.5903V13.7313C471.187 10.2672 469.057 7.76846 465.395 7.76846C462.754 7.76846 461.135 9.103 460.17 10.8067V8.1092H458.779V22.5903H460.17V14.214C460.17 11.2042 462.356 9.04621 465.196 9.04621C468.12 9.04621 469.796 11.0054 469.796 13.9868V22.5903H471.187Z" fill="white"/>
<path d="M18.1453 22.5903V23.5368H19.0918V22.5903H18.1453ZM18.1453 2.71426H19.0918V1.76778H18.1453V2.71426ZM16.7256 2.71426V1.76778H15.7791V2.71426H16.7256ZM16.7256 20.0064L15.984 20.5946L17.6721 22.723V20.0064H16.7256ZM3.0111 2.71426L3.75267 2.12613L3.46847 1.76778H3.0111V2.71426ZM1.61978 2.71426V1.76778H0.6733V2.71426H1.61978ZM1.61978 22.5903H0.6733V23.5368H1.61978V22.5903ZM3.0395 22.5903V23.5368H3.98598V22.5903H3.0395ZM3.0395 4.92903L3.78124 4.34111L2.09302 2.21114V4.92903H3.0395ZM17.0379 22.5903L16.2962 23.1782L16.5804 23.5368H17.0379V22.5903ZM19.0918 22.5903V2.71426H17.1988V22.5903H19.0918ZM18.1453 1.76778H16.7256V3.66074H18.1453V1.76778ZM15.7791 2.71426V20.0064H17.6721V2.71426H15.7791ZM17.4672 19.4183L3.75267 2.12613L2.26954 3.3024L15.984 20.5946L17.4672 19.4183ZM3.0111 1.76778H1.61978V3.66074H3.0111V1.76778ZM0.6733 2.71426V22.5903H2.56626V2.71426H0.6733ZM1.61978 23.5368H3.0395V21.6439H1.61978V23.5368ZM3.98598 22.5903V4.92903H2.09302V22.5903H3.98598ZM2.29775 5.51694L16.2962 23.1782L17.7797 22.0024L3.78124 4.34111L2.29775 5.51694ZM17.0379 23.5368H18.1453V21.6439H17.0379V23.5368ZM35.8645 22.5903V23.5368H36.811V22.5903H35.8645ZM35.8645 8.1092H36.811V7.16272H35.8645V8.1092ZM34.4732 8.1092V7.16272H33.5267V8.1092H34.4732ZM24.8475 8.1092H25.794V7.16272H24.8475V8.1092ZM23.4562 8.1092V7.16272H22.5097V8.1092H23.4562ZM34.4732 19.8929H35.4197V16.3028L33.6497 19.4262L34.4732 19.8929ZM34.4732 22.5903H33.5267V23.5368H34.4732V22.5903ZM36.811 22.5903V8.1092H34.918V22.5903H36.811ZM35.8645 7.16272H34.4732V9.05567H35.8645V7.16272ZM33.5267 8.1092V16.4855H35.4197V8.1092H33.5267ZM33.5267 16.4855C33.5267 18.9866 31.7502 20.7068 29.4474 20.7068V22.5998C32.8234 22.5998 35.4197 20.0041 35.4197 16.4855H33.5267ZM29.4474 20.7068C28.2067 20.7068 27.3278 20.2985 26.7509 19.6642C26.1632 19.018 25.794 18.0317 25.794 16.7127H23.901C23.901 18.3751 24.3694 19.8591 25.3505 20.9378C26.3424 22.0285 27.7634 22.5998 29.4474 22.5998V20.7068ZM25.794 16.7127V8.1092H23.901V16.7127H25.794ZM24.8475 7.16272H23.4562V9.05567H24.8475V7.16272ZM22.5097 8.1092V16.9682H24.4026V8.1092H22.5097ZM22.5097 16.9682C22.5097 18.8922 23.1031 20.6301 24.2879 21.8956C25.4805 23.1694 27.1917 23.8775 29.2486 23.8775V21.9846C27.6427 21.9846 26.4576 21.4434 25.6697 20.6018C24.874 19.7519 24.4026 18.5084 24.4026 16.9682H22.5097ZM29.2486 23.8775C32.2879 23.8775 34.1937 22.3058 35.2966 20.3595L33.6497 19.4262C32.8218 20.8872 31.4907 21.9846 29.2486 21.9846V23.8775ZM33.5267 19.8929V22.5903H35.4197V19.8929H33.5267ZM34.4732 23.5368H35.8645V21.6439H34.4732V23.5368ZM63.0459 22.5903V23.5368H63.9924V22.5903H63.0459ZM52.2561 10.8918L51.401 11.2976L52.173 12.9244L53.0752 11.3661L52.2561 10.8918ZM42.5452 10.6931H41.5987V14.0039L43.3486 11.1934L42.5452 10.6931ZM42.5452 8.1092H43.4917V7.16272H42.5452V8.1092ZM41.1539 8.1092V7.16272H40.2074V8.1092H41.1539ZM41.1539 22.5903H40.2074V23.5368H41.1539V22.5903ZM42.5452 22.5903V23.5368H43.4917V22.5903H42.5452ZM51.4042 22.5903H50.4577V23.5368H51.4042V22.5903ZM52.7956 22.5903V23.5368H53.742V22.5903H52.7956ZM61.6546 22.5903H60.7081V23.5368H61.6546V22.5903ZM63.9924 22.5903V13.8165H62.0994V22.5903H63.9924ZM63.9924 13.8165C63.9924 11.8177 63.4051 10.0609 62.2519 8.79275C61.0895 7.51454 59.4319 6.82198 57.4806 6.82198V8.71494C58.965 8.71494 60.0901 9.22915 60.8514 10.0663C61.6219 10.9136 62.0994 12.1807 62.0994 13.8165H63.9924ZM57.4806 6.82198C54.3143 6.82198 52.4845 8.60824 51.4369 10.4176L53.0752 11.3661C53.9017 9.93849 55.1952 8.71494 57.4806 8.71494V6.82198ZM53.1111 10.486C52.1948 8.55511 50.3407 6.82198 47.3722 6.82198V8.71494C49.4579 8.71494 50.7273 9.87805 51.401 11.2976L53.1111 10.486ZM47.3722 6.82198C45.8908 6.82198 44.7258 7.23407 43.794 7.89409C42.8798 8.54164 42.2397 9.39297 41.7417 10.1928L43.3486 11.1934C43.7876 10.4883 44.2691 9.87732 44.8882 9.43879C45.4897 9.01272 46.2698 8.71494 47.3722 8.71494V6.82198ZM43.4917 10.6931V8.1092H41.5987V10.6931H43.4917ZM42.5452 7.16272H41.1539V9.05567H42.5452V7.16272ZM40.2074 8.1092V22.5903H42.1003V8.1092H40.2074ZM41.1539 23.5368H42.5452V21.6439H41.1539V23.5368ZM43.4917 22.5903V14.2424H41.5987V22.5903H43.4917ZM43.4917 14.2424C43.4917 11.7375 45.2097 9.99269 47.1735 9.99269V8.09973C43.9695 8.09973 41.5987 10.898 41.5987 14.2424H43.4917ZM47.1735 9.99269C48.2263 9.99269 49.0122 10.3605 49.5463 10.9694C50.0925 11.5921 50.4577 12.5632 50.4577 13.9017H52.3507C52.3507 12.2303 51.8926 10.7737 50.9694 9.72114C50.034 8.65478 48.7045 8.09973 47.1735 8.09973V9.99269ZM50.4577 13.9017V22.5903H52.3507V13.9017H50.4577ZM51.4042 23.5368H52.7956V21.6439H51.4042V23.5368ZM53.742 22.5903V14.1572H51.8491V22.5903H53.742ZM53.742 14.1572C53.742 11.4056 55.4845 9.99269 57.367 9.99269V8.09973C54.3658 8.09973 51.8491 10.4349 51.8491 14.1572H53.742ZM57.367 9.99269C58.4747 9.99269 59.2689 10.3614 59.7991 10.9681C60.3438 11.5914 60.7081 12.5795 60.7081 13.9868H62.6011C62.6011 12.2708 62.1562 10.7886 61.2244 9.72242C60.2781 8.63961 58.9285 8.09973 57.367 8.09973V9.99269ZM60.7081 13.9868V22.5903H62.6011V13.9868H60.7081ZM61.6546 23.5368H63.0459V21.6439H61.6546V23.5368ZM69.5531 11.3462H68.6066V14.5116L70.3443 11.8657L69.5531 11.3462ZM69.5531 1.86243H70.4996V0.915953H69.5531V1.86243ZM68.1618 1.86243V0.915953H67.2153V1.86243H68.1618ZM68.1618 22.5903H67.2153V23.5368H68.1618V22.5903ZM69.5531 22.5903V23.5368H70.4996V22.5903H69.5531ZM69.5531 19.4669L70.3444 18.9477L68.6066 16.2996V19.4669H69.5531ZM83.5042 15.3498V15.293H81.6113V15.3498H83.5042ZM83.5042 15.293C83.5042 10.0351 79.5093 6.82198 75.5159 6.82198V8.71494C78.5076 8.71494 81.6113 11.1239 81.6113 15.293H83.5042ZM75.5159 6.82198C72.2026 6.82198 70.1029 8.78471 68.762 10.8266L70.3443 11.8657C71.502 10.1027 73.0937 8.71494 75.5159 8.71494V6.82198ZM70.4996 11.3462V1.86243H68.6066V11.3462H70.4996ZM69.5531 0.915953H68.1618V2.80891H69.5531V0.915953ZM67.2153 1.86243V22.5903H69.1083V1.86243H67.2153ZM68.1618 23.5368H69.5531V21.6439H68.1618V23.5368ZM70.4996 22.5903V19.4669H68.6066V22.5903H70.4996ZM68.7618 19.9862C70.0592 21.9632 72.1912 23.8775 75.5159 23.8775V21.9846C73.0482 21.9846 71.4322 20.6052 70.3444 18.9477L68.7618 19.9862ZM75.5159 23.8775C79.5191 23.8775 83.5042 20.598 83.5042 15.3498H81.6113C81.6113 19.5285 78.4978 21.9846 75.5159 21.9846V23.8775ZM80.1064 15.4066C80.1064 17.1415 79.5468 18.4417 78.7148 19.3025C77.8816 20.1645 76.7145 20.65 75.374 20.65V22.543C77.1853 22.543 78.8576 21.8785 80.0759 20.6181C81.2953 19.3564 81.9993 17.5616 81.9993 15.4066H80.1064ZM75.374 20.65C72.8782 20.65 70.4144 18.5664 70.4144 15.3782H68.5215C68.5215 19.6292 71.8501 22.543 75.374 22.543V20.65ZM70.4144 15.3782V15.3214H68.5215V15.3782H70.4144ZM70.4144 15.3214C70.4144 12.1586 72.8811 10.0495 75.374 10.0495V8.15652C71.8472 8.15652 68.5215 11.1016 68.5215 15.3214H70.4144ZM75.374 10.0495C77.8511 10.0495 80.1064 12.0285 80.1064 15.3498H81.9993C81.9993 11.0613 78.9732 8.15652 75.374 8.15652V10.0495ZM80.1064 15.3498V15.4066H81.9993V15.3498H80.1064ZM87.3892 15.9177V14.9712H86.3733L86.4451 15.9846L87.3892 15.9177ZM99.4001 15.9177V16.8641H100.236L100.339 16.035L99.4001 15.9177ZM99.0025 20.2052L99.6961 20.8492L100.357 20.1378L99.6287 19.4955L99.0025 20.2052ZM98.0371 19.3534L98.6633 18.6437L97.9732 18.0347L97.3452 18.7076L98.0371 19.3534ZM87.3892 14.6683L86.4457 14.5932L86.3644 15.6148H87.3892V14.6683ZM97.9235 14.6683V15.6148H98.9365L98.8678 14.6041L97.9235 14.6683ZM87.3892 16.8641H99.4001V14.9712H87.3892V16.8641ZM100.339 16.035C100.375 15.7528 100.375 15.6239 100.375 15.4066H98.482C98.482 15.5867 98.4824 15.6282 98.4609 15.8003L100.339 16.035ZM100.375 15.4066V15.3498H98.482V15.4066H100.375ZM100.375 15.3498C100.375 13.0212 99.673 10.8972 98.3506 9.3389C97.0166 7.76684 95.0913 6.82198 92.7842 6.82198V8.71494C94.5374 8.71494 95.9342 9.41696 96.9073 10.5637C97.892 11.7241 98.482 13.3908 98.482 15.3498H100.375ZM92.7842 6.82198C88.2526 6.82198 84.9662 10.6915 84.9662 15.3214H86.8592C86.8592 11.5465 89.4788 8.71494 92.7842 8.71494V6.82198ZM84.9662 15.3214V15.3782H86.8592V15.3214H84.9662ZM84.9662 15.3782C84.9662 20.3986 88.6669 23.8775 93.0113 23.8775V21.9846C89.746 21.9846 86.8592 19.3871 86.8592 15.3782H84.9662ZM93.0113 23.8775C96.125 23.8775 98.0926 22.5761 99.6961 20.8492L98.309 19.5612C96.9595 21.0145 95.463 21.9846 93.0113 21.9846V23.8775ZM99.6287 19.4955L98.6633 18.6437L97.4109 20.0631L98.3763 20.9149L99.6287 19.4955ZM97.3452 18.7076C96.2763 19.8528 94.9775 20.6784 93.0681 20.6784V22.5714C95.645 22.5714 97.4128 21.4094 98.7291 19.9992L97.3452 18.7076ZM93.0681 20.6784C90.7377 20.6784 88.5546 18.9736 88.3333 15.8507L86.4451 15.9846C86.7349 20.0739 89.7197 22.5714 93.0681 22.5714V20.6784ZM88.3327 14.7434C88.5591 11.9013 90.4698 9.99269 92.7274 9.99269V8.09973C89.2493 8.09973 86.7305 11.0181 86.4457 14.5932L88.3327 14.7434ZM92.7274 9.99269C94.1005 9.99269 95.0843 10.5367 95.767 11.3633C96.4708 12.2154 96.8898 13.4168 96.9792 14.7325L98.8678 14.6041C98.7585 12.9952 98.2405 11.3855 97.2265 10.1578C96.1913 8.90448 94.6764 8.09973 92.7274 8.09973V9.99269ZM97.9235 13.7218H87.3892V15.6148H97.9235V13.7218ZM111.297 9.41534V10.3618H112.243V9.41534H111.297ZM111.297 7.88204H112.243V6.9723L111.334 6.9363L111.297 7.88204ZM104.88 12.2264H103.933L105.746 12.6072L104.88 12.2264ZM104.88 8.1092H105.826V7.16272H104.88V8.1092ZM103.488 8.1092V7.16272H102.542V8.1092H103.488ZM103.488 22.5903H102.542V23.5368H103.488V22.5903ZM104.88 22.5903V23.5368H105.826V22.5903H104.88ZM112.243 9.41534V7.88204H110.35V9.41534H112.243ZM111.334 6.9363C107.997 6.80414 105.27 8.98538 104.013 11.8455L105.746 12.6072C106.761 10.2996 108.861 8.73279 111.259 8.82778L111.334 6.9363ZM105.826 12.2264V8.1092H103.933V12.2264H105.826ZM104.88 7.16272H103.488V9.05567H104.88V7.16272ZM102.542 8.1092V22.5903H104.435V8.1092H102.542ZM103.488 23.5368H104.88V21.6439H103.488V23.5368ZM105.826 22.5903V16.6559H103.933V22.5903H105.826ZM105.826 16.6559C105.826 14.4987 106.492 12.9342 107.45 11.917C108.409 10.8986 109.723 10.3618 111.155 10.3618V8.46886C109.237 8.46886 107.413 9.1956 106.072 10.6191C104.73 12.0438 103.933 14.0996 103.933 16.6559H105.826ZM111.155 10.3618H111.297V8.46886H111.155V10.3618ZM138.201 15.3498V15.293H136.308V15.3498H138.201ZM138.201 15.293C138.201 10.7479 134.691 6.82198 129.844 6.82198V8.71494C133.571 8.71494 136.308 11.7172 136.308 15.293H138.201ZM129.844 6.82198C124.966 6.82198 121.43 10.8067 121.43 15.3498H123.323C123.323 11.772 126.09 8.71494 129.844 8.71494V6.82198ZM121.43 15.3498V15.4066H123.323V15.3498H121.43ZM121.43 15.4066C121.43 19.9516 124.94 23.8775 129.787 23.8775V21.9846C126.06 21.9846 123.323 18.9823 123.323 15.4066H121.43ZM129.787 23.8775C134.665 23.8775 138.201 19.8928 138.201 15.3498H136.308C136.308 18.9275 133.541 21.9846 129.787 21.9846V23.8775ZM134.803 15.4066C134.803 18.3593 132.691 20.6784 129.844 20.6784V22.5714C133.868 22.5714 136.696 19.2684 136.696 15.4066H134.803ZM129.844 20.6784C127.064 20.6784 124.828 18.3691 124.828 15.3498H122.935C122.935 19.3155 125.923 22.5714 129.844 22.5714V20.6784ZM124.828 15.3498V15.293H122.935V15.3498H124.828ZM124.828 15.293C124.828 12.3402 126.94 10.0211 129.787 10.0211V8.12813C125.763 8.12813 122.935 11.4311 122.935 15.293H124.828ZM129.787 10.0211C132.567 10.0211 134.803 12.3305 134.803 15.3498H136.696C136.696 11.384 133.709 8.12813 129.787 8.12813V10.0211ZM134.803 15.3498V15.4066H136.696V15.3498H134.803ZM148.858 3.42412L148.578 4.32807L149.805 4.70887V3.42412H148.858ZM148.858 2.11798H149.805V1.44509L149.169 1.22404L148.858 2.11798ZM142.384 8.1092V9.05567H143.331V8.1092H142.384ZM140.283 8.1092V7.16272H139.337V8.1092H140.283ZM140.283 9.38694H139.337V10.3334H140.283V9.38694ZM142.384 9.38694H143.331V8.44046H142.384V9.38694ZM142.384 22.5903H141.438V23.5368H142.384V22.5903ZM143.776 22.5903V23.5368H144.722V22.5903H143.776ZM143.776 9.38694V8.44046H142.829V9.38694H143.776ZM148.83 9.38694V10.3334H149.776V9.38694H148.83ZM148.83 8.1092H149.776V7.16272H148.83V8.1092ZM143.776 8.1092H142.829V9.05567H143.776V8.1092ZM149.805 3.42412V2.11798H147.912V3.42412H149.805ZM149.169 1.22404C148.409 0.959817 147.679 0.830769 146.7 0.830769V2.72373C147.482 2.72373 148.001 2.82184 148.547 3.01193L149.169 1.22404ZM146.7 0.830769C145.12 0.830769 143.761 1.35703 142.81 2.43628C141.874 3.49865 141.438 4.97743 141.438 6.68948H143.331C143.331 5.27815 143.69 4.3008 144.23 3.68791C144.755 3.09189 145.554 2.72373 146.7 2.72373V0.830769ZM141.438 6.68948V8.1092H143.331V6.68948H141.438ZM142.384 7.16272H140.283V9.05567H142.384V7.16272ZM139.337 8.1092V9.38694H141.23V8.1092H139.337ZM140.283 10.3334H142.384V8.44046H140.283V10.3334ZM141.438 9.38694V22.5903H143.331V9.38694H141.438ZM142.384 23.5368H143.776V21.6439H142.384V23.5368ZM144.722 22.5903V9.38694H142.829V22.5903H144.722ZM143.776 10.3334H148.83V8.44046H143.776V10.3334ZM149.776 9.38694V8.1092H147.883V9.38694H149.776ZM148.83 7.16272H143.776V9.05567H148.83V7.16272ZM144.722 8.1092V6.71787H142.829V8.1092H144.722ZM144.722 6.71787C144.722 5.57342 144.944 4.91259 145.233 4.54921C145.487 4.23054 145.904 4.00148 146.7 4.00148V2.10852C145.509 2.10852 144.464 2.47573 143.752 3.37092C143.075 4.22141 142.829 5.39201 142.829 6.71787H144.722ZM146.7 4.00148C147.316 4.00148 147.815 4.09134 148.578 4.32807L149.139 2.52018C148.255 2.24581 147.561 2.10852 146.7 2.10852V4.00148ZM167.516 22.3348L167.913 23.1941L168.463 22.9404V22.3348H167.516ZM167.516 21.0286H168.463V19.5671L167.129 20.165L167.516 21.0286ZM162.491 9.38694V8.44046H161.544V9.38694H162.491ZM167.573 9.38694V10.3334H168.52V9.38694H167.573ZM167.573 8.1092H168.52V7.16272H167.573V8.1092ZM162.491 8.1092H161.544V9.05567H162.491V8.1092ZM162.491 3.48091H163.437V2.53443H162.491V3.48091ZM161.099 3.48091V2.53443H160.153V3.48091H161.099ZM161.099 8.1092V9.05567H162.046V8.1092H161.099ZM158.998 8.1092V7.16272H158.052V8.1092H158.998ZM158.998 9.38694H158.052V10.3334H158.998V9.38694ZM161.099 9.38694H162.046V8.44046H161.099V9.38694ZM168.463 22.3348V21.0286H166.57V22.3348H168.463ZM167.129 20.165C166.397 20.4931 165.933 20.5933 165.387 20.5933V22.4862C166.26 22.4862 166.989 22.3024 167.904 21.8923L167.129 20.165ZM165.387 20.5933C164.668 20.5933 164.204 20.4322 163.928 20.1946C163.679 19.9799 163.437 19.5751 163.437 18.7287H161.544C161.544 19.9551 161.912 20.9558 162.692 21.6284C163.446 22.2782 164.431 22.4862 165.387 22.4862V20.5933ZM163.437 18.7287V9.38694H161.544V18.7287H163.437ZM162.491 10.3334H167.573V8.44046H162.491V10.3334ZM168.52 9.38694V8.1092H166.627V9.38694H168.52ZM167.573 7.16272H162.491V9.05567H167.573V7.16272ZM163.437 8.1092V3.48091H161.544V8.1092H163.437ZM162.491 2.53443H161.099V4.42739H162.491V2.53443ZM160.153 3.48091V8.1092H162.046V3.48091H160.153ZM161.099 7.16272H158.998V9.05567H161.099V7.16272ZM158.052 8.1092V9.38694H159.945V8.1092H158.052ZM158.998 10.3334H161.099V8.44046H158.998V10.3334ZM160.153 9.38694V18.8707H162.046V9.38694H160.153ZM160.153 18.8707C160.153 20.4689 160.689 21.7403 161.661 22.6002C162.615 23.4432 163.877 23.7924 165.16 23.7924V21.8994C164.199 21.8994 163.431 21.6381 162.915 21.182C162.418 20.7429 162.046 20.0267 162.046 18.8707H160.153ZM165.16 23.7924C166.208 23.7924 167.053 23.5909 167.913 23.1941L167.12 21.4754C166.503 21.7601 165.928 21.8994 165.16 21.8994V23.7924ZM184.11 22.5903V23.5368H185.056V22.5903H184.11ZM173.093 10.8067H172.146V14.3967L173.916 11.2733L173.093 10.8067ZM173.093 1.86243H174.039V0.915953H173.093V1.86243ZM171.701 1.86243V0.915953H170.755V1.86243H171.701ZM171.701 22.5903H170.755V23.5368H171.701V22.5903ZM173.093 22.5903V23.5368H174.039V22.5903H173.093ZM182.718 22.5903H181.772V23.5368H182.718V22.5903ZM185.056 22.5903V13.7313H183.163V22.5903H185.056ZM185.056 13.7313C185.056 11.8073 184.463 10.0694 183.278 8.80396C182.085 7.53013 180.374 6.82198 178.317 6.82198V8.71494C179.923 8.71494 181.108 9.25615 181.896 10.0977C182.692 10.9477 183.163 12.1911 183.163 13.7313H185.056ZM178.317 6.82198C175.278 6.82198 173.372 8.39371 172.269 10.34L173.916 11.2733C174.744 9.81229 176.075 8.71494 178.317 8.71494V6.82198ZM174.039 10.8067V1.86243H172.146V10.8067H174.039ZM173.093 0.915953H171.701V2.80891H173.093V0.915953ZM170.755 1.86243V22.5903H172.648V1.86243H170.755ZM171.701 23.5368H173.093V21.6439H171.701V23.5368ZM174.039 22.5903V14.214H172.146V22.5903H174.039ZM174.039 14.214C174.039 11.7129 175.816 9.99269 178.119 9.99269V8.09973C174.743 8.09973 172.146 10.6955 172.146 14.214H174.039ZM178.119 9.99269C179.359 9.99269 180.238 10.401 180.815 11.0353C181.403 11.6815 181.772 12.6678 181.772 13.9868H183.665C183.665 12.3244 183.197 10.8405 182.215 9.76168C181.224 8.67101 179.803 8.09973 178.119 8.09973V9.99269ZM181.772 13.9868V22.5903H183.665V13.9868H181.772ZM182.718 23.5368H184.11V21.6439H182.718V23.5368ZM189.598 15.9177V14.9712H188.582L188.654 15.9846L189.598 15.9177ZM201.609 15.9177V16.8641H202.444L202.548 16.035L201.609 15.9177ZM201.211 20.2052L201.905 20.8492L202.565 20.1378L201.837 19.4955L201.211 20.2052ZM200.246 19.3534L200.872 18.6437L200.182 18.0347L199.554 18.7076L200.246 19.3534ZM189.598 14.6683L188.654 14.5932L188.573 15.6148H189.598V14.6683ZM200.132 14.6683V15.6148H201.145L201.077 14.6041L200.132 14.6683ZM189.598 16.8641H201.609V14.9712H189.598V16.8641ZM202.548 16.035C202.583 15.7528 202.584 15.6239 202.584 15.4066H200.691C200.691 15.5867 200.691 15.6282 200.67 15.8003L202.548 16.035ZM202.584 15.4066V15.3498H200.691V15.4066H202.584ZM202.584 15.3498C202.584 13.0212 201.882 10.8972 200.559 9.3389C199.225 7.76684 197.3 6.82198 194.993 6.82198V8.71494C196.746 8.71494 198.143 9.41696 199.116 10.5637C200.101 11.7241 200.691 13.3908 200.691 15.3498H202.584ZM194.993 6.82198C190.461 6.82198 187.175 10.6915 187.175 15.3214H189.068C189.068 11.5465 191.688 8.71494 194.993 8.71494V6.82198ZM187.175 15.3214V15.3782H189.068V15.3214H187.175ZM187.175 15.3782C187.175 20.3986 190.876 23.8775 195.22 23.8775V21.9846C191.955 21.9846 189.068 19.3871 189.068 15.3782H187.175ZM195.22 23.8775C198.334 23.8775 200.301 22.5761 201.905 20.8492L200.518 19.5612C199.168 21.0145 197.672 21.9846 195.22 21.9846V23.8775ZM201.837 19.4955L200.872 18.6437L199.62 20.0631L200.585 20.9149L201.837 19.4955ZM199.554 18.7076C198.485 19.8528 197.186 20.6784 195.277 20.6784V22.5714C197.854 22.5714 199.622 21.4094 200.938 19.9992L199.554 18.7076ZM195.277 20.6784C192.946 20.6784 190.763 18.9736 190.542 15.8507L188.654 15.9846C188.944 20.0739 191.928 22.5714 195.277 22.5714V20.6784ZM190.541 14.7434C190.768 11.9013 192.679 9.99269 194.936 9.99269V8.09973C191.458 8.09973 188.939 11.0181 188.654 14.5932L190.541 14.7434ZM194.936 9.99269C196.309 9.99269 197.293 10.5367 197.976 11.3633C198.679 12.2154 199.099 13.4168 199.188 14.7325L201.077 14.6041C200.967 12.9952 200.449 11.3855 199.435 10.1578C198.4 8.90448 196.885 8.09973 194.936 8.09973V9.99269ZM200.132 13.7218H189.598V15.6148H200.132V13.7218ZM225.795 12.3684L225.441 11.4906L222.791 12.5599L225.555 13.284L225.795 12.3684ZM214.522 2.71426V1.76778H213.576V2.71426H214.522ZM214.522 22.5903H213.576V23.5368H214.522V22.5903ZM215.999 11.8856H215.052V12.8321H215.999V11.8856ZM215.999 4.07719V3.13071H215.052V4.07719H215.999ZM215.999 21.2274H215.052V22.1739H215.999V21.2274ZM215.999 13.2486V12.3021H215.052V13.2486H215.999ZM231.228 17.167V17.1102H229.335V17.167H231.228ZM231.228 17.1102C231.228 15.4585 230.584 14.1811 229.576 13.2465C228.595 12.3381 227.309 11.7866 226.035 11.4528L225.555 13.284C226.665 13.5748 227.622 14.0171 228.289 14.6349C228.927 15.2265 229.335 16.0076 229.335 17.1102H231.228ZM226.149 13.2461C227.96 12.5152 230.12 10.8898 230.12 7.65489H228.227C228.227 9.81489 226.866 10.9154 225.441 11.4906L226.149 13.2461ZM230.12 7.65489V7.5981H228.227V7.65489H230.12ZM230.12 7.5981C230.12 5.80205 229.328 4.30389 227.968 3.28154C226.632 2.27768 224.803 1.76778 222.728 1.76778V3.66074C224.515 3.66074 225.909 4.10206 226.83 4.79476C227.727 5.46898 228.227 6.41274 228.227 7.5981H230.12ZM222.728 1.76778H214.522V3.66074H222.728V1.76778ZM213.576 2.71426V22.5903H215.469V2.71426H213.576ZM214.522 23.5368H223.154V21.6439H214.522V23.5368ZM223.154 23.5368C225.441 23.5368 227.442 22.9777 228.896 21.8798C230.375 20.7629 231.228 19.129 231.228 17.167H229.335C229.335 18.5271 228.767 19.6049 227.755 20.3691C226.718 21.1524 225.155 21.6439 223.154 21.6439V23.5368ZM226.722 7.79686C226.722 8.83224 226.32 9.57252 225.656 10.0797C224.963 10.6096 223.909 10.9392 222.558 10.9392V12.8321C224.188 12.8321 225.689 12.4377 226.806 11.5834C227.953 10.7063 228.615 9.40216 228.615 7.79686H226.722ZM222.558 10.9392H215.999V12.8321H222.558V10.9392ZM216.945 11.8856V4.07719H215.052V11.8856H216.945ZM215.999 5.02367H222.7V3.13071H215.999V5.02367ZM222.7 5.02367C224.157 5.02367 225.174 5.36328 225.804 5.84211C226.406 6.29991 226.722 6.93313 226.722 7.74007H228.615C228.615 6.36064 228.037 5.16242 226.95 4.33538C225.89 3.52937 224.423 3.13071 222.7 3.13071V5.02367ZM226.722 7.74007V7.79686H228.615V7.74007H226.722ZM227.83 17.167C227.83 18.1087 227.439 18.8414 226.714 19.369C225.959 19.9186 224.784 20.2809 223.211 20.2809V22.1739C225.045 22.1739 226.653 21.7553 227.828 20.8994C229.034 20.0215 229.723 18.724 229.723 17.167H227.83ZM223.211 20.2809H215.999V22.1739H223.211V20.2809ZM216.945 21.2274V13.2486H215.052V21.2274H216.945ZM215.999 14.1951H222.728V12.3021H215.999V14.1951ZM222.728 14.1951C224.596 14.1951 225.901 14.5372 226.708 15.0588C227.463 15.5463 227.83 16.2138 227.83 17.1102H229.723C229.723 15.5647 229.025 14.3014 227.735 13.4686C226.498 12.6698 224.779 12.3021 222.728 12.3021V14.1951ZM227.83 17.1102V17.167H229.723V17.1102H227.83ZM235.184 15.9177V14.9712H234.168L234.24 15.9846L235.184 15.9177ZM247.195 15.9177V16.8641H248.031L248.134 16.035L247.195 15.9177ZM246.798 20.2052L247.491 20.8492L248.152 20.1378L247.424 19.4955L246.798 20.2052ZM245.832 19.3534L246.458 18.6437L245.768 18.0347L245.14 18.7076L245.832 19.3534ZM235.184 14.6683L234.241 14.5932L234.159 15.6148H235.184V14.6683ZM245.719 14.6683V15.6148H246.732L246.663 14.6041L245.719 14.6683ZM235.184 16.8641H247.195V14.9712H235.184V16.8641ZM248.134 16.035C248.169 15.7528 248.17 15.6239 248.17 15.4066H246.277C246.277 15.5867 246.277 15.6282 246.256 15.8003L248.134 16.035ZM248.17 15.4066V15.3498H246.277V15.4066H248.17ZM248.17 15.3498C248.17 13.0212 247.468 10.8972 246.146 9.3389C244.812 7.76684 242.886 6.82198 240.579 6.82198V8.71494C242.332 8.71494 243.729 9.41696 244.702 10.5637C245.687 11.7241 246.277 13.3908 246.277 15.3498H248.17ZM240.579 6.82198C236.048 6.82198 232.761 10.6915 232.761 15.3214H234.654C234.654 11.5465 237.274 8.71494 240.579 8.71494V6.82198ZM232.761 15.3214V15.3782H234.654V15.3214H232.761ZM232.761 15.3782C232.761 20.3986 236.462 23.8775 240.806 23.8775V21.9846C237.541 21.9846 234.654 19.3871 234.654 15.3782H232.761ZM240.806 23.8775C243.92 23.8775 245.888 22.5761 247.491 20.8492L246.104 19.5612C244.754 21.0145 243.258 21.9846 240.806 21.9846V23.8775ZM247.424 19.4955L246.458 18.6437L245.206 20.0631L246.171 20.9149L247.424 19.4955ZM245.14 18.7076C244.071 19.8528 242.772 20.6784 240.863 20.6784V22.5714C243.44 22.5714 245.208 21.4094 246.524 19.9992L245.14 18.7076ZM240.863 20.6784C238.533 20.6784 236.35 18.9736 236.128 15.8507L234.24 15.9846C234.53 20.0739 237.515 22.5714 240.863 22.5714V20.6784ZM236.128 14.7434C236.354 11.9013 238.265 9.99269 240.522 9.99269V8.09973C237.044 8.09973 234.525 11.0181 234.241 14.5932L236.128 14.7434ZM240.522 9.99269C241.896 9.99269 242.879 10.5367 243.562 11.3633C244.266 12.2154 244.685 13.4168 244.774 14.7325L246.663 14.6041C246.553 12.9952 246.036 11.3855 245.021 10.1578C243.986 8.90448 242.471 8.09973 240.522 8.09973V9.99269ZM245.719 13.7218H235.184V15.6148H245.719V13.7218ZM262.584 22.5903V23.5368H263.531V22.5903H262.584ZM251.397 9.13139L250.998 8.27293L250.172 8.65655L250.524 9.49687L251.397 9.13139ZM251.908 10.3524L251.035 10.7178L251.429 11.6596L252.338 11.1953L251.908 10.3524ZM261.221 14.2424L260.979 15.1572L262.168 15.4727V14.2424H261.221ZM261.221 20.1768H262.168V17.2234L260.451 19.6267L261.221 20.1768ZM261.221 22.5903H260.275V23.5368H261.221V22.5903ZM261.25 15.5201H262.196V14.7853L261.484 14.6032L261.25 15.5201ZM263.531 22.5903V13.5609H261.638V22.5903H263.531ZM263.531 13.5609C263.531 11.4846 262.879 9.78521 261.592 8.6154C260.318 7.45858 258.55 6.93556 256.536 6.93556V8.82852C258.242 8.82852 259.498 9.27091 260.319 10.0165C261.125 10.7491 261.638 11.8892 261.638 13.5609H263.531ZM256.536 6.93556C254.365 6.93556 252.663 7.50016 250.998 8.27293L251.796 9.98986C253.311 9.28612 254.733 8.82852 256.536 8.82852V6.93556ZM250.524 9.49687L251.035 10.7178L252.781 9.98688L252.27 8.76592L250.524 9.49687ZM252.338 11.1953C253.579 10.5616 254.879 10.1347 256.451 10.1347V8.2417C254.502 8.2417 252.906 8.78016 251.478 9.50941L252.338 11.1953ZM256.451 10.1347C257.794 10.1347 258.729 10.4736 259.319 11.0081C259.895 11.5287 260.275 12.3536 260.275 13.6177H262.168C262.168 11.9572 261.654 10.5673 260.589 9.60436C259.54 8.65522 258.09 8.2417 256.451 8.2417V10.1347ZM260.275 13.6177V14.2424H262.168V13.6177H260.275ZM261.464 13.3276C260.008 12.9414 258.535 12.6712 256.423 12.6712V14.5642C258.343 14.5642 259.652 14.8051 260.979 15.1572L261.464 13.3276ZM256.423 12.6712C254.421 12.6712 252.623 13.1242 251.298 14.0776C249.94 15.0552 249.144 16.5177 249.144 18.3312H251.037C251.037 17.1348 251.533 16.2406 252.404 15.614C253.309 14.963 254.677 14.5642 256.423 14.5642V12.6712ZM249.144 18.3312V18.388H251.037V18.3312H249.144ZM249.144 18.388C249.144 20.2402 250.052 21.6465 251.325 22.5579C252.574 23.4513 254.173 23.8775 255.685 23.8775V21.9846C254.498 21.9846 253.301 21.6442 252.427 21.0185C251.578 20.4108 251.037 19.5455 251.037 18.388H249.144ZM255.685 23.8775C258.795 23.8775 260.852 22.323 261.992 20.7269L260.451 19.6267C259.604 20.8132 258.083 21.9846 255.685 21.9846V23.8775ZM260.275 20.1768V22.5903H262.168V20.1768H260.275ZM261.221 23.5368H262.584V21.6439H261.221V23.5368ZM260.303 17.167C260.303 19.0831 258.428 20.6784 255.77 20.6784V22.5714C259.018 22.5714 262.196 20.5323 262.196 17.167H260.303ZM255.77 20.6784C254.824 20.6784 253.98 20.4158 253.398 19.9888C252.837 19.5773 252.514 19.0168 252.514 18.3028H250.621C250.621 19.6899 251.291 20.7905 252.278 21.5148C253.244 22.2236 254.501 22.5714 255.77 22.5714V20.6784ZM252.514 18.3028V18.246H250.621V18.3028H252.514ZM252.514 18.246C252.514 17.5371 252.798 16.9771 253.362 16.5641C253.957 16.1283 254.93 15.8135 256.338 15.8135V13.9206C254.679 13.9206 253.267 14.2873 252.243 15.037C251.189 15.8094 250.621 16.9388 250.621 18.246H252.514ZM256.338 15.8135C258.302 15.8135 259.836 16.1354 261.015 16.4371L261.484 14.6032C260.222 14.2802 258.519 13.9206 256.338 13.9206V15.8135ZM260.303 15.5201V17.167H262.196V15.5201H260.303ZM272.5 14.5263L272.239 15.4359L272.245 15.4376L272.5 14.5263ZM276.22 10.5795L275.699 11.3696L276.503 11.9002L277.019 11.0864L276.22 10.5795ZM276.958 9.41534L277.757 9.92222L278.253 9.14097L277.483 8.62782L276.958 9.41534ZM272.017 15.8609L271.755 16.7701L271.761 16.7719L272.017 15.8609ZM267.162 19.6657L267.738 18.915L266.976 18.3296L266.403 19.1009L267.162 19.6657ZM266.339 20.7731L265.579 20.2083L265.039 20.9349L265.741 21.5068L266.339 20.7731ZM278.217 18.6435V18.5867H276.324V18.6435H278.217ZM278.217 18.5867C278.217 16.932 277.394 15.8119 276.291 15.0608C275.245 14.3486 273.91 13.9388 272.756 13.615L272.245 15.4376C273.418 15.7669 274.468 16.1096 275.226 16.6254C275.926 17.1024 276.324 17.686 276.324 18.5867H278.217ZM272.762 13.6167C271.698 13.3106 270.807 13.0408 270.175 12.6814C269.571 12.338 269.415 12.0404 269.415 11.7153H267.522C267.522 13.0086 268.345 13.8184 269.239 14.3269C270.105 14.8193 271.23 15.1458 272.239 15.4359L272.762 13.6167ZM269.415 11.7153V11.6585H267.522V11.7153H269.415ZM269.415 11.6585C269.415 10.9347 270.07 10.0779 271.762 10.0779V8.18491C269.479 8.18491 267.522 9.48603 267.522 11.6585H269.415ZM271.762 10.0779C273.072 10.0779 274.484 10.5684 275.699 11.3696L276.741 9.78941C275.287 8.83019 273.518 8.18491 271.762 8.18491V10.0779ZM277.019 11.0864L277.757 9.92222L276.159 8.90846L275.421 10.0726L277.019 11.0864ZM277.483 8.62782C275.889 7.56501 273.749 6.87877 271.819 6.87877V8.77173C273.353 8.77173 275.131 9.33485 276.433 10.2029L277.483 8.62782ZM271.819 6.87877C268.642 6.87877 266.102 8.83359 266.102 11.8289H267.995C267.995 10.1675 269.373 8.77173 271.819 8.77173V6.87877ZM266.102 11.8289V11.8856H267.995V11.8289H266.102ZM266.102 11.8856C266.102 13.588 267.003 14.682 268.152 15.3918C269.233 16.0603 270.618 16.4416 271.755 16.7701L272.28 14.9516C271.06 14.5987 269.96 14.2843 269.147 13.7815C268.4 13.3201 267.995 12.7672 267.995 11.8856H266.102ZM271.761 16.7719C272.785 17.0603 273.614 17.328 274.19 17.6864C274.716 18.0146 274.904 18.3327 274.904 18.7571H276.797C276.797 17.4778 276.076 16.6318 275.191 16.0798C274.353 15.5579 273.266 15.2293 272.274 14.9498L271.761 16.7719ZM274.904 18.7571V18.8139H276.797V18.7571H274.904ZM274.904 18.8139C274.904 19.3312 274.679 19.7507 274.265 20.0667C273.833 20.3962 273.173 20.6217 272.358 20.6217V22.5146C273.502 22.5146 274.589 22.2006 275.413 21.5718C276.255 20.9294 276.797 19.9718 276.797 18.8139H274.904ZM272.358 20.6217C270.757 20.6217 269.194 20.0329 267.738 18.915L266.586 20.4164C268.31 21.7405 270.268 22.5146 272.358 22.5146V20.6217ZM266.403 19.1009L265.579 20.2083L267.098 21.3379L267.922 20.2305L266.403 19.1009ZM265.741 21.5068C267.44 22.8917 269.951 23.8208 272.273 23.8208V21.9278C270.393 21.9278 268.303 21.1532 266.936 20.0393L265.741 21.5068ZM272.273 23.8208C275.388 23.8208 278.217 21.9219 278.217 18.6435H276.324C276.324 20.5329 274.723 21.9278 272.273 21.9278V23.8208ZM288.608 22.3348L289.005 23.1941L289.555 22.9404V22.3348H288.608ZM288.608 21.0286H289.555V19.5671L288.221 20.165L288.608 21.0286ZM283.583 9.38694V8.44046H282.636V9.38694H283.583ZM288.665 9.38694V10.3334H289.612V9.38694H288.665ZM288.665 8.1092H289.612V7.16272H288.665V8.1092ZM283.583 8.1092H282.636V9.05567H283.583V8.1092ZM283.583 3.48091H284.529V2.53443H283.583V3.48091ZM282.191 3.48091V2.53443H281.245V3.48091H282.191ZM282.191 8.1092V9.05567H283.138V8.1092H282.191ZM280.09 8.1092V7.16272H279.144V8.1092H280.09ZM280.09 9.38694H279.144V10.3334H280.09V9.38694ZM282.191 9.38694H283.138V8.44046H282.191V9.38694ZM289.555 22.3348V21.0286H287.662V22.3348H289.555ZM288.221 20.165C287.489 20.4931 287.026 20.5933 286.479 20.5933V22.4862C287.352 22.4862 288.081 22.3024 288.996 21.8923L288.221 20.165ZM286.479 20.5933C285.76 20.5933 285.296 20.4322 285.021 20.1946C284.771 19.9799 284.529 19.5751 284.529 18.7287H282.636C282.636 19.9551 283.004 20.9558 283.785 21.6284C284.538 22.2782 285.523 22.4862 286.479 22.4862V20.5933ZM284.529 18.7287V9.38694H282.636V18.7287H284.529ZM283.583 10.3334H288.665V8.44046H283.583V10.3334ZM289.612 9.38694V8.1092H287.719V9.38694H289.612ZM288.665 7.16272H283.583V9.05567H288.665V7.16272ZM284.529 8.1092V3.48091H282.636V8.1092H284.529ZM283.583 2.53443H282.191V4.42739H283.583V2.53443ZM281.245 3.48091V8.1092H283.138V3.48091H281.245ZM282.191 7.16272H280.09V9.05567H282.191V7.16272ZM279.144 8.1092V9.38694H281.037V8.1092H279.144ZM280.09 10.3334H282.191V8.44046H280.09V10.3334ZM281.245 9.38694V18.8707H283.138V9.38694H281.245ZM281.245 18.8707C281.245 20.4689 281.781 21.7403 282.753 22.6002C283.707 23.4432 284.969 23.7924 286.252 23.7924V21.8994C285.292 21.8994 284.523 21.6381 284.007 21.182C283.51 20.7429 283.138 20.0267 283.138 18.8707H281.245ZM286.252 23.7924C287.3 23.7924 288.145 23.5909 289.005 23.1941L288.212 21.4754C287.595 21.7601 287.02 21.8994 286.252 21.8994V23.7924ZM299.75 14.9522V15.8987H300.697V14.9522H299.75ZM299.75 13.3622H300.697V12.4157H299.75V13.3622ZM292.14 13.3622V12.4157H291.194V13.3622H292.14ZM292.14 14.9522H291.194V15.8987H292.14V14.9522ZM300.697 14.9522V13.3622H298.804V14.9522H300.697ZM299.75 12.4157H292.14V14.3086H299.75V12.4157ZM291.194 13.3622V14.9522H293.087V13.3622H291.194ZM292.14 15.8987H299.75V14.0058H292.14V15.8987ZM314.885 22.5903V23.5368H315.831V22.5903H314.885ZM314.885 2.71426H315.831V1.76778H314.885V2.71426ZM313.408 2.71426V1.76778H312.462V2.71426H313.408ZM313.408 22.5903H312.462V23.5368H313.408V22.5903ZM315.831 22.5903V2.71426H313.938V22.5903H315.831ZM314.885 1.76778H313.408V3.66074H314.885V1.76778ZM312.462 2.71426V22.5903H314.355V2.71426H312.462ZM313.408 23.5368H314.885V21.6439H313.408V23.5368ZM328.497 9.41534V10.3618H329.444V9.41534H328.497ZM328.497 7.88204H329.444V6.9723L328.535 6.9363L328.497 7.88204ZM322.08 12.2264H321.134L322.947 12.6072L322.08 12.2264ZM322.08 8.1092H323.027V7.16272H322.08V8.1092ZM320.689 8.1092V7.16272H319.742V8.1092H320.689ZM320.689 22.5903H319.742V23.5368H320.689V22.5903ZM322.08 22.5903V23.5368H323.027V22.5903H322.08ZM329.444 9.41534V7.88204H327.551V9.41534H329.444ZM328.535 6.9363C325.198 6.80414 322.471 8.98538 321.214 11.8455L322.947 12.6072C323.961 10.2996 326.061 8.73279 328.46 8.82778L328.535 6.9363ZM323.027 12.2264V8.1092H321.134V12.2264H323.027ZM322.08 7.16272H320.689V9.05567H322.08V7.16272ZM319.742 8.1092V22.5903H321.635V8.1092H319.742ZM320.689 23.5368H322.08V21.6439H320.689V23.5368ZM323.027 22.5903V16.6559H321.134V22.5903H323.027ZM323.027 16.6559C323.027 14.4987 323.692 12.9342 324.65 11.917C325.609 10.8986 326.923 10.3618 328.355 10.3618V8.46886C326.437 8.46886 324.613 9.1956 323.272 10.6191C321.93 12.0438 321.134 14.0996 321.134 16.6559H323.027ZM328.355 10.3618H328.497V8.46886H328.355V10.3618ZM346.168 15.3498V15.293H344.275V15.3498H346.168ZM346.168 15.293C346.168 10.7479 342.658 6.82198 337.811 6.82198V8.71494C341.538 8.71494 344.275 11.7172 344.275 15.293H346.168ZM337.811 6.82198C332.933 6.82198 329.396 10.8067 329.396 15.3498H331.289C331.289 11.772 334.057 8.71494 337.811 8.71494V6.82198ZM329.396 15.3498V15.4066H331.289V15.3498H329.396ZM329.396 15.4066C329.396 19.9516 332.906 23.8775 337.754 23.8775V21.9846C334.026 21.9846 331.289 18.9823 331.289 15.4066H329.396ZM337.754 23.8775C342.632 23.8775 346.168 19.8928 346.168 15.3498H344.275C344.275 18.9275 341.508 21.9846 337.754 21.9846V23.8775ZM342.77 15.4066C342.77 18.3593 340.658 20.6784 337.811 20.6784V22.5714C341.835 22.5714 344.663 19.2684 344.663 15.4066H342.77ZM337.811 20.6784C335.031 20.6784 332.794 18.3691 332.794 15.3498H330.901C330.901 19.3155 333.889 22.5714 337.811 22.5714V20.6784ZM332.794 15.3498V15.293H330.901V15.3498H332.794ZM332.794 15.293C332.794 12.3402 334.906 10.0211 337.754 10.0211V8.12813C333.73 8.12813 330.901 11.4311 330.901 15.293H332.794ZM337.754 10.0211C340.533 10.0211 342.77 12.3305 342.77 15.3498H344.663C344.663 11.384 341.675 8.12813 337.754 8.12813V10.0211ZM342.77 15.3498V15.4066H344.663V15.3498H342.77ZM361.907 22.5903V23.5368H362.854V22.5903H361.907ZM350.89 10.8067H349.944V14.3967L351.714 11.2733L350.89 10.8067ZM350.89 8.1092H351.837V7.16272H350.89V8.1092ZM349.499 8.1092V7.16272H348.553V8.1092H349.499ZM349.499 22.5903H348.553V23.5368H349.499V22.5903ZM350.89 22.5903V23.5368H351.837V22.5903H350.89ZM360.516 22.5903H359.57V23.5368H360.516V22.5903ZM362.854 22.5903V13.7313H360.961V22.5903H362.854ZM362.854 13.7313C362.854 11.8073 362.26 10.0694 361.076 8.80396C359.883 7.53013 358.172 6.82198 356.115 6.82198V8.71494C357.721 8.71494 358.906 9.25615 359.694 10.0977C360.49 10.9477 360.961 12.1911 360.961 13.7313H362.854ZM356.115 6.82198C353.076 6.82198 351.17 8.39371 350.067 10.34L351.714 11.2733C352.542 9.81229 353.873 8.71494 356.115 8.71494V6.82198ZM351.837 10.8067V8.1092H349.944V10.8067H351.837ZM350.89 7.16272H349.499V9.05567H350.89V7.16272ZM348.553 8.1092V22.5903H350.446V8.1092H348.553ZM349.499 23.5368H350.89V21.6439H349.499V23.5368ZM351.837 22.5903V14.214H349.944V22.5903H351.837ZM351.837 14.214C351.837 11.7129 353.613 9.99269 355.916 9.99269V8.09973C352.54 8.09973 349.944 10.6955 349.944 14.214H351.837ZM355.916 9.99269C357.157 9.99269 358.036 10.401 358.613 11.0353C359.2 11.6815 359.57 12.6678 359.57 13.9868H361.463C361.463 12.3244 360.994 10.8405 360.013 9.76168C359.021 8.67101 357.6 8.09973 355.916 8.09973V9.99269ZM359.57 13.9868V22.5903H361.463V13.9868H359.57ZM360.516 23.5368H361.907V21.6439H360.516V23.5368ZM394.478 22.5903V23.5368H395.425V22.5903H394.478ZM394.478 2.71426H395.425V1.76778H394.478V2.71426ZM393.087 2.71426V1.76778H392.585L392.304 2.18272L393.087 2.71426ZM385.108 14.4695L384.325 15.0011L385.108 16.1549L385.891 15.0011L385.108 14.4695ZM377.129 2.71426L377.912 2.18272L377.631 1.76778H377.129V2.71426ZM375.738 2.71426V1.76778H374.791V2.71426H375.738ZM375.738 22.5903H374.791V23.5368H375.738V22.5903ZM377.158 22.5903V23.5368H378.104V22.5903H377.158ZM377.158 5.32655L377.938 4.79042L376.211 2.27862V5.32655H377.158ZM385.023 16.7695L384.243 17.3056L384.525 17.716H385.023V16.7695ZM385.136 16.7695V17.716H385.634L385.916 17.3056L385.136 16.7695ZM393.002 5.32655H393.948V2.27862L392.222 4.79042L393.002 5.32655ZM393.002 22.5903H392.055V23.5368H393.002V22.5903ZM395.425 22.5903V2.71426H393.532V22.5903H395.425ZM394.478 1.76778H393.087V3.66074H394.478V1.76778ZM392.304 2.18272L384.325 13.938L385.891 15.0011L393.87 3.2458L392.304 2.18272ZM385.891 13.938L377.912 2.18272L376.346 3.2458L384.325 15.0011L385.891 13.938ZM377.129 1.76778H375.738V3.66074H377.129V1.76778ZM374.791 2.71426V22.5903H376.684V2.71426H374.791ZM375.738 23.5368H377.158V21.6439H375.738V23.5368ZM378.104 22.5903V5.32655H376.211V22.5903H378.104ZM376.378 5.86267L384.243 17.3056L385.803 16.2334L377.938 4.79042L376.378 5.86267ZM385.023 17.716H385.136V15.823H385.023V17.716ZM385.916 17.3056L393.782 5.86267L392.222 4.79042L384.356 16.2334L385.916 17.3056ZM392.055 5.32655V22.5903H393.948V5.32655H392.055ZM393.002 23.5368H394.478V21.6439H393.002V23.5368ZM411.378 22.5903V23.5368H412.324V22.5903H411.378ZM400.19 9.13139L399.792 8.27293L398.965 8.65655L399.317 9.49687L400.19 9.13139ZM400.701 10.3524L399.828 10.7178L400.222 11.6596L401.132 11.1953L400.701 10.3524ZM410.015 14.2424L409.772 15.1572L410.961 15.4727V14.2424H410.015ZM410.015 20.1768H410.961V17.2234L409.244 19.6267L410.015 20.1768ZM410.015 22.5903H409.068V23.5368H410.015V22.5903ZM410.043 15.5201H410.989V14.7853L410.278 14.6032L410.043 15.5201ZM412.324 22.5903V13.5609H410.431V22.5903H412.324ZM412.324 13.5609C412.324 11.4846 411.673 9.78521 410.385 8.6154C409.111 7.45858 407.343 6.93556 405.33 6.93556V8.82852C407.036 8.82852 408.291 9.27091 409.112 10.0165C409.918 10.7491 410.431 11.8892 410.431 13.5609H412.324ZM405.33 6.93556C403.158 6.93556 401.456 7.50016 399.792 8.27293L400.589 9.98986C402.104 9.28612 403.526 8.82852 405.33 8.82852V6.93556ZM399.317 9.49687L399.828 10.7178L401.574 9.98688L401.063 8.76592L399.317 9.49687ZM401.132 11.1953C402.373 10.5616 403.673 10.1347 405.244 10.1347V8.2417C403.295 8.2417 401.699 8.78016 400.271 9.50941L401.132 11.1953ZM405.244 10.1347C406.587 10.1347 407.522 10.4736 408.113 11.0081C408.688 11.5287 409.068 12.3536 409.068 13.6177H410.961C410.961 11.9572 410.447 10.5673 409.383 9.60436C408.333 8.65522 406.883 8.2417 405.244 8.2417V10.1347ZM409.068 13.6177V14.2424H410.961V13.6177H409.068ZM410.257 13.3276C408.802 12.9414 407.328 12.6712 405.216 12.6712V14.5642C407.136 14.5642 408.445 14.8051 409.772 15.1572L410.257 13.3276ZM405.216 12.6712C403.214 12.6712 401.416 13.1242 400.092 14.0776C398.733 15.0552 397.938 16.5177 397.938 18.3312H399.831C399.831 17.1348 400.327 16.2406 401.197 15.614C402.102 14.963 403.47 14.5642 405.216 14.5642V12.6712ZM397.938 18.3312V18.388H399.831V18.3312H397.938ZM397.938 18.388C397.938 20.2402 398.845 21.6465 400.118 22.5579C401.367 23.4513 402.967 23.8775 404.478 23.8775V21.9846C403.291 21.9846 402.094 21.6442 401.22 21.0185C400.371 20.4108 399.831 19.5455 399.831 18.388H397.938ZM404.478 23.8775C407.588 23.8775 409.645 22.323 410.785 20.7269L409.244 19.6267C408.397 20.8132 406.876 21.9846 404.478 21.9846V23.8775ZM409.068 20.1768V22.5903H410.961V20.1768H409.068ZM410.015 23.5368H411.378V21.6439H410.015V23.5368ZM409.097 17.167C409.097 19.0831 407.221 20.6784 404.563 20.6784V22.5714C407.811 22.5714 410.989 20.5323 410.989 17.167H409.097ZM404.563 20.6784C403.617 20.6784 402.773 20.4158 402.191 19.9888C401.631 19.5773 401.307 19.0168 401.307 18.3028H399.414C399.414 19.6899 400.084 20.7905 401.071 21.5148C402.037 22.2236 403.294 22.5714 404.563 22.5714V20.6784ZM401.307 18.3028V18.246H399.414V18.3028H401.307ZM401.307 18.246C401.307 17.5371 401.591 16.9771 402.155 16.5641C402.75 16.1283 403.723 15.8135 405.131 15.8135V13.9206C403.472 13.9206 402.06 14.2873 401.036 15.037C399.982 15.8094 399.414 16.9388 399.414 18.246H401.307ZM405.131 15.8135C407.095 15.8135 408.629 16.1354 409.808 16.4371L410.278 14.6032C409.015 14.2802 407.312 13.9206 405.131 13.9206V15.8135ZM409.097 15.5201V17.167H410.989V15.5201H409.097ZM418.142 4.33274V5.27922H419.088V4.33274H418.142ZM418.142 2.43032H419.088V1.48384H418.142V2.43032ZM416.41 2.43032V1.48384H415.463V2.43032H416.41ZM416.41 4.33274H415.463V5.27922H416.41V4.33274ZM417.971 22.5903V23.5368H418.918V22.5903H417.971ZM417.971 8.1092H418.918V7.16272H417.971V8.1092ZM416.58 8.1092V7.16272H415.633V8.1092H416.58ZM416.58 22.5903H415.633V23.5368H416.58V22.5903ZM419.088 4.33274V2.43032H417.195V4.33274H419.088ZM418.142 1.48384H416.41V3.3768H418.142V1.48384ZM415.463 2.43032V4.33274H417.356V2.43032H415.463ZM416.41 5.27922H418.142V3.38626H416.41V5.27922ZM418.918 22.5903V8.1092H417.025V22.5903H418.918ZM417.971 7.16272H416.58V9.05567H417.971V7.16272ZM415.633 8.1092V22.5903H417.526V8.1092H415.633ZM416.58 23.5368H417.971V21.6439H416.58V23.5368ZM436.911 22.5903V23.5368H437.857V22.5903H436.911ZM436.911 1.86243H437.857V0.915953H436.911V1.86243ZM435.52 1.86243V0.915953H434.573V1.86243H435.52ZM435.52 11.2326L434.728 11.7519L436.466 14.3999V11.2326H435.52ZM435.52 19.3534H436.466V16.1879L434.728 18.8338L435.52 19.3534ZM435.52 22.5903H434.573V23.5368H435.52V22.5903ZM437.857 22.5903V1.86243H435.964V22.5903H437.857ZM436.911 0.915953H435.52V2.80891H436.911V0.915953ZM434.573 1.86243V11.2326H436.466V1.86243H434.573ZM436.311 10.7133C435.014 8.73632 432.882 6.82198 429.557 6.82198V8.71494C432.025 8.71494 433.641 10.0944 434.728 11.7519L436.311 10.7133ZM429.557 6.82198C425.554 6.82198 421.569 10.1016 421.569 15.3498H423.461C423.461 11.171 426.575 8.71494 429.557 8.71494V6.82198ZM421.569 15.3498V15.4066H423.461V15.3498H421.569ZM421.569 15.4066C421.569 20.6644 425.564 23.8775 429.557 23.8775V21.9846C426.565 21.9846 423.461 19.5756 423.461 15.4066H421.569ZM429.557 23.8775C432.87 23.8775 434.97 21.9148 436.311 19.8729L434.728 18.8338C433.571 20.5968 431.979 21.9846 429.557 21.9846V23.8775ZM434.573 19.3534V22.5903H436.466V19.3534H434.573ZM435.52 23.5368H436.911V21.6439H435.52V23.5368ZM434.658 15.3782C434.658 18.5409 432.192 20.65 429.699 20.65V22.543C433.226 22.543 436.551 19.5979 436.551 15.3782H434.658ZM429.699 20.65C427.222 20.65 424.966 18.671 424.966 15.3498H423.073C423.073 19.6382 426.1 22.543 429.699 22.543V20.65ZM424.966 15.3498V15.293H423.073V15.3498H424.966ZM424.966 15.293C424.966 13.558 425.526 12.2578 426.358 11.397C427.191 10.535 428.358 10.0495 429.699 10.0495V8.15652C427.887 8.15652 426.215 8.82099 424.997 10.0814C423.777 11.3431 423.073 13.1379 423.073 15.293H424.966ZM429.699 10.0495C432.195 10.0495 434.658 12.1331 434.658 15.3214H436.551C436.551 11.0703 433.223 8.15652 429.699 8.15652V10.0495ZM434.658 15.3214V15.3782H436.551V15.3214H434.658ZM442.679 15.9177V14.9712H441.664L441.735 15.9846L442.679 15.9177ZM454.69 15.9177V16.8641H455.526L455.629 16.035L454.69 15.9177ZM454.293 20.2052L454.986 20.8492L455.647 20.1378L454.919 19.4955L454.293 20.2052ZM453.327 19.3534L453.954 18.6437L453.263 18.0347L452.635 18.7076L453.327 19.3534ZM442.679 14.6683L441.736 14.5932L441.655 15.6148H442.679V14.6683ZM453.214 14.6683V15.6148H454.227L454.158 14.6041L453.214 14.6683ZM442.679 16.8641H454.69V14.9712H442.679V16.8641ZM455.629 16.035C455.665 15.7528 455.665 15.6239 455.665 15.4066H453.772C453.772 15.5867 453.773 15.6282 453.751 15.8003L455.629 16.035ZM455.665 15.4066V15.3498H453.772V15.4066H455.665ZM455.665 15.3498C455.665 13.0212 454.963 10.8972 453.641 9.3389C452.307 7.76684 450.382 6.82198 448.074 6.82198V8.71494C449.828 8.71494 451.224 9.41696 452.198 10.5637C453.182 11.7241 453.772 13.3908 453.772 15.3498H455.665ZM448.074 6.82198C443.543 6.82198 440.256 10.6915 440.256 15.3214H442.149C442.149 11.5465 444.769 8.71494 448.074 8.71494V6.82198ZM440.256 15.3214V15.3782H442.149V15.3214H440.256ZM440.256 15.3782C440.256 20.3986 443.957 23.8775 448.302 23.8775V21.9846C445.036 21.9846 442.149 19.3871 442.149 15.3782H440.256ZM448.302 23.8775C451.415 23.8775 453.383 22.5761 454.986 20.8492L453.599 19.5612C452.25 21.0145 450.753 21.9846 448.302 21.9846V23.8775ZM454.919 19.4955L453.954 18.6437L452.701 20.0631L453.667 20.9149L454.919 19.4955ZM452.635 18.7076C451.567 19.8528 450.268 20.6784 448.358 20.6784V22.5714C450.935 22.5714 452.703 21.4094 454.019 19.9992L452.635 18.7076ZM448.358 20.6784C446.028 20.6784 443.845 18.9736 443.624 15.8507L441.735 15.9846C442.025 20.0739 445.01 22.5714 448.358 22.5714V20.6784ZM443.623 14.7434C443.849 11.9013 445.76 9.99269 448.018 9.99269V8.09973C444.54 8.09973 442.021 11.0181 441.736 14.5932L443.623 14.7434ZM448.018 9.99269C449.391 9.99269 450.375 10.5367 451.057 11.3633C451.761 12.2154 452.18 13.4168 452.269 14.7325L454.158 14.6041C454.049 12.9952 453.531 11.3855 452.517 10.1578C451.482 8.90448 449.967 8.09973 448.018 8.09973V9.99269ZM453.214 13.7218H442.679V15.6148H453.214V13.7218ZM471.187 22.5903V23.5368H472.134V22.5903H471.187ZM460.17 10.8067H459.224V14.3967L460.993 11.2733L460.17 10.8067ZM460.17 8.1092H461.116V7.16272H460.17V8.1092ZM458.779 8.1092V7.16272H457.832V8.1092H458.779ZM458.779 22.5903H457.832V23.5368H458.779V22.5903ZM460.17 22.5903V23.5368H461.116V22.5903H460.17ZM469.796 22.5903H468.849V23.5368H469.796V22.5903ZM472.134 22.5903V13.7313H470.241V22.5903H472.134ZM472.134 13.7313C472.134 11.8073 471.54 10.0694 470.355 8.80396C469.163 7.53013 467.452 6.82198 465.395 6.82198V8.71494C467.001 8.71494 468.186 9.25615 468.973 10.0977C469.769 10.9477 470.241 12.1911 470.241 13.7313H472.134ZM465.395 6.82198C462.355 6.82198 460.449 8.39371 459.347 10.34L460.993 11.2733C461.821 9.81229 463.152 8.71494 465.395 8.71494V6.82198ZM461.116 10.8067V8.1092H459.224V10.8067H461.116ZM460.17 7.16272H458.779V9.05567H460.17V7.16272ZM457.832 8.1092V22.5903H459.725V8.1092H457.832ZM458.779 23.5368H460.17V21.6439H458.779V23.5368ZM461.116 22.5903V14.214H459.224V22.5903H461.116ZM461.116 14.214C461.116 11.7129 462.893 9.99269 465.196 9.99269V8.09973C461.82 8.09973 459.224 10.6955 459.224 14.214H461.116ZM465.196 9.99269C466.436 9.99269 467.315 10.401 467.892 11.0353C468.48 11.6815 468.849 12.6678 468.849 13.9868H470.742C470.742 12.3244 470.274 10.8405 469.293 9.76168C468.301 8.67101 466.88 8.09973 465.196 8.09973V9.99269ZM468.849 13.9868V22.5903H470.742V13.9868H468.849ZM469.796 23.5368H471.187V21.6439H469.796V23.5368Z" fill="white"/>
</svg>
