<svg width="274" height="24" viewBox="0 0 274 24" fill="none" xmlns="http://www.w3.org/2000/svg">
<path d="M17.4103 21.7454L11.1135 13.595C14.33 13.1589 16.7015 11.3326 16.7015 8.14332V8.0888C16.7015 4.89954 14.0029 2.66433 9.88688 2.66433H1.87284V21.7454H3.29029V13.8404H9.53251L15.6112 21.7454H17.4103ZM15.2841 8.19783C15.2841 10.951 12.9126 12.5592 9.72332 12.5592H3.29029V3.97275H9.8051C13.2669 3.97275 15.2841 5.58101 15.2841 8.14332V8.19783ZM21.4688 15.3396H32.9992C33.0264 15.1215 33.0264 15.0397 33.0264 14.8489V14.7944C33.0264 10.6784 30.5459 7.51637 26.6479 7.51637C22.8862 7.51637 20.0514 10.7329 20.0514 14.7672V14.8217C20.0514 19.1558 23.2134 22.0725 26.866 22.0725C29.5373 22.0725 31.2001 20.9821 32.6176 19.4556L31.6908 18.6379C30.5459 19.8645 29.074 20.8186 26.9205 20.8186C24.1947 20.8186 21.7141 18.8014 21.4688 15.3396ZM21.4688 14.1402C21.7141 11.06 23.8403 8.743 26.5934 8.743C29.7827 8.743 31.3909 11.3326 31.5817 14.1402H21.4688ZM48.727 19.3193L47.8002 18.5016C46.6281 19.81 45.1016 20.8186 43.139 20.8186C39.9497 20.8186 37.4147 18.1472 37.4147 14.7944V14.7399C37.4147 11.4143 39.8679 8.77026 43.0299 8.77026C45.1016 8.77026 46.4645 9.83335 47.6639 11.06L48.6179 10.0787C47.3095 8.71575 45.674 7.51637 43.0572 7.51637C39.0774 7.51637 35.97 10.8964 35.97 14.7944V14.8489C35.97 18.7469 39.0502 22.0725 43.0572 22.0725C45.6195 22.0725 47.3095 20.9276 48.727 19.3193ZM65.4267 14.7944V14.7399C65.4267 10.8419 62.4283 7.51637 58.3122 7.51637C54.1689 7.51637 51.1432 10.8964 51.1432 14.7944V14.8489C51.1432 18.7469 54.1416 22.0725 58.2577 22.0725C62.401 22.0725 65.4267 18.6924 65.4267 14.7944ZM63.982 14.8489C63.982 18.12 61.6105 20.8186 58.3122 20.8186C55.0957 20.8186 52.5879 18.1472 52.5879 14.7944V14.7399C52.5879 11.4689 54.9594 8.77026 58.2577 8.77026C61.4742 8.77026 63.982 11.4416 63.982 14.7944V14.8489ZM90.5496 21.7454V13.3225C90.5496 9.83335 88.5052 7.51637 85.2069 7.51637C82.5901 7.51637 81.0908 8.96107 80.1913 10.5148C79.4281 8.90656 77.9288 7.51637 75.5028 7.51637C73.0223 7.51637 71.7684 8.8793 70.8689 10.324V7.84347H69.5332V21.7454H70.8689V13.7313C70.8689 10.9237 72.8315 8.743 75.312 8.743C77.7925 8.743 79.3735 10.5148 79.3735 13.4042V21.7454H80.7092V13.6496C80.7092 10.5421 82.7536 8.743 85.0979 8.743C87.6602 8.743 89.2139 10.4876 89.2139 13.486V21.7454H90.5496ZM116.477 21.7454V13.3225C116.477 9.83335 114.433 7.51637 111.135 7.51637C108.518 7.51637 107.018 8.96107 106.119 10.5148C105.356 8.90656 103.856 7.51637 101.43 7.51637C98.9499 7.51637 97.696 8.8793 96.7965 10.324V7.84347H95.4608V21.7454H96.7965V13.7313C96.7965 10.9237 98.7591 8.743 101.24 8.743C103.72 8.743 105.301 10.5148 105.301 13.4042V21.7454H106.637V13.6496C106.637 10.5421 108.681 8.743 111.025 8.743C113.588 8.743 115.142 10.4876 115.142 13.486V21.7454H116.477ZM121.852 15.3396H133.382C133.409 15.1215 133.409 15.0397 133.409 14.8489V14.7944C133.409 10.6784 130.929 7.51637 127.031 7.51637C123.269 7.51637 120.434 10.7329 120.434 14.7672V14.8217C120.434 19.1558 123.596 22.0725 127.249 22.0725C129.92 22.0725 131.583 20.9821 133.001 19.4556L132.074 18.6379C130.929 19.8645 129.457 20.8186 127.304 20.8186C124.578 20.8186 122.097 18.8014 121.852 15.3396ZM121.852 14.1402C122.097 11.06 124.223 8.743 126.976 8.743C130.166 8.743 131.774 11.3326 131.965 14.1402H121.852ZM149.219 21.7454V13.2407C149.219 9.91513 147.175 7.51637 143.658 7.51637C141.123 7.51637 139.569 8.79752 138.643 10.433V7.84347H137.307V21.7454H138.643V13.7041C138.643 10.8147 140.742 8.743 143.467 8.743C146.275 8.743 147.883 10.6238 147.883 13.486V21.7454H149.219ZM166.945 21.7454V1.84658H165.609V10.8419C164.464 9.09737 162.665 7.51637 159.885 7.51637C156.532 7.51637 153.125 10.2695 153.125 14.7944V14.8489C153.125 19.3739 156.532 22.0725 159.885 22.0725C162.638 22.0725 164.41 20.4642 165.609 18.6379V21.7454H166.945ZM165.691 14.8217C165.691 18.3653 162.911 20.7913 160.021 20.7913C157.104 20.7913 154.569 18.4471 154.569 14.7944V14.7399C154.569 11.0055 156.995 8.79752 160.021 8.79752C162.911 8.79752 165.691 11.1963 165.691 14.7672V14.8217ZM190.31 21.7454V2.66433H188.974L181.314 13.9494L173.655 2.66433H172.319V21.7454H173.682V5.17213L181.233 16.1573H181.342L188.892 5.17213V21.7454H190.31ZM196.147 15.3396H207.678C207.705 15.1215 207.705 15.0397 207.705 14.8489V14.7944C207.705 10.6784 205.225 7.51637 201.327 7.51637C197.565 7.51637 194.73 10.7329 194.73 14.7672V14.8217C194.73 19.1558 197.892 22.0725 201.545 22.0725C204.216 22.0725 205.879 20.9821 207.296 19.4556L206.369 18.6379C205.225 19.8645 203.753 20.8186 201.599 20.8186C198.873 20.8186 196.393 18.8014 196.147 15.3396ZM196.147 14.1402C196.393 11.06 198.519 8.743 201.272 8.743C204.461 8.743 206.07 11.3326 206.26 14.1402H196.147ZM213.511 21.7454V2.66433H212.093V21.7454H213.511ZM230.995 21.7454V13.2407C230.995 9.91513 228.95 7.51637 225.434 7.51637C222.899 7.51637 221.345 8.79752 220.419 10.433V7.84347H219.083V21.7454H220.419V13.7041C220.419 10.8147 222.517 8.743 225.243 8.743C228.051 8.743 229.659 10.6238 229.659 13.486V21.7454H230.995ZM248.721 21.7454V1.84658H247.385V10.8419C246.24 9.09737 244.441 7.51637 241.661 7.51637C238.308 7.51637 234.901 10.2695 234.901 14.7944V14.8489C234.901 19.3739 238.308 22.0725 241.661 22.0725C244.414 22.0725 246.186 20.4642 247.385 18.6379V21.7454H248.721ZM247.467 14.8217C247.467 18.3653 244.686 20.7913 241.797 20.7913C238.88 20.7913 236.345 18.4471 236.345 14.7944V14.7399C236.345 11.0055 238.771 8.79752 241.797 8.79752C244.686 8.79752 247.467 11.1963 247.467 14.7672V14.8217ZM255.485 4.21808V2.39175H253.822V4.21808H255.485ZM255.321 21.7454V7.84347H253.986V21.7454H255.321ZM261.046 15.3396H272.577C272.604 15.1215 272.604 15.0397 272.604 14.8489V14.7944C272.604 10.6784 270.124 7.51637 266.226 7.51637C262.464 7.51637 259.629 10.7329 259.629 14.7672V14.8217C259.629 19.1558 262.791 22.0725 266.444 22.0725C269.115 22.0725 270.778 20.9821 272.195 19.4556L271.268 18.6379C270.124 19.8645 268.652 20.8186 266.498 20.8186C263.772 20.8186 261.292 18.8014 261.046 15.3396ZM261.046 14.1402C261.292 11.06 263.418 8.743 266.171 8.743C269.36 8.743 270.969 11.3326 271.159 14.1402H261.046Z" fill="black"/>
<path d="M17.4103 21.7454V22.6918H19.3375L18.1592 21.1667L17.4103 21.7454ZM11.1135 13.595L10.9863 12.6571L9.36294 12.8773L10.3645 14.1737L11.1135 13.595ZM1.87284 2.66433V1.71786H0.926364V2.66433H1.87284ZM1.87284 21.7454H0.926364V22.6918H1.87284V21.7454ZM3.29029 21.7454V22.6918H4.23677V21.7454H3.29029ZM3.29029 13.8404V12.8939H2.34381V13.8404H3.29029ZM9.53251 13.8404L10.2828 13.2634L9.99866 12.8939H9.53251V13.8404ZM15.6112 21.7454L14.8609 22.3223L15.145 22.6918H15.6112V21.7454ZM3.29029 12.5592H2.34381V13.5057H3.29029V12.5592ZM3.29029 3.97275V3.02627H2.34381V3.97275H3.29029ZM18.1592 21.1667L11.8625 13.0164L10.3645 14.1737L16.6613 22.324L18.1592 21.1667ZM11.2407 14.5329C12.9821 14.2968 14.5776 13.6743 15.7524 12.6001C16.9482 11.5067 17.648 9.99718 17.648 8.14332H15.755C15.755 9.4787 15.2691 10.477 14.475 11.2031C13.6599 11.9484 12.4614 12.4571 10.9863 12.6571L11.2407 14.5329ZM17.648 8.14332V8.0888H15.755V8.14332H17.648ZM17.648 8.0888C17.648 6.20371 16.8405 4.578 15.4313 3.44338C14.0377 2.32133 12.1092 1.71786 9.88688 1.71786V3.61081C11.7806 3.61081 13.2594 4.12494 14.2441 4.91781C15.2133 5.69811 15.755 6.78463 15.755 8.0888H17.648ZM9.88688 1.71786H1.87284V3.61081H9.88688V1.71786ZM0.926364 2.66433V21.7454H2.81932V2.66433H0.926364ZM1.87284 22.6918H3.29029V20.7989H1.87284V22.6918ZM4.23677 21.7454V13.8404H2.34381V21.7454H4.23677ZM3.29029 14.7868H9.53251V12.8939H3.29029V14.7868ZM8.78221 14.4173L14.8609 22.3223L16.3615 21.1684L10.2828 13.2634L8.78221 14.4173ZM15.6112 22.6918H17.4103V20.7989H15.6112V22.6918ZM14.3376 8.19783C14.3376 9.26923 13.8908 10.0826 13.1305 10.6547C12.3443 11.2464 11.171 11.6127 9.72332 11.6127V13.5057C11.4649 13.5057 13.072 13.0679 14.2688 12.1672C15.4916 11.2469 16.2306 9.87956 16.2306 8.19783H14.3376ZM9.72332 11.6127H3.29029V13.5057H9.72332V11.6127ZM4.23677 12.5592V3.97275H2.34381V12.5592H4.23677ZM3.29029 4.91923H9.8051V3.02627H3.29029V4.91923ZM9.8051 4.91923C11.4034 4.91923 12.5453 5.29199 13.2649 5.84676C13.9553 6.37899 14.3376 7.13729 14.3376 8.14332H16.2306C16.2306 6.58703 15.6043 5.26005 14.4206 4.34757C13.2662 3.45763 11.6686 3.02627 9.8051 3.02627V4.91923ZM14.3376 8.14332V8.19783H16.2306V8.14332H14.3376ZM21.4688 15.3396V14.3931H20.4529L20.5247 15.4065L21.4688 15.3396ZM32.9992 15.3396V16.2861H33.8347L33.9384 15.457L32.9992 15.3396ZM32.6176 19.4556L33.3111 20.0997L33.9717 19.3883L33.2438 18.7459L32.6176 19.4556ZM31.6908 18.6379L32.317 17.9282L31.6268 17.3192L30.9988 17.9921L31.6908 18.6379ZM21.4688 14.1402L20.5253 14.0651L20.4439 15.0867H21.4688V14.1402ZM31.5817 14.1402V15.0867H32.5947L32.526 14.076L31.5817 14.1402ZM21.4688 16.2861H32.9992V14.3931H21.4688V16.2861ZM33.9384 15.457C33.9725 15.1838 33.9729 15.0584 33.9729 14.8489H32.08C32.08 15.0211 32.0804 15.0592 32.06 15.2222L33.9384 15.457ZM33.9729 14.8489V14.7944H32.08V14.8489H33.9729ZM33.9729 14.7944C33.9729 12.5516 33.2968 10.5034 32.0206 8.99949C30.7328 7.4818 28.8739 6.56989 26.6479 6.56989V8.46285C28.32 8.46285 29.6504 9.13193 30.5773 10.2243C31.5158 11.3303 32.08 12.9212 32.08 14.7944H33.9729ZM26.6479 6.56989C22.2732 6.56989 19.1049 10.3053 19.1049 14.7672H20.9978C20.9978 11.1604 23.4993 8.46285 26.6479 8.46285V6.56989ZM19.1049 14.7672V14.8217H20.9978V14.7672H19.1049ZM19.1049 14.8217C19.1049 19.6615 22.6738 23.0189 26.866 23.0189V21.126C23.7529 21.126 20.9978 18.6501 20.9978 14.8217H19.1049ZM26.866 23.0189C29.8684 23.0189 31.7667 21.763 33.3111 20.0997L31.924 18.8116C30.6336 20.2013 29.2063 21.126 26.866 21.126V23.0189ZM33.2438 18.7459L32.317 17.9282L31.0646 19.3476L31.9914 20.1653L33.2438 18.7459ZM30.9988 17.9921C29.9776 19.0862 28.7402 19.8721 26.9205 19.8721V21.765C29.4077 21.765 31.1142 20.6428 32.3827 19.2837L30.9988 17.9921ZM26.9205 19.8721C24.7036 19.8721 22.624 18.2513 22.4129 15.2727L20.5247 15.4065C20.8043 19.3516 23.6857 21.765 26.9205 21.765V19.8721ZM22.4123 14.2154C22.6284 11.5016 24.4506 9.68948 26.5934 9.68948V7.79653C23.23 7.79653 20.7998 10.6184 20.5253 14.0651L22.4123 14.2154ZM26.5934 9.68948C27.9001 9.68948 28.8339 10.2065 29.4822 10.9915C30.1517 11.802 30.552 12.9472 30.6374 14.2044L32.526 14.076C32.4207 12.5256 31.9214 10.9722 30.9418 9.78601C29.941 8.5743 28.476 7.79653 26.5934 7.79653V9.68948ZM31.5817 13.1937H21.4688V15.0867H31.5817V13.1937ZM48.727 19.3193L49.437 19.9452L50.0625 19.2355L49.3532 18.6096L48.727 19.3193ZM47.8002 18.5016L48.4264 17.7919L47.722 17.1704L47.0952 17.8701L47.8002 18.5016ZM47.6639 11.06L46.9872 11.7217L47.6658 12.4158L48.3425 11.7198L47.6639 11.06ZM48.6179 10.0787L49.2966 10.7384L49.934 10.0828L49.3007 9.42321L48.6179 10.0787ZM49.3532 18.6096L48.4264 17.7919L47.174 19.2113L48.1008 20.0291L49.3532 18.6096ZM47.0952 17.8701C46.0299 19.0593 44.7399 19.8721 43.139 19.8721V21.765C45.4632 21.765 47.2263 20.5607 48.5052 19.1331L47.0952 17.8701ZM43.139 19.8721C40.5177 19.8721 38.3611 17.671 38.3611 14.7944H36.4682C36.4682 18.6235 39.3817 21.765 43.139 21.765V19.8721ZM38.3611 14.7944V14.7399H36.4682V14.7944H38.3611ZM38.3611 14.7399C38.3611 11.8778 40.448 9.71674 43.0299 9.71674V7.82378C39.2879 7.82378 36.4682 10.9509 36.4682 14.7399H38.3611ZM43.0299 9.71674C44.7148 9.71674 45.8452 10.5538 46.9872 11.7217L48.3406 10.3983C47.0838 9.11288 45.4884 7.82378 43.0299 7.82378V9.71674ZM48.3425 11.7198L49.2966 10.7384L47.9393 9.41891L46.9853 10.4002L48.3425 11.7198ZM49.3007 9.42321C47.8955 7.95942 46.0297 6.56989 43.0572 6.56989V8.46285C45.3183 8.46285 46.7236 9.47207 47.9352 10.7341L49.3007 9.42321ZM43.0572 6.56989C38.5155 6.56989 35.0235 10.4138 35.0235 14.7944H36.9164C36.9164 11.3791 39.6394 8.46285 43.0572 8.46285V6.56989ZM35.0235 14.7944V14.8489H36.9164V14.7944H35.0235ZM35.0235 14.8489C35.0235 19.2365 38.4949 23.0189 43.0572 23.0189V21.126C39.6055 21.126 36.9164 18.2574 36.9164 14.8489H35.0235ZM43.0572 23.0189C45.9722 23.0189 47.9015 21.6875 49.437 19.9452L48.0169 18.6935C46.7176 20.1677 45.2668 21.126 43.0572 21.126V23.0189ZM66.3732 14.7944V14.7399H64.4802V14.7944H66.3732ZM66.3732 14.7399C66.3732 10.3573 62.9883 6.56989 58.3122 6.56989V8.46285C61.8683 8.46285 64.4802 11.3266 64.4802 14.7399H66.3732ZM58.3122 6.56989C53.607 6.56989 50.1967 10.4138 50.1967 14.7944H52.0897C52.0897 11.3791 54.7308 8.46285 58.3122 8.46285V6.56989ZM50.1967 14.7944V14.8489H52.0897V14.7944H50.1967ZM50.1967 14.8489C50.1967 19.2316 53.5817 23.0189 58.2577 23.0189V21.126C54.7016 21.126 52.0897 18.2622 52.0897 14.8489H50.1967ZM58.2577 23.0189C62.9629 23.0189 66.3732 19.175 66.3732 14.7944H64.4802C64.4802 18.2098 61.8391 21.126 58.2577 21.126V23.0189ZM63.0355 14.8489C63.0355 17.6654 61.0221 19.8721 58.3122 19.8721V21.765C62.1989 21.765 64.9285 18.5745 64.9285 14.8489H63.0355ZM58.3122 19.8721C55.6666 19.8721 53.5344 17.674 53.5344 14.7944H51.6414C51.6414 18.6204 54.5248 21.765 58.3122 21.765V19.8721ZM53.5344 14.7944V14.7399H51.6414V14.7944H53.5344ZM53.5344 14.7399C53.5344 11.9234 55.5478 9.71674 58.2577 9.71674V7.82378C54.371 7.82378 51.6414 11.0143 51.6414 14.7399H53.5344ZM58.2577 9.71674C60.9033 9.71674 63.0355 11.9148 63.0355 14.7944H64.9285C64.9285 10.9684 62.0451 7.82378 58.2577 7.82378V9.71674ZM63.0355 14.7944V14.8489H64.9285V14.7944H63.0355ZM90.5496 21.7454V22.6918H91.4961V21.7454H90.5496ZM80.1913 10.5148L79.3362 10.9206L80.1082 12.5473L81.0104 10.989L80.1913 10.5148ZM70.8689 10.324H69.9224V13.6348L71.6723 10.8243L70.8689 10.324ZM70.8689 7.84347H71.8153V6.89699H70.8689V7.84347ZM69.5332 7.84347V6.89699H68.5867V7.84347H69.5332ZM69.5332 21.7454H68.5867V22.6918H69.5332V21.7454ZM70.8689 21.7454V22.6918H71.8153V21.7454H70.8689ZM79.3735 21.7454H78.4271V22.6918H79.3735V21.7454ZM80.7092 21.7454V22.6918H81.6557V21.7454H80.7092ZM89.2139 21.7454H88.2674V22.6918H89.2139V21.7454ZM91.4961 21.7454V13.3225H89.6031V21.7454H91.4961ZM91.4961 13.3225C91.4961 11.3964 90.9301 9.70004 89.8153 8.47421C88.6914 7.23831 87.0895 6.56989 85.2069 6.56989V8.46285C86.6226 8.46285 87.692 8.95292 88.4149 9.74778C89.1469 10.5527 89.6031 11.7594 89.6031 13.3225H91.4961ZM85.2069 6.56989C82.1496 6.56989 80.3823 8.29595 79.3722 10.0406L81.0104 10.989C81.7994 9.6262 83.0305 8.46285 85.2069 8.46285V6.56989ZM81.0464 10.109C80.1618 8.24509 78.3702 6.56989 75.5028 6.56989V8.46285C77.4875 8.46285 78.6943 9.56803 79.3362 10.9206L81.0464 10.109ZM75.5028 6.56989C74.0731 6.56989 72.947 6.96777 72.0459 7.60607C71.1624 8.2319 70.5447 9.05398 70.0654 9.82373L71.6723 10.8243C72.0926 10.1493 72.5516 9.56758 73.14 9.15077C73.7109 8.74643 74.4521 8.46285 75.5028 8.46285V6.56989ZM71.8153 10.324V7.84347H69.9224V10.324H71.8153ZM70.8689 6.89699H69.5332V8.78995H70.8689V6.89699ZM68.5867 7.84347V21.7454H70.4797V7.84347H68.5867ZM69.5332 22.6918H70.8689V20.7989H69.5332V22.6918ZM71.8153 21.7454V13.7313H69.9224V21.7454H71.8153ZM71.8153 13.7313C71.8153 11.3434 73.4516 9.68948 75.312 9.68948V7.79653C72.2114 7.79653 69.9224 10.504 69.9224 13.7313H71.8153ZM75.312 9.68948C76.3131 9.68948 77.0567 10.0388 77.5614 10.6142C78.0783 11.2034 78.4271 12.1259 78.4271 13.4042H80.32C80.32 11.7931 79.8783 10.385 78.9845 9.36597C78.0786 8.33312 76.7914 7.79653 75.312 7.79653V9.68948ZM78.4271 13.4042V21.7454H80.32V13.4042H78.4271ZM79.3735 22.6918H80.7092V20.7989H79.3735V22.6918ZM81.6557 21.7454V13.6496H79.7627V21.7454H81.6557ZM81.6557 13.6496C81.6557 11.0274 83.313 9.68948 85.0979 9.68948V7.79653C82.1943 7.79653 79.7627 10.0567 79.7627 13.6496H81.6557ZM85.0979 9.68948C86.1521 9.68948 86.9034 10.04 87.4041 10.6129C87.9193 11.2024 88.2674 12.1412 88.2674 13.486H90.1604C90.1604 11.8324 89.7317 10.3996 88.8294 9.36725C87.9126 8.31824 86.6059 7.79653 85.0979 7.79653V9.68948ZM88.2674 13.486V21.7454H90.1604V13.486H88.2674ZM89.2139 22.6918H90.5496V20.7989H89.2139V22.6918ZM116.477 21.7454V22.6918H117.424V21.7454H116.477ZM106.119 10.5148L105.264 10.9206L106.036 12.5473L106.938 10.989L106.119 10.5148ZM96.7965 10.324H95.85V13.6348L97.5999 10.8243L96.7965 10.324ZM96.7965 7.84347H97.743V6.89699H96.7965V7.84347ZM95.4608 7.84347V6.89699H94.5143V7.84347H95.4608ZM95.4608 21.7454H94.5143V22.6918H95.4608V21.7454ZM96.7965 21.7454V22.6918H97.743V21.7454H96.7965ZM105.301 21.7454H104.355V22.6918H105.301V21.7454ZM106.637 21.7454V22.6918H107.583V21.7454H106.637ZM115.142 21.7454H114.195V22.6918H115.142V21.7454ZM117.424 21.7454V13.3225H115.531V21.7454H117.424ZM117.424 13.3225C117.424 11.3964 116.858 9.70004 115.743 8.47421C114.619 7.23831 113.017 6.56989 111.135 6.56989V8.46285C112.55 8.46285 113.62 8.95292 114.342 9.74778C115.074 10.5527 115.531 11.7594 115.531 13.3225H117.424ZM111.135 6.56989C108.077 6.56989 106.31 8.29595 105.3 10.0406L106.938 10.989C107.727 9.6262 108.958 8.46285 111.135 8.46285V6.56989ZM106.974 10.109C106.089 8.24509 104.298 6.56989 101.43 6.56989V8.46285C103.415 8.46285 104.622 9.56803 105.264 10.9206L106.974 10.109ZM101.43 6.56989C100.001 6.56989 98.8746 6.96777 97.9735 7.60607C97.09 8.2319 96.4723 9.05398 95.993 9.82373L97.5999 10.8243C98.0202 10.1493 98.4792 9.56758 99.0677 9.15077C99.6385 8.74643 100.38 8.46285 101.43 8.46285V6.56989ZM97.743 10.324V7.84347H95.85V10.324H97.743ZM96.7965 6.89699H95.4608V8.78995H96.7965V6.89699ZM94.5143 7.84347V21.7454H96.4073V7.84347H94.5143ZM95.4608 22.6918H96.7965V20.7989H95.4608V22.6918ZM97.743 21.7454V13.7313H95.85V21.7454H97.743ZM97.743 13.7313C97.743 11.3434 99.3792 9.68948 101.24 9.68948V7.79653C98.139 7.79653 95.85 10.504 95.85 13.7313H97.743ZM101.24 9.68948C102.241 9.68948 102.984 10.0388 103.489 10.6142C104.006 11.2034 104.355 12.1259 104.355 13.4042H106.248C106.248 11.7931 105.806 10.385 104.912 9.36597C104.006 8.33312 102.719 7.79653 101.24 7.79653V9.68948ZM104.355 13.4042V21.7454H106.248V13.4042H104.355ZM105.301 22.6918H106.637V20.7989H105.301V22.6918ZM107.583 21.7454V13.6496H105.69V21.7454H107.583ZM107.583 13.6496C107.583 11.0274 109.241 9.68948 111.025 9.68948V7.79653C108.122 7.79653 105.69 10.0567 105.69 13.6496H107.583ZM111.025 9.68948C112.08 9.68948 112.831 10.04 113.332 10.6129C113.847 11.2024 114.195 12.1412 114.195 13.486H116.088C116.088 11.8324 115.659 10.3996 114.757 9.36725C113.84 8.31824 112.534 7.79653 111.025 7.79653V9.68948ZM114.195 13.486V21.7454H116.088V13.486H114.195ZM115.142 22.6918H116.477V20.7989H115.142V22.6918ZM121.852 15.3396V14.3931H120.836L120.908 15.4065L121.852 15.3396ZM133.382 15.3396V16.2861H134.218L134.321 15.457L133.382 15.3396ZM133.001 19.4556L133.694 20.0997L134.355 19.3883L133.627 18.7459L133.001 19.4556ZM132.074 18.6379L132.7 17.9282L132.01 17.3192L131.382 17.9921L132.074 18.6379ZM121.852 14.1402L120.908 14.0651L120.827 15.0867H121.852V14.1402ZM131.965 14.1402V15.0867H132.978L132.909 14.076L131.965 14.1402ZM121.852 16.2861H133.382V14.3931H121.852V16.2861ZM134.321 15.457C134.356 15.1838 134.356 15.0584 134.356 14.8489H132.463C132.463 15.0211 132.463 15.0592 132.443 15.2222L134.321 15.457ZM134.356 14.8489V14.7944H132.463V14.8489H134.356ZM134.356 14.7944C134.356 12.5516 133.68 10.5034 132.404 8.99949C131.116 7.4818 129.257 6.56989 127.031 6.56989V8.46285C128.703 8.46285 130.033 9.13193 130.96 10.2243C131.899 11.3303 132.463 12.9212 132.463 14.7944H134.356ZM127.031 6.56989C122.656 6.56989 119.488 10.3053 119.488 14.7672H121.381C121.381 11.1604 123.882 8.46285 127.031 8.46285V6.56989ZM119.488 14.7672V14.8217H121.381V14.7672H119.488ZM119.488 14.8217C119.488 19.6615 123.057 23.0189 127.249 23.0189V21.126C124.136 21.126 121.381 18.6501 121.381 14.8217H119.488ZM127.249 23.0189C130.251 23.0189 132.15 21.763 133.694 20.0997L132.307 18.8116C131.017 20.2013 129.589 21.126 127.249 21.126V23.0189ZM133.627 18.7459L132.7 17.9282L131.448 19.3476L132.374 20.1653L133.627 18.7459ZM131.382 17.9921C130.361 19.0862 129.123 19.8721 127.304 19.8721V21.765C129.791 21.765 131.497 20.6428 132.766 19.2837L131.382 17.9921ZM127.304 19.8721C125.087 19.8721 123.007 18.2513 122.796 15.2727L120.908 15.4065C121.187 19.3516 124.069 21.765 127.304 21.765V19.8721ZM122.795 14.2154C123.011 11.5016 124.834 9.68948 126.976 9.68948V7.79653C123.613 7.79653 121.183 10.6184 120.908 14.0651L122.795 14.2154ZM126.976 9.68948C128.283 9.68948 129.217 10.2065 129.865 10.9915C130.535 11.802 130.935 12.9472 131.02 14.2044L132.909 14.076C132.804 12.5256 132.304 10.9722 131.325 9.78601C130.324 8.5743 128.859 7.79653 126.976 7.79653V9.68948ZM131.965 13.1937H121.852V15.0867H131.965V13.1937ZM149.219 21.7454V22.6918H150.166V21.7454H149.219ZM138.643 10.433H137.696V14.0231L139.466 10.8997L138.643 10.433ZM138.643 7.84347H139.589V6.89699H138.643V7.84347ZM137.307 7.84347V6.89699H136.361V7.84347H137.307ZM137.307 21.7454H136.361V22.6918H137.307V21.7454ZM138.643 21.7454V22.6918H139.589V21.7454H138.643ZM147.883 21.7454H146.937V22.6918H147.883V21.7454ZM150.166 21.7454V13.2407H148.273V21.7454H150.166ZM150.166 13.2407C150.166 11.386 149.593 9.70769 148.448 8.48457C147.295 7.25305 145.642 6.56989 143.658 6.56989V8.46285C145.191 8.46285 146.318 8.97907 147.066 9.77831C147.823 10.586 148.273 11.7698 148.273 13.2407H150.166ZM143.658 6.56989C140.725 6.56989 138.884 8.08823 137.819 9.96641L139.466 10.8997C140.255 9.50682 141.522 8.46285 143.658 8.46285V6.56989ZM139.589 10.433V7.84347H137.696V10.433H139.589ZM138.643 6.89699H137.307V8.78995H138.643V6.89699ZM136.361 7.84347V21.7454H138.254V7.84347H136.361ZM137.307 22.6918H138.643V20.7989H137.307V22.6918ZM139.589 21.7454V13.7041H137.696V21.7454H139.589ZM139.589 13.7041C139.589 11.3234 141.278 9.68948 143.467 9.68948V7.79653C140.205 7.79653 137.696 10.3059 137.696 13.7041H139.589ZM143.467 9.68948C144.65 9.68948 145.483 10.0782 146.028 10.678C146.584 11.2897 146.937 12.2266 146.937 13.486H148.83C148.83 11.8832 148.378 10.4487 147.428 9.40438C146.468 8.34821 145.093 7.79653 143.467 7.79653V9.68948ZM146.937 13.486V21.7454H148.83V13.486H146.937ZM147.883 22.6918H149.219V20.7989H147.883V22.6918ZM166.945 21.7454V22.6918H167.891V21.7454H166.945ZM166.945 1.84658H167.891V0.900098H166.945V1.84658ZM165.609 1.84658V0.900098H164.663V1.84658H165.609ZM165.609 10.8419L164.818 11.3612L166.556 14.0093V10.8419H165.609ZM165.609 18.6379H166.556V15.4724L164.818 18.1183L165.609 18.6379ZM165.609 21.7454H164.663V22.6918H165.609V21.7454ZM167.891 21.7454V1.84658H165.998V21.7454H167.891ZM166.945 0.900098H165.609V2.79306H166.945V0.900098ZM164.663 1.84658V10.8419H166.556V1.84658H164.663ZM166.4 10.3226C165.151 8.41835 163.094 6.56989 159.885 6.56989V8.46285C162.237 8.46285 163.778 9.77638 164.818 11.3612L166.4 10.3226ZM159.885 6.56989C156.021 6.56989 152.178 9.73476 152.178 14.7944H154.071C154.071 10.8042 157.043 8.46285 159.885 8.46285V6.56989ZM152.178 14.7944V14.8489H154.071V14.7944H152.178ZM152.178 14.8489C152.178 19.9182 156.031 23.0189 159.885 23.0189V21.126C157.033 21.126 154.071 18.8295 154.071 14.8489H152.178ZM159.885 23.0189C163.083 23.0189 165.109 21.1232 166.4 19.1574L164.818 18.1183C163.71 19.8052 162.192 21.126 159.885 21.126V23.0189ZM164.663 18.6379V21.7454H166.556V18.6379H164.663ZM165.609 22.6918H166.945V20.7989H165.609V22.6918ZM164.744 14.8217C164.744 17.8368 162.394 19.8448 160.021 19.8448V21.7378C163.427 21.7378 166.637 18.8938 166.637 14.8217H164.744ZM160.021 19.8448C157.665 19.8448 155.516 17.9635 155.516 14.7944H153.623C153.623 18.9307 156.543 21.7378 160.021 21.7378V19.8448ZM155.516 14.7944V14.7399H153.623V14.7944H155.516ZM155.516 14.7399C155.516 13.0827 156.05 11.8445 156.841 11.0261C157.633 10.2065 158.744 9.744 160.021 9.744V7.85104C158.273 7.85104 156.657 8.49251 155.48 9.71051C154.302 10.9297 153.623 12.6627 153.623 14.7399H155.516ZM160.021 9.744C162.396 9.744 164.744 11.7277 164.744 14.7672H166.637C166.637 10.6649 163.425 7.85104 160.021 7.85104V9.744ZM164.744 14.7672V14.8217H166.637V14.7672H164.744ZM190.31 21.7454V22.6918H191.256V21.7454H190.31ZM190.31 2.66433H191.256V1.71786H190.31V2.66433ZM188.974 2.66433V1.71786H188.473L188.191 2.13279L188.974 2.66433ZM181.314 13.9494L180.531 14.4809L181.314 15.6347L182.097 14.4809L181.314 13.9494ZM173.655 2.66433L174.438 2.13279L174.156 1.71786H173.655V2.66433ZM172.319 2.66433V1.71786H171.373V2.66433H172.319ZM172.319 21.7454H171.373V22.6918H172.319V21.7454ZM173.682 21.7454V22.6918H174.628V21.7454H173.682ZM173.682 5.17213L174.462 4.636L172.735 2.1242V5.17213H173.682ZM181.233 16.1573L180.453 16.6935L180.735 17.1038H181.233V16.1573ZM181.342 16.1573V17.1038H181.84L182.122 16.6935L181.342 16.1573ZM188.892 5.17213H189.839V2.1242L188.112 4.636L188.892 5.17213ZM188.892 21.7454H187.946V22.6918H188.892V21.7454ZM191.256 21.7454V2.66433H189.363V21.7454H191.256ZM190.31 1.71786H188.974V3.61081H190.31V1.71786ZM188.191 2.13279L180.531 13.4179L182.097 14.4809L189.757 3.19588L188.191 2.13279ZM182.097 13.4179L174.438 2.13279L172.872 3.19588L180.531 14.4809L182.097 13.4179ZM173.655 1.71786H172.319V3.61081H173.655V1.71786ZM171.373 2.66433V21.7454H173.265V2.66433H171.373ZM172.319 22.6918H173.682V20.7989H172.319V22.6918ZM174.628 21.7454V5.17213H172.735V21.7454H174.628ZM172.902 5.70825L180.453 16.6935L182.013 15.6212L174.462 4.636L172.902 5.70825ZM181.233 17.1038H181.342V15.2109H181.233V17.1038ZM182.122 16.6935L189.672 5.70825L188.112 4.636L180.562 15.6212L182.122 16.6935ZM187.946 5.17213V21.7454H189.839V5.17213H187.946ZM188.892 22.6918H190.31V20.7989H188.892V22.6918ZM196.147 15.3396V14.3931H195.132L195.203 15.4065L196.147 15.3396ZM207.678 15.3396V16.2861H208.513L208.617 15.457L207.678 15.3396ZM207.296 19.4556L207.99 20.0997L208.65 19.3883L207.922 18.7459L207.296 19.4556ZM206.369 18.6379L206.996 17.9282L206.306 17.3192L205.678 17.9921L206.369 18.6379ZM196.147 14.1402L195.204 14.0651L195.123 15.0867H196.147V14.1402ZM206.26 14.1402V15.0867H207.273L207.205 14.076L206.26 14.1402ZM196.147 16.2861H207.678V14.3931H196.147V16.2861ZM208.617 15.457C208.651 15.1838 208.652 15.0584 208.652 14.8489H206.759C206.759 15.0211 206.759 15.0592 206.739 15.2222L208.617 15.457ZM208.652 14.8489V14.7944H206.759V14.8489H208.652ZM208.652 14.7944C208.652 12.5516 207.976 10.5034 206.699 8.99949C205.411 7.4818 203.553 6.56989 201.327 6.56989V8.46285C202.999 8.46285 204.329 9.13193 205.256 10.2243C206.195 11.3303 206.759 12.9212 206.759 14.7944H208.652ZM201.327 6.56989C196.952 6.56989 193.784 10.3053 193.784 14.7672H195.677C195.677 11.1604 198.178 8.46285 201.327 8.46285V6.56989ZM193.784 14.7672V14.8217H195.677V14.7672H193.784ZM193.784 14.8217C193.784 19.6615 197.352 23.0189 201.545 23.0189V21.126C198.432 21.126 195.677 18.6501 195.677 14.8217H193.784ZM201.545 23.0189C204.547 23.0189 206.445 21.763 207.99 20.0997L206.603 18.8116C205.312 20.2013 203.885 21.126 201.545 21.126V23.0189ZM207.922 18.7459L206.996 17.9282L205.743 19.3476L206.67 20.1653L207.922 18.7459ZM205.678 17.9921C204.656 19.0862 203.419 19.8721 201.599 19.8721V21.765C204.086 21.765 205.793 20.6428 207.061 19.2837L205.678 17.9921ZM201.599 19.8721C199.382 19.8721 197.303 18.2513 197.092 15.2727L195.203 15.4065C195.483 19.3516 198.364 21.765 201.599 21.765V19.8721ZM197.091 14.2154C197.307 11.5016 199.129 9.68948 201.272 9.68948V7.79653C197.909 7.79653 195.479 10.6184 195.204 14.0651L197.091 14.2154ZM201.272 9.68948C202.579 9.68948 203.513 10.2065 204.161 10.9915C204.83 11.802 205.231 12.9472 205.316 14.2044L207.205 14.076C207.099 12.5256 206.6 10.9722 205.62 9.78601C204.62 8.5743 203.155 7.79653 201.272 7.79653V9.68948ZM206.26 13.1937H196.147V15.0867H206.26V13.1937ZM213.511 21.7454V22.6918H214.457V21.7454H213.511ZM213.511 2.66433H214.457V1.71786H213.511V2.66433ZM212.093 2.66433V1.71786H211.147V2.66433H212.093ZM212.093 21.7454H211.147V22.6918H212.093V21.7454ZM214.457 21.7454V2.66433H212.564V21.7454H214.457ZM213.511 1.71786H212.093V3.61081H213.511V1.71786ZM211.147 2.66433V21.7454H213.04V2.66433H211.147ZM212.093 22.6918H213.511V20.7989H212.093V22.6918ZM230.995 21.7454V22.6918H231.941V21.7454H230.995ZM220.419 10.433H219.472V14.0231L221.242 10.8997L220.419 10.433ZM220.419 7.84347H221.365V6.89699H220.419V7.84347ZM219.083 7.84347V6.89699H218.136V7.84347H219.083ZM219.083 21.7454H218.136V22.6918H219.083V21.7454ZM220.419 21.7454V22.6918H221.365V21.7454H220.419ZM229.659 21.7454H228.713V22.6918H229.659V21.7454ZM231.941 21.7454V13.2407H230.048V21.7454H231.941ZM231.941 13.2407C231.941 11.386 231.369 9.70769 230.224 8.48457C229.071 7.25305 227.418 6.56989 225.434 6.56989V8.46285C226.967 8.46285 228.094 8.97907 228.842 9.77831C229.598 10.586 230.048 11.7698 230.048 13.2407H231.941ZM225.434 6.56989C222.5 6.56989 220.659 8.08823 219.595 9.96641L221.242 10.8997C222.031 9.50682 223.298 8.46285 225.434 8.46285V6.56989ZM221.365 10.433V7.84347H219.472V10.433H221.365ZM220.419 6.89699H219.083V8.78995H220.419V6.89699ZM218.136 7.84347V21.7454H220.029V7.84347H218.136ZM219.083 22.6918H220.419V20.7989H219.083V22.6918ZM221.365 21.7454V13.7041H219.472V21.7454H221.365ZM221.365 13.7041C221.365 11.3234 223.054 9.68948 225.243 9.68948V7.79653C221.981 7.79653 219.472 10.3059 219.472 13.7041H221.365ZM225.243 9.68948C226.425 9.68948 227.258 10.0782 227.804 10.678C228.36 11.2897 228.713 12.2266 228.713 13.486H230.606C230.606 11.8832 230.154 10.4487 229.204 9.40438C228.244 8.34821 226.869 7.79653 225.243 7.79653V9.68948ZM228.713 13.486V21.7454H230.606V13.486H228.713ZM229.659 22.6918H230.995V20.7989H229.659V22.6918ZM248.721 21.7454V22.6918H249.667V21.7454H248.721ZM248.721 1.84658H249.667V0.900098H248.721V1.84658ZM247.385 1.84658V0.900098H246.438V1.84658H247.385ZM247.385 10.8419L246.594 11.3612L248.331 14.0093V10.8419H247.385ZM247.385 18.6379H248.331V15.4724L246.594 18.1183L247.385 18.6379ZM247.385 21.7454H246.438V22.6918H247.385V21.7454ZM249.667 21.7454V1.84658H247.774V21.7454H249.667ZM248.721 0.900098H247.385V2.79306H248.721V0.900098ZM246.438 1.84658V10.8419H248.331V1.84658H246.438ZM248.176 10.3226C246.927 8.41835 244.87 6.56989 241.661 6.56989V8.46285C244.013 8.46285 245.554 9.77638 246.594 11.3612L248.176 10.3226ZM241.661 6.56989C237.797 6.56989 233.954 9.73476 233.954 14.7944H235.847C235.847 10.8042 238.819 8.46285 241.661 8.46285V6.56989ZM233.954 14.7944V14.8489H235.847V14.7944H233.954ZM233.954 14.8489C233.954 19.9182 237.807 23.0189 241.661 23.0189V21.126C238.809 21.126 235.847 18.8295 235.847 14.8489H233.954ZM241.661 23.0189C244.859 23.0189 246.885 21.1232 248.176 19.1574L246.594 18.1183C245.486 19.8052 243.968 21.126 241.661 21.126V23.0189ZM246.438 18.6379V21.7454H248.331V18.6379H246.438ZM247.385 22.6918H248.721V20.7989H247.385V22.6918ZM246.52 14.8217C246.52 17.8368 244.169 19.8448 241.797 19.8448V21.7378C245.203 21.7378 248.413 18.8938 248.413 14.8217H246.52ZM241.797 19.8448C239.441 19.8448 237.292 17.9635 237.292 14.7944H235.399C235.399 18.9307 238.319 21.7378 241.797 21.7378V19.8448ZM237.292 14.7944V14.7399H235.399V14.7944H237.292ZM237.292 14.7399C237.292 13.0827 237.826 11.8445 238.617 11.0261C239.409 10.2065 240.52 9.744 241.797 9.744V7.85104C240.049 7.85104 238.433 8.49251 237.256 9.71051C236.077 10.9297 235.399 12.6627 235.399 14.7399H237.292ZM241.797 9.744C244.172 9.744 246.52 11.7277 246.52 14.7672H248.413C248.413 10.6649 245.2 7.85104 241.797 7.85104V9.744ZM246.52 14.7672V14.8217H248.413V14.7672H246.52ZM255.485 4.21808V5.16456H256.432V4.21808H255.485ZM255.485 2.39175H256.432V1.44527H255.485V2.39175ZM253.822 2.39175V1.44527H252.876V2.39175H253.822ZM253.822 4.21808H252.876V5.16456H253.822V4.21808ZM255.321 21.7454V22.6918H256.268V21.7454H255.321ZM255.321 7.84347H256.268V6.89699H255.321V7.84347ZM253.986 7.84347V6.89699H253.039V7.84347H253.986ZM253.986 21.7454H253.039V22.6918H253.986V21.7454ZM256.432 4.21808V2.39175H254.539V4.21808H256.432ZM255.485 1.44527H253.822V3.33823H255.485V1.44527ZM252.876 2.39175V4.21808H254.769V2.39175H252.876ZM253.822 5.16456H255.485V3.2716H253.822V5.16456ZM256.268 21.7454V7.84347H254.375V21.7454H256.268ZM255.321 6.89699H253.986V8.78995H255.321V6.89699ZM253.039 7.84347V21.7454H254.932V7.84347H253.039ZM253.986 22.6918H255.321V20.7989H253.986V22.6918ZM261.046 15.3396V14.3931H260.03L260.102 15.4065L261.046 15.3396ZM272.577 15.3396V16.2861H273.412L273.516 15.457L272.577 15.3396ZM272.195 19.4556L272.889 20.0997L273.549 19.3883L272.821 18.7459L272.195 19.4556ZM271.268 18.6379L271.895 17.9282L271.204 17.3192L270.576 17.9921L271.268 18.6379ZM261.046 14.1402L260.103 14.0651L260.022 15.0867H261.046V14.1402ZM271.159 14.1402V15.0867H272.172L272.104 14.076L271.159 14.1402ZM261.046 16.2861H272.577V14.3931H261.046V16.2861ZM273.516 15.457C273.55 15.1838 273.551 15.0584 273.551 14.8489H271.658C271.658 15.0211 271.658 15.0592 271.638 15.2222L273.516 15.457ZM273.551 14.8489V14.7944H271.658V14.8489H273.551ZM273.551 14.7944C273.551 12.5516 272.874 10.5034 271.598 8.99949C270.31 7.4818 268.452 6.56989 266.226 6.56989V8.46285C267.898 8.46285 269.228 9.13193 270.155 10.2243C271.093 11.3303 271.658 12.9212 271.658 14.7944H273.551ZM266.226 6.56989C261.851 6.56989 258.682 10.3053 258.682 14.7672H260.575C260.575 11.1604 263.077 8.46285 266.226 8.46285V6.56989ZM258.682 14.7672V14.8217H260.575V14.7672H258.682ZM258.682 14.8217C258.682 19.6615 262.251 23.0189 266.444 23.0189V21.126C263.331 21.126 260.575 18.6501 260.575 14.8217H258.682ZM266.444 23.0189C269.446 23.0189 271.344 21.763 272.889 20.0997L271.502 18.8116C270.211 20.2013 268.784 21.126 266.444 21.126V23.0189ZM272.821 18.7459L271.895 17.9282L270.642 19.3476L271.569 20.1653L272.821 18.7459ZM270.576 17.9921C269.555 19.0862 268.318 19.8721 266.498 19.8721V21.765C268.985 21.765 270.692 20.6428 271.96 19.2837L270.576 17.9921ZM266.498 19.8721C264.281 19.8721 262.202 18.2513 261.991 15.2727L260.102 15.4065C260.382 19.3516 263.263 21.765 266.498 21.765V19.8721ZM261.99 14.2154C262.206 11.5016 264.028 9.68948 266.171 9.68948V7.79653C262.808 7.79653 260.377 10.6184 260.103 14.0651L261.99 14.2154ZM266.171 9.68948C267.478 9.68948 268.412 10.2065 269.06 10.9915C269.729 11.802 270.13 12.9472 270.215 14.2044L272.104 14.076C271.998 12.5256 271.499 10.9722 270.519 9.78601C269.519 8.5743 268.054 7.79653 266.171 7.79653V9.68948ZM271.159 13.1937H261.046V15.0867H271.159V13.1937Z" fill="black"/>
</svg>
