<svg width="28" height="29" viewBox="0 0 28 29" fill="none" xmlns="http://www.w3.org/2000/svg">
<path d="M22.4964 0.471558H11.5172C10.0613 0.471558 8.66502 0.93446 7.63553 1.75843C6.60603 2.5824 6.02767 3.69994 6.02767 4.86521V10.7234H7.85753V4.86521C7.85753 4.08837 8.2431 3.34334 8.92943 2.79402C9.61577 2.24471 10.5466 1.93611 11.5172 1.93611H22.4964C23.467 1.93611 24.3979 2.24471 25.0842 2.79402C25.7706 3.34334 26.1561 4.08837 26.1561 4.86521V23.9044C26.1561 24.6812 25.7706 25.4263 25.0842 25.9756C24.3979 26.5249 23.467 26.8335 22.4964 26.8335H11.5172C10.5466 26.8335 9.61577 26.5249 8.92943 25.9756C8.2431 25.4263 7.85753 24.6812 7.85753 23.9044V18.0462H6.02767V23.9044C6.02767 25.0697 6.60603 26.1872 7.63553 27.0112C8.66502 27.8352 10.0613 28.2981 11.5172 28.2981H22.4964C23.9523 28.2981 25.3486 27.8352 26.3781 27.0112C27.4076 26.1872 27.986 25.0697 27.986 23.9044V4.86521C27.986 3.69994 27.4076 2.5824 26.3781 1.75843C25.3486 0.93446 23.9523 0.471558 22.4964 0.471558V0.471558ZM0.538086 13.6525H19.2942L13.3471 8.89273L14.5621 7.79432L22.7965 14.3848L14.5621 20.9753L13.3471 19.8769L19.2942 15.1171H0.538086V13.6525Z" fill="black"/>
</svg>
