<svg width="31" height="31" viewBox="0 0 31 31" fill="none" xmlns="http://www.w3.org/2000/svg">
<path d="M15.7946 2.08933C14.0151 2.08943 12.2531 2.43345 10.6091 3.10175C8.96513 3.77005 7.4714 4.74953 6.21321 5.98429C4.95501 7.21904 3.95698 8.68487 3.27611 10.2981C2.59523 11.9113 2.24484 13.6403 2.24495 15.3864C2.24505 17.1325 2.59565 18.8615 3.27672 20.4747C3.95779 22.0878 4.95599 23.5535 6.21433 24.7881C7.47268 26.0227 8.96652 27.0021 10.6106 27.6702C12.2546 28.3383 14.0167 28.6821 15.7961 28.682C19.3899 28.6818 22.8364 27.2807 25.3775 24.787C27.9185 22.2933 29.346 18.9113 29.3457 15.3849C29.3455 11.8585 27.9177 8.47658 25.3764 5.98318C22.835 3.48978 19.3883 2.08912 15.7946 2.08933V2.08933ZM15.7946 0.525146C19.8109 0.525146 23.6628 2.09072 26.5027 4.87746C29.3427 7.6642 30.9382 11.4438 30.9382 15.3849C30.9382 19.3259 29.3427 23.1055 26.5027 25.8923C23.6628 28.679 19.8109 30.2446 15.7946 30.2446C11.7782 30.2446 7.92635 28.679 5.08636 25.8923C2.24637 23.1055 0.650879 19.3259 0.650879 15.3849C0.650879 11.4438 2.24637 7.6642 5.08636 4.87746C7.92635 2.09072 11.7782 0.525146 15.7946 0.525146V0.525146ZM14.9975 22.4237H16.5916V25.5521H14.9975V22.4237ZM15.7946 5.21769C17.2743 5.21769 18.6934 5.79448 19.7397 6.82118C20.786 7.84787 21.3738 9.24037 21.3738 10.6923C21.3738 12.0954 20.2595 13.0683 19.0799 14.096L17.5895 15.5084C16.6522 16.5627 16.5501 18.5664 16.59 19.25V19.2953H14.9975C14.9911 19.214 14.8349 16.2233 16.3907 14.4792L18.0199 12.9275C18.9636 12.1048 19.7797 11.3931 19.7797 10.6923C19.7797 9.65521 19.3599 8.66057 18.6125 7.92722C17.8651 7.19387 16.8515 6.78187 15.7946 6.78187C14.7376 6.78187 13.724 7.19387 12.9766 7.92722C12.2292 8.66057 11.8094 9.65521 11.8094 10.6923H10.2153C10.2153 9.24037 10.8031 7.84787 11.8494 6.82118C12.8957 5.79448 14.3148 5.21769 15.7946 5.21769Z" fill="black"/>
</svg>
