<svg width="30" height="29" viewBox="0 0 30 29" fill="none" xmlns="http://www.w3.org/2000/svg">
<path d="M15.3193 0.471558C7.35431 0.471558 0.837402 6.7329 0.837402 14.3855C0.837402 22.0367 7.35431 28.2981 15.3193 28.2981C23.2828 28.2981 29.7997 22.0367 29.7997 14.3855C29.7997 6.7329 23.3552 0.471558 15.3193 0.471558ZM21.9797 20.5758C21.6912 20.9922 21.1839 21.1329 20.7476 20.8557C17.3428 18.8364 13.0711 18.4186 8.00223 19.5313C7.49781 19.6734 7.06297 19.3252 6.91802 18.906C6.77162 18.4186 7.13399 18.0036 7.57029 17.8629C13.0711 16.6792 17.8515 17.168 21.6159 19.3949C22.1232 19.6024 22.1956 20.158 21.9797 20.5758ZM23.7191 16.7502C23.3552 17.2363 22.7044 17.4451 22.1956 17.097C18.2864 14.8047 12.3507 14.1056 7.78916 15.4982C7.21226 15.6389 6.55709 15.359 6.41359 14.8047C6.26719 14.2448 6.55854 13.6182 7.13689 13.4789C12.4217 11.9498 18.9401 12.7157 23.4277 15.3604C23.8626 15.5679 24.08 16.2628 23.7191 16.7502V16.7502ZM23.8626 12.8522C19.2285 10.2103 11.481 9.93181 7.06296 11.2562C6.72698 11.3492 6.36661 11.3143 6.05673 11.1587C5.74685 11.0031 5.51127 10.7388 5.39895 10.4206C5.30041 10.0974 5.33575 9.75015 5.49757 9.45141C5.65938 9.15267 5.93515 8.9256 6.26719 8.8177C11.4085 7.35681 19.8808 7.63395 25.2396 10.6992C25.8904 11.0459 26.1078 11.8815 25.7454 12.5068C25.3831 12.9942 24.5148 13.2004 23.8626 12.8522Z" fill="black"/>
</svg>
