<svg width="26" height="27" viewBox="0 0 26 27" fill="none" xmlns="http://www.w3.org/2000/svg">
<path d="M8.48646 2.41514L25.2746 0.471558V19.6342C25.2747 20.8295 24.9149 21.9885 24.2555 22.9177C23.5961 23.8468 22.677 24.4899 21.6518 24.7394C20.6265 24.9889 19.5572 24.8297 18.6225 24.2884C17.6878 23.7471 16.9444 22.8565 16.5164 21.7655C16.0884 20.6744 16.0018 19.4489 16.271 18.2938C16.5402 17.1387 17.149 16.1239 17.9956 15.4189C18.8422 14.714 19.8753 14.3616 20.9224 14.4207C21.9695 14.4798 22.967 14.9468 23.7484 15.7436V7.53076L10.0127 9.25859V21.3742C10.0127 22.5695 9.65294 23.7285 8.99355 24.6577C8.33416 25.5869 7.41505 26.2299 6.38979 26.4794C5.36454 26.7289 4.29523 26.5697 3.36055 26.0284C2.42587 25.4871 1.68242 24.5966 1.25442 23.5055C0.826424 22.4144 0.739802 21.1889 1.00903 20.0338C1.27826 18.8787 1.88703 17.8639 2.73363 17.1589C3.58022 16.454 4.61336 16.1016 5.66043 16.1607C6.7075 16.2198 7.70507 16.6868 8.48646 17.4836V2.41514V2.41514ZM10.0127 3.98811V7.5064L23.7484 5.77857V2.39774L10.0127 3.98811ZM8.48646 21.3742C8.48646 20.4513 8.16487 19.5661 7.59244 18.9135C7.02 18.2609 6.24361 17.8942 5.43407 17.8942C4.62452 17.8942 3.84813 18.2609 3.2757 18.9135C2.70326 19.5661 2.38167 20.4513 2.38167 21.3742C2.38167 22.2972 2.70326 23.1824 3.2757 23.835C3.84813 24.4876 4.62452 24.8543 5.43407 24.8543C6.24361 24.8543 7.02 24.4876 7.59244 23.835C8.16487 23.1824 8.48646 22.2972 8.48646 21.3742ZM23.7484 19.6342C23.7484 18.7113 23.4268 17.8261 22.8544 17.1735C22.282 16.5209 21.5056 16.1542 20.696 16.1542C19.8865 16.1542 19.1101 16.5209 18.5377 17.1735C17.9652 17.8261 17.6436 18.7113 17.6436 19.6342C17.6436 20.5572 17.9652 21.4424 18.5377 22.095C19.1101 22.7476 19.8865 23.1143 20.696 23.1143C21.5056 23.1143 22.282 22.7476 22.8544 22.095C23.4268 21.4424 23.7484 20.5572 23.7484 19.6342V19.6342Z" fill="black"/>
</svg>
